<?xml version="1.0" encoding="utf-8"?>
<!-- Generator: Adobe Illustrator 28.3.0, SVG Export Plug-In . SVG Version: 6.00 Build 0)  -->
<svg version="1.1" id="图层_1" xmlns="http://www.w3.org/2000/svg" xmlns:xlink="http://www.w3.org/1999/xlink" x="0px" y="0px"
	 viewBox="0 0 893.7 749.5" style="enable-background:new 0 0 893.7 749.5;" xml:space="preserve">
<style type="text/css">
	.st0{fill:#00E4E9;}
	.st1{fill:#50F6D4;}
	.st2{fill:#00D7F1;}
	.st3{fill:#FFFFFF;}
</style>
<g>
	<path class="st0" d="M628.6,138.6H310.9L115.7,705.5h318.4l195-566.2C629.2,138.9,629,138.6,628.6,138.6L628.6,138.6z M421.1,685.7
		H142.3l181.6-527.3H602c0.4,0,0.6,0.3,0.5,0.7L421.1,685.7L421.1,685.7z"/>
	<path class="st1" d="M777.5,44H459.8L264.6,610.9H583l195-566.2C778.1,44.4,777.9,44,777.5,44z M570,591.1H291.2L472.8,63.8h278.1
		c0.4,0,0.6,0.3,0.5,0.7L570,591.1L570,591.1z"/>
	<polygon class="st2" points="752.1,452.9 90.1,452.9 141.6,303.3 803.6,303.3 	"/>
	<g>
		<rect x="278.6" y="330" class="st3" width="76.5" height="9.6"/>
		<polygon class="st3" points="278.6,380.9 278.6,422.7 278.6,425.7 355.2,425.7 355.2,416.1 288.2,416.1 288.2,381 355.2,381 
			355.2,371.4 278.6,371.4 		"/>
		<path class="st3" d="M412.6,391.4c4.3-1.7,8-3.9,11.2-6.8c3.2-2.9,5.7-6.3,7.6-10.1c1.9-3.8,2.8-7.9,2.8-12.3
			c0-5.2-1.1-9.8-3.3-13.7c-2.2-4-4.9-7.2-8.3-9.8c-3.4-2.6-7.1-4.6-11.3-5.9c-4.2-1.3-8.2-2-12.1-2h-34.9v9.2h38.1
			c2.9,0,5.7,0.6,8.4,1.8c2.7,1.2,5,2.8,7.1,4.8c2,2,3.7,4.3,4.9,7c1.2,2.7,1.9,5.5,1.9,8.6c0,3.3-0.7,6.3-2,9
			c-1.4,2.7-3.1,5.1-5.2,7c-2.1,2-4.5,3.5-7.2,4.5c-2.6,1.1-5.2,1.6-7.8,1.6h-31.7v14l44.3,27.4h19.2l-52.4-31.8h17.4
			C403.9,393.9,408.3,393.1,412.6,391.4z"/>
		<path class="st3" d="M525.7,344.2c-4.3-4.3-9.4-7.7-15.2-10.2c-5.8-2.5-12-3.7-18.7-3.7c-6.7,0-12.9,1.3-18.7,3.8
			c-5.8,2.5-10.8,5.9-15.2,10.2c-4.3,4.3-7.7,9.4-10.2,15.2c-2.5,5.8-3.8,12-3.8,18.6h9.2c0-5.4,1-10.4,3-15c2-4.6,4.7-8.7,8.2-12.1
			c3.5-3.4,7.6-6.2,12.3-8.1c4.7-2,9.7-2.9,15.1-2.9c5.2,0,10.1,1,14.8,2.9c4.6,2,8.7,4.7,12.2,8.1c3.5,3.4,6.2,7.5,8.2,12.1
			c2,4.6,3,9.6,3,15c0,5.3-1,10.2-3,14.9c-2,4.6-4.7,8.7-8.2,12.1c-3.5,3.4-7.6,6.2-12.2,8.2c-4.6,2-9.6,3-14.8,3v9.6
			c6.6,0,12.9-1.3,18.7-3.8c5.8-2.5,10.8-5.9,15.2-10.2c4.3-4.3,7.7-9.3,10.2-15.1c2.5-5.8,3.8-12,3.8-18.6c0-6.6-1.2-12.9-3.7-18.6
			C533.4,353.5,530,348.5,525.7,344.2z"/>
		<polygon class="st3" points="548.6,330.2 548.6,425.5 558.2,425.5 558.2,350.7 612.3,425.5 621.5,425.5 624.1,425.5 555,330.2 		
			"/>
		<rect x="634.1" y="330" class="st3" width="76.5" height="9.6"/>
		<polygon class="st3" points="710.7,381 710.7,371.4 634.1,371.4 634.1,380.9 634.1,422.7 634.1,425.7 710.7,425.7 710.7,416.1 
			643.7,416.1 643.7,381 		"/>
		<polygon class="st3" points="259.6,330.4 259.5,330.5 186.1,330.5 186.1,340.1 251.8,340.1 182.9,426.2 195.3,426.2 195.5,426 
			268.8,426 268.8,416.5 203.1,416.5 272,330.4 		"/>
	</g>
</g>
</svg>
