<?xml version="1.0" encoding="UTF-8"?>
<svg xmlns="http://www.w3.org/2000/svg" version="1.1" viewBox="0 0 462 462">
  <defs>
    <style>
      .cls-1 {
        fill: #fff;
      }

      .cls-2 {
        fill: #515151;
      }
    </style>
  </defs>
  <!-- Generator: Adobe Illustrator 28.7.1, SVG Export Plug-In . SVG Version: 1.2.0 Build 142)  -->
  <g>
    <g id="_图层_1" data-name="图层_1">
      <rect class="cls-1" width="462" height="462"/>
      <g>
        <polygon class="cls-2" points="187.8 346.2 190.2 354.7 198.9 352.2 239 341.3 238.1 337.8 187.8 346.2"/>
        <rect class="cls-2" x="274.7" y="214.7" width="29.7" height="6.2"/>
        <path class="cls-2" d="M292.2,347v-31.7h24.6v-6.2h-24.6v-30.2h25.1v-6.2h-25.1v-30.4h27.1v-6.2h-62.3s0,0,0,0h-1.4v-27.5s0,0,0,0v-59.5h-69.2v6.2h59.8v72.9h0v14.5c-4.2,12-9.2,24-15.3,36.1l3.8,2.8c3.8-6.5,7.6-13.5,11.4-21.2v105.1h9.4v-12.3h65v-6.2h-28.4ZM282.9,347h-27.2v-31.7h27.2v31.7ZM282.9,309.1h-27.2v-30.2h27.2v30.2ZM282.9,272.6h-27.2v-30.4h27.2v30.4Z"/>
        <path class="cls-2" d="M197,259.1l-4.5-3.1-2.4,2.9,10.9,10.9c6,6,9.6,9.7,10.8,10.9-5.1,10.9-9.7,20.4-13.7,28.6l-6.4,1,2.8,8.7c18-5.6,31.6-9.8,40.6-12.8l-.9-3.6-30.2,5.7c11.8-18.5,22.9-38.9,33.3-61.1l-8.7-5.2c-3.1,7.9-7.5,18.1-13.2,30.7l-14.9-11.3c6.2-10.8,11.7-21.2,16.5-31.2h12.2v-57.8h-53.9v57.8h33.3c-3.6,9.3-7.4,18.9-11.6,28.8ZM184.7,178.8h35.2v19.6h-35.2v-19.6ZM184.7,224.1v-19.4h35.2v19.4h-35.2Z"/>
        <path class="cls-2" d="M173.4,119.3l5.6,7.6c3.7,4.9,6.4,8.6,8,11.1l7.3-5.7c-.2-.2-3.6-3.3-10.2-9.2l-4-3.8h26.4v-6.2h-40.1c2.5-4.4,4.8-8.6,6.8-12.7l-8.5-4c-6.1,15.5-13.9,31.1-23.2,46.8l3.1,2.1c7.5-10.1,13.5-18.7,18-26h10.9Z"/>
        <rect class="cls-2" x="147.7" y="165.1" width="9.4" height="89.3"/>
        <path class="cls-2" d="M169.3,152.6c-5.2-5.2-9.2-9.1-12-11.6l-2.9,2.4,8.3,11.8c5.2,7.4,8.1,11.5,8.7,12.3l7.3-5.7-9.4-9.2Z"/>
        <path class="cls-2" d="M204.1,140.1c6.4-8.3,11.2-15.2,14.6-20.6h15.3l5.9,8.2c2.8,3.6,5.2,6.9,7.3,10.1l7.3-5.7c-3.6-2.9-7.1-6-10.4-9.4l-3.5-3.1h25.5v-6.2h-43.5c2.7-4.6,4.9-8.8,6.6-12.5l-8.7-4c-4.9,13.6-11.3,27.5-19.4,41.5l3.1,1.9Z"/>
      </g>
    </g>
  </g>
</svg>