<?xml version="1.0" encoding="UTF-8"?>
<svg xmlns="http://www.w3.org/2000/svg" version="1.1" viewBox="0 0 462 462">
  <defs>
    <style>
      .cls-1 {
        stroke: gray;
        stroke-width: .3px;
      }

      .cls-1, .cls-2 {
        fill: none;
        stroke-miterlimit: 10;
      }

      .cls-3 {
        fill: #fff;
      }

      .cls-2 {
        stroke: #999;
        stroke-width: 0px;
      }
    </style>
  </defs>
  <!-- Generator: Adobe Illustrator 28.7.1, SVG Export Plug-In . SVG Version: 1.2.0 Build 142)  -->
  <g>
    <g id="_图层_1">
      <rect class="cls-3" width="462" height="462"/>
      <g>
        <g>
          <g>
            <polygon class="cls-2" points="199 318 209.4 307.3 201.6 302.1 230.1 294.8 236.2 309.6 199 318"/>
            <polygon class="cls-2" points="288.1 208.1 266.9 234.1 263.8 222.9 290.3 230.4 288.1 208.1"/>
            <path class="cls-2" d="M205.2,382l183.5-1.1-119.1-187.8,52.9-11.3,48.7,30.6-154,4.8,104.1,153.2-45.5-28.6,75.8-141.6-180.1-54.5,103.1-3.3,14.7,169.5-38.9-74.5v36.8s-158.6-31.4-158.6-31.4l78.8-28.5h13.7s100.8-86,100.8-86l-86.2,54.9-10.5,80.2,68.8-101.1-140.9,66.7h90.6s-110.3-12-110.3-12l269.7,70-199.1-155.4,114,120.1-7,77.3-131.9-78.7,105,61.1,46.1-37-18.9,6.8-69.4,100.9ZM331.9,371.1l9-131.8-158.9-3,23.2,126.8,126.6,8ZM327.2,341.2l6.8-128.1-146.8-2.4,20.9,120.6,119.1,9.9ZM327.4,313.8l6.9-127.7-147.2-2.6,21.1,120.5,119.2,9.8Z"/>
            <path class="cls-2" d="M135.8,162.2l67.6,42.8-20.7,57.8,102.1-78.9-180.3,48,122,80.4-72.1-39.6,61.3-55.4-11,33.9,22.2-66,38.7,25.1-18.4,33.6,4.6,94.5-27.9-9.1,26.4-92,14.9,68.9,58-55.9-35.9-116.6-29,117.8-143.1,21.9,111.1-80.5-90.3-30.6ZM249.8,288l-48.1-58.3,11.2-40.7,82.2-15.3-45.3,114.3ZM236.7,152.6l-24.5,87.3,3.1-15.3-69.5-17.3,90.9-54.8Z"/>
            <polygon class="cls-2" points="188.2 146.9 199.7 147.5 185.2 125.5 191.2 142.6 185.2 161.9 195.1 160.5 211.8 144.3 215.9 121.4 182.1 147.3 211.3 114.1 176 123.6 130.3 153.5 146.4 140.4 163 114.5 188.2 146.9"/>
            <polygon class="cls-2" points="136.6 251.9 129.2 243.6 142.8 185.1 191.2 194.2 136.6 251.9"/>
            <polygon class="cls-2" points="177.6 179.6 176.1 152.7 162.4 169.7 186.1 169.9 191.9 192.4 188.6 186.6 177.6 179.6"/>
            <polygon class="cls-2" points="229.1 189.9 230.5 177.5 231.9 151 264.2 134 237.2 140.1 262 162.7 260.4 129.2 242.5 178.3 263.3 172.4 252.8 173.2 227.8 115.1 220 142.2 236.6 149.5 176.5 173.5 229.1 189.9"/>
          </g>
          <g>
            <polygon class="cls-2" points="188.7 288.6 204.2 316.7 210.4 334.2 229.9 294.2 230.8 321.6 188.7 288.6"/>
            <polygon class="cls-2" points="289.4 202.3 262.3 212.3 263.1 226.5 275.7 211.1 289.4 202.3"/>
            <path class="cls-2" d="M247.5,344.1l-48.3-110.3,69.6-44,8.3,171.1-48.5-32.3,141.9,16.2-39.2,65.8-67.8-19.5,49-158.7,39.8,74.3-22.9,73.2-25.1-218.6-53.9-1.9v-32.3c0,0,96.3,102.5,96.3,102.5l-106.8-15.6h69.1s-121.6,27.7-121.6,27.7l20.2,38.8-25.1,38.6-61-45.7,143.6-44.7h117.3c0,0-20.7,29.6-20.7,29.6l-212.7-3.9,36.6-85.2-104.7,90,281,61.7-34.2,70.2-75.5-53.7,35.4-123.5-38.7-11.2-1.5,141.3ZM295.2,339.6l-109.3,32.6-6-137.7,134.1,15-18.9,90.1ZM293.2,310.5l-102.1,31.5-5.5-132.8,125.9,15.8-18.3,85.5ZM293.2,283.2l-102.3,31.4-5.5-132.6,126.1,15.6-18.3,85.6Z"/>
            <path class="cls-2" d="M247.4,305.8l-43-141.3,30.5,66.4-80.9,83.9,11-63.2,88.6,91.5,1.2-32.7-55.6,16.3-11.4-96,39.9-31.3-53.3,142,137.4-93.3-82.8-10-15.6-68.5,65.9,56.3-2.2,101-71.9-101.5,64.6-75.4-5,107.8-93.9-16.5,27.8,39.3,48.8,25.3ZM171.6,147.5l20.1,100.1,45.6-14.6,2.7-64.1-68.4-21.4ZM172.2,269.6l54.4-3.5,10.4-80.7-57.2,3.3-7.6,80.9Z"/>
            <polygon class="cls-2" points="180.3 163.8 171.3 168.5 205.9 183.5 202 155.4 205.5 139.7 189 124.9 206.4 121.4 218 108.2 187 105.4 183.4 136.7 202.1 156.7 191.3 174.9 178.2 182.8 204.7 138.4 180.3 163.8"/>
            <polygon class="cls-2" points="153.5 250.1 209 252 223.1 176.7 145.6 174.2 153.5 250.1"/>
            <polygon class="cls-2" points="177.4 179.8 175.7 170.9 179.3 163.3 170.1 181.2 194.1 195.8 186.9 191.3 177.4 179.8"/>
            <polygon class="cls-2" points="226.5 186 215.9 127.6 224.3 170.7 237.3 153.9 251.2 190.4 271.4 166.7 265.7 123.5 237 139.5 261.4 164.9 252.4 176.1 225.4 136 242.2 122.1 228.6 138.3 230.9 154 226.5 186"/>
          </g>
          <g>
            <polygon class="cls-2" points="194.1 304 209.3 307.5 203.1 307.7 239.6 320.8 232.3 329.2 194.1 304"/>
            <polygon class="cls-2" points="283.8 228.7 261.1 206.4 264.9 217.6 283 234.6 283.8 228.7"/>
            <path class="cls-2" d="M285.5,310l-15.1-21,15.4-32.2-19.2,145.5-63.1-53.1,72-83.6,36.9,68.6,6.9-167.2-15.2,72.5-60.6-29.9,57.6,47.1-6.4,1.9-44.2-10.8v50.1s-114-57.4-114-57.4l-4.2-26.3h97.6s105-143.9,105-143.9l-146.5-4.2,3.2,166.8,7.4-22.8-12,18.8h-57.8s34-1.5,34-1.5l71.6,40-55.9-111.9,154.6,94-13.1,75.3-93.6-10.3,23.4,11.5,60.1,122.8,34-177.6-58.7,38.8ZM261.1,310.3l-17.7,12.7-22.6-53.6,142.3-42.2-101.9,83.1ZM261.3,281.7l-17.8,13.1-22.1-53.3,138.2-46.1-98.3,86.3ZM261.3,254.5l-17.8,12.9-22.1-53.1,138-45.4-98.1,85.6Z"/>
            <path class="cls-2" d="M128.1,152.4l70.7,232.3,6-135.5-73.2,87.8,82.8-69.5-6.1,24.3-56.8-20.2,39.7,108.3,99.8-22.8-65.1-184.1,39.9,36.6-28.3,33.6-9.6-9.8-18-117.2-130.3,188.4,185,.8-160.2-101.7,55.1,48.9,92.2-7.3-195,61.5,169.5-114.5-98.1-40.1ZM243.8,277.2l29.6-176.5-48.8,109.4-108.9,20.6,128.1,46.5ZM230.4,164l-70.5-18.8,64.2,63.5,58.6,26.9-52.3-71.6Z"/>
            <polygon class="cls-2" points="189.5 143.9 207 142.1 186.8 130.1 181.2 130.8 191.9 154.5 199.3 185.4 219.6 177.2 215.2 125.7 184.5 126.3 200.3 123 160.7 104.1 141.6 157.5 165.6 166 158.9 116.7 189.5 143.9"/>
            <polygon class="cls-2" points="154.5 250 157.8 246.6 182.9 180.9 178 184.6 154.5 250"/>
            <polygon class="cls-2" points="181.6 175.6 175.6 177.6 184.3 161.4 180 174.2 190.8 190.6 201.8 173.1 181.6 175.6"/>
            <polygon class="cls-2" points="226.4 186 228.5 170.5 233 148 236.4 154.5 252.8 196.1 217 143.4 255.6 134.2 233.7 116.1 251.5 124.4 254.2 163.8 228.9 105.1 222.2 140.2 221.1 127.8 210.8 160.8 226.4 186"/>
          </g>
          <g>
            <polygon class="cls-2" points="198.5 316.7 200.8 323 209.8 331.8 242.6 328.9 234.9 293.4 198.5 316.7"/>
            <polygon class="cls-2" points="288.8 204.8 266.8 233.7 263.8 222.9 293.2 233.4 288.8 204.8"/>
            <path class="cls-2" d="M205.4,381.8l56.1-99.6,54.2,92.6,2.5-176.2,58,9.6-142.6,22.6,94.2,165.8-20.1-183.3,56.9-24-181.7-33.7,85.3-41.2,21.6,192.6-39.3-132.1v73.6s-23.8-12.7-23.8-12.7l31.4-21.7H121.9s145.8-65.8,145.8-65.8l-75.7-41.4,18.1-52,99.2,64.4-136.5,109.5h10.2s-22.7-2-22.7-2l20.4,32.4,9.8-79.9,151,69.7-.2,73.7-69.5,25.8-5.7,61.7,43.4,30.6-30.4-153-73.6,93.7ZM331.7,370.9l-94.8-42.4,66.3,11.7-87.9,12.1,116.4,18.6ZM327.1,341.1l-89.2-41.3,61.3,11.9-81.5,9.5,109.4,19.8ZM327.2,313.7l-89.4-41.1,61.5,11.7-81.6,9.7,109.4,19.7Z"/>
            <path class="cls-2" d="M248.2,306.9l-50.1,107,97.5-220.3-24.1,3.6-25.2,80.7-55.2-5.4-31.9,2.1,48.6-5.8,5.9-6.3,29.3,166.6-90-57.1,154.2-124.2-86.8-46.9-3.6,24.2-66.4,51.6,74.5-38.6,88.8,10.2-4.6-135.3-146.4,49.6,163.8-11.3-138.3,162,59.8-6.3ZM171,146.4l111.7-62.2-19.2,195.7-117.8-29.7,25.3-103.7ZM179.1,257.1l-23.6-120,95,23.7,5.4,96.5-76.9-.3Z"/>
            <polygon class="cls-2" points="181.8 160.5 194.8 151.1 196.2 156.2 204.8 158.8 175 173 194 154.1 216.1 162.2 208.1 171.4 180.2 163.6 200.7 122.7 172.4 119 144.9 158.7 173.6 176.7 199.3 133.5 181.8 160.5"/>
            <polygon class="cls-2" points="131.1 252.5 134.1 244.1 133.3 186.1 189.1 194.6 131.1 252.5"/>
            <polygon class="cls-2" points="190.6 166.5 176 154.4 161.8 169.9 184.4 171.1 193.4 194.7 196.6 180.4 190.6 166.5"/>
            <polygon class="cls-2" points="192.3 135.6 215.3 125.3 227.3 162.9 230.4 159 245.3 169.4 235.5 151.3 242.1 148.4 240.9 167 263.1 171.7 258.4 134.7 220.6 178.9 244.3 120.3 236.5 149.4 205.9 165.4 192.3 135.6"/>
          </g>
          <g>
            <polygon class="cls-2" points="200.6 322.5 198.5 327.1 209.1 329.5 235.2 308.7 237.7 316.5 200.6 322.5"/>
            <polygon class="cls-2" points="284.4 225.9 267.2 235.6 266.1 212.1 287 214.3 284.4 225.9"/>
            <path class="cls-2" d="M246.3,345.1l46.5-38.7,22.5,66.6-7.1-134.5-.2,25.4,1.7,30.2-23.4-65.2,8.5,36.9-7.2-12.6-114.3-106.2,151.5,212.4-18-221.5-56.3,174.4v-147c0,0,119.5,63.3,119.5,63.3l-171.5-14.5h14.3s118.8-140,118.8-140l-135.5,77.3,2.3,16.6,19.2,26.8,147.4,34.1h-151.9s-76.7-5.7-76.7-5.7l157.2,52.9-101.3-93.2,151.3,66.2-235.6,94.6,195.4,29-36.4,41.7,28.6-119.7-10.5-6.9-38.6,57.3ZM298.8,342.7l-35.1-37.1,43.3,37.9-71.6-14.6,63.3,13.8ZM298.1,315l-34.7-38.2,42.4,40.9-70.4-16.1,62.7,13.4ZM298.2,287.6l-34.8-38.1,42.5,40.5-70.5-15.9,62.8,13.4Z"/>
            <path class="cls-2" d="M206,252.6l-7,124.2-65.8-83.8,92.4-50-148.9-20,93.3,25.7-31,18.4,61.2,52.2,120,73.9-77.2,36.7-108.2-31.7,125.7-153.3-15.1,67-23.8-12.3.4-51.1,13.3,7.6-86.7-42.6,65.6-11.7-23.1-12.5-35,60.4,14.5,119.7,35.2-116.6ZM196.1,191.4l74.8-86.1-78.1,47.7-5.8,70,9-31.5ZM196.1,226.2l-35-78.6,39.7,103.2,28.5-12.9-33.3-11.7Z"/>
            <polygon class="cls-2" points="197.1 127.7 176.5 164.7 209.4 193.3 194.3 146.3 188.9 157.8 198.8 182.2 213.8 152.4 212.3 144.5 183.6 133.8 161 154.9 176.2 123.8 135.5 155.4 155.6 152.7 159.1 130.4 197.1 127.7"/>
            <polygon class="cls-2" points="163.4 249.1 122.6 242.9 222.8 176.7 131.9 174.9 163.4 249.1"/>
            <polygon class="cls-2" points="191.3 165.7 176 157.7 169.3 167.1 175.9 177.1 184 179.7 191.4 179.1 191.3 165.7"/>
            <polygon class="cls-2" points="190.2 132.4 212.3 115.1 230.9 153.5 252.8 142.4 240.5 152.1 252 158.4 245.9 144.5 235.2 126.8 255.9 142.4 257.1 143.6 225.7 133.3 257 108.8 229.7 139.9 212 157.1 190.2 132.4"/>
          </g>
        </g>
        <g>
          <g>
            <polygon class="cls-1" points="198 315.1 200.1 324.2 207.3 322.7 237.1 313.8 236.2 308.9 198 315.1"/>
            <polygon class="cls-1" points="285.9 218.8 263.9 219.9 263.6 224.1 285.8 223.3 285.9 218.8"/>
            <path class="cls-1" d="M280.9,314.2l-9.2-24.1,24,5.8,1.1-12.6-27.2,12,13.8-23,10.9-11,.4,4.8-23.2.4,11.7-21.4,12.4-12.2.8,9-45.9-7.6v9.3s-7.1-8.6-7.1-8.6l-3.4-20.9h5.2s-1.6-37.6-1.6-37.6l-46.2-10,.6,4.9,39.1,7.3-2.6,50.1h4.4s-3,9.8-3,9.8l3.1,29.2-6.3-1.9,11.5-13.1-4.4,78.9,8.1-1.6,3.4.7,47.5-3.6-.7-9-17-4.2ZM265.6,314.3l-21.1,7.8,6.4-26.7,14.1,2.7.7,16.3ZM265.7,285.7l-21.1,8,6.2-25.6,14.2,2.8.7,14.8ZM265.7,258.5l-21.1,8,6.2-25.7,14.2,2.8.7,15Z"/>
            <path class="cls-1" d="M206.6,253.4l-4.3-6.8.3,4,7.2,8.3,6.3,9.1-10,21.2h-7.8c0,0,5,10.8,5,10.8l30.2-13.6-.3-7.3-25.1,13.8,32.5-49.5-10.6-1.2-10.4,21.3-10.8-9.9,12-23.2,4-1.1,3.3-40.5-34.4,2.2-2,38,22.1,3.2-7.1,21ZM195.5,190.4l25.7,4.2,2.7,14.2-28.4-.8v-17.5ZM195.5,227.3l2.3-13.3,26.1-4.9-.4,18.1h-28Z"/>
            <polygon class="cls-1" points="188.8 145.5 192 153.2 197.1 158.9 202.3 155.8 193.9 152.4 192.6 146.2 211.9 144.8 212.7 141.8 182.5 143.6 189.3 132 179.8 128.4 162.9 165 167.5 168.5 178.5 145.4 188.8 145.5"/>
            <polygon class="cls-1" points="165.2 248.9 173.4 248.3 174 181.9 171.5 182.1 165.2 248.9"/>
            <polygon class="cls-1" points="185.3 171.8 175.9 163 174.4 165.2 179.7 174.4 186.8 184.1 190.7 179.3 185.3 171.8"/>
            <polygon class="cls-1" points="212.2 165 221.2 145.4 232.4 149.5 238.7 152.8 242.9 160.6 248.7 157 240.7 149.9 237.8 145.3 256.9 146.5 256.8 145.4 224.5 144 230.2 133 223.8 131.6 209.7 161.8 212.2 165"/>
          </g>
          <g>
            <polygon class="cls-1" points="198.6 316.9 200.4 323.7 207.3 322.9 237.3 314.6 236.4 311.3 198.6 316.9"/>
            <polygon class="cls-1" points="285.8 219.1 263.6 218.2 263.8 223 285.8 223.2 285.8 219.1"/>
            <path class="cls-1" d="M272.2,321.9l.8-30.8,20.7-3.1,1.9-.2-12.3-3.7-6.8-17.5,19.1.3.7-7.4-14.2-1.7-3.4-16.5,18-3.1.2-2.4-46.5,3.7v-13.8s-5.9,9.4-5.9,9.4l-3.4-20.8h6s-2.2-39.3-2.2-39.3l-47.4-6.6,1.1-2.9,41.4,10.9,10.5,52.5h-5.8s-5.1,10.4-5.1,10.4l-16.4,26.3,9.8,1.6,5.1-14.1,6.1,78.3v-3.7c0,0,4.5-8.7,4.5-8.7l48.9-.4.5-9.6-26,12.7ZM274.4,321.8l-28.7-.9-1.1-30.9,23.9,5.1,5.9,26.7ZM274.3,293.5l-28.5-.9-1-29.9,23.8,5.2,5.7,25.6ZM274.4,266.2l-28.5-.9-1-30,23.8,5.2,5.7,25.7Z"/>
            <path class="cls-1" d="M206.6,253.4l-4.6,2.5-2.5-3.5,8,8.7,9.8,7.4-14.1,17.7-4.4,3.2,4.1,11.5,29.4-15.7h1c0,0-19-1.7-19-1.7l24.8-40.2-10.9-8-9.3,21.3-6.2-4.7,9.9-17.9,3.2-4.5,7.7-46-44.3,3.6-2.3,44.6,25.5,4.3-5.9,17.2ZM195.5,190.5l30.2-3.9-3.4,19.2-25.2-.4-1.5-14.9ZM195.5,227.3l-2.2-21.4,28.9,6.2-.3,12.5-26.4,2.7Z"/>
            <polygon class="cls-1" points="188 147.2 193.2 152.3 199 164 202.5 156 194.2 152.1 192.7 146.8 212.1 145.4 212.6 142.3 182.3 145.4 188.4 132.7 182.8 132.2 164.6 165.6 166.8 167.6 180.8 149.5 188 147.2"/>
            <polygon class="cls-1" points="168.9 248.5 175.7 248.5 176.9 181.6 165.9 181.4 168.9 248.5"/>
            <polygon class="cls-1" points="184.6 172.5 175.8 164.4 174.2 165.3 180.5 173.8 186.5 183.7 192.8 179.1 184.6 172.5"/>
            <polygon class="cls-1" points="210.7 162.8 222.6 150.3 232.6 149 236.2 154.7 243.7 163.5 250.5 157.8 242 148.5 237.9 145.9 257.8 149.8 257.2 142.8 224.8 141.7 231.5 131.8 222.4 129.5 210.1 162.1 210.7 162.8"/>
          </g>
          <g>
            <polygon class="cls-1" points="198.8 317.4 199.7 324.9 207.2 322.6 237.5 314.9 236.4 311.8 198.8 317.4"/>
            <polygon class="cls-1" points="285.8 219.1 264 220 263.7 223.7 285.9 223.8 285.8 219.1"/>
            <path class="cls-1" d="M282.3,312.9l-4.5-18.1,15.8-7.4,2.9-2.9-21.8,6.6,7.6-19.8,11.2-13.3,1.7,5.9-14.2-5.3-3.8-18.9,20.4,2.1-1.4,1.2-45.8-7.7v1.3s1-2,1-2l-7.8-20.5h3.7s5.1-48,5.1-48l-54.2,10-1.4,6,52.4-13.4-8.6,60.1h11.4s-.8,12.2-.8,12.2l-26.6,24.7,7.5-.6,12-12.3-10.6,79.5h16.9s.2-3.8.2-3.8l48-.7-3.9-4.5-12.4-10.5ZM264.2,313l-13.9,4-6.1-27.4,21.6,7.5-1.6,15.9ZM264.3,284.5l-14,4.1-6-26.4,21.7,7.8-1.6,14.4ZM264.3,257.2l-14,4.1-6-26.5,21.6,7.8-1.6,14.6Z"/>
            <path class="cls-1" d="M209.3,256.8l-7-13.1-.3,7.1,10.8,4.9,5.8,13.2-13.1,19.8-6.9.6,4,14,35.2-11.3-4.2-3.1-20.8-3.1,20-42.9-3.2-1.9-10.3,21.2-16-6.5,19.3-21.8,9.7-3-4.6-41.9-35.9.4-6.7,43.4,30.4-6.3-6.2,30.2ZM193.4,186.6l26.4,10.5,3.8,11.2-30.7,3.3.5-25ZM193.4,231.1l5.8-14.6,24.4-6.9,2.5,21.3-32.7.3Z"/>
            <polygon class="cls-1" points="189 145.2 192.2 153 197.8 160.9 203.9 157.6 194.7 151.5 192.7 146.8 212.9 148.8 212.3 144.7 182.9 140.4 185.6 134.9 181 129.9 166.6 166.3 164.7 164.8 180.8 149.1 189 145.2"/>
            <polygon class="cls-1" points="165.8 248.8 172 248.1 175 181.8 166.5 181.4 165.8 248.8"/>
            <polygon class="cls-1" points="185.3 171.8 175.9 162.7 173.5 165.5 180.6 173.8 186.7 184 191.5 179.2 185.3 171.8"/>
            <polygon class="cls-1" points="209.8 161.4 222.2 149.1 233.7 146.4 238.3 153.2 243.1 161.2 246.4 156 242 148.6 238.3 148.7 256.9 146.4 257 144.3 224.9 140.7 228.3 134.7 222.2 129.4 210.4 162.5 209.8 161.4"/>
          </g>
          <g>
            <polygon class="cls-1" points="198.9 317.9 200.3 323.9 207.3 322.7 237.7 315.6 236.1 308.8 198.9 317.9"/>
            <polygon class="cls-1" points="285.6 220 263.4 217.6 263.8 223.1 285.7 222.3 285.6 220"/>
            <path class="cls-1" d="M274.5,319.9l-1.6-28.8,23.5,7.5,1-17.7-14.1,3.3-9.7-20.1,21.9,1.9v-3.1s-23,2.9-23,2.9l2.1-28.4,21.7-1.4,1.1-4.4-46.9,1.1v10.1s-6.5-7.8-6.5-7.8l2.7-20.8h1s-3.4-38.5-3.4-38.5l-46.3-2.3-.7,4.7,48.4-6.3-8.3,57.2h-1.6s15,12.2,15,12.2l-25.7,24.8,11.6,8.8,2.1-21.5,11,77.8,1.6,2.2-2.7-14.4,49.8,8.5-1.1-4.1-23-3.3ZM272.2,319.8l-26.5,1.2,7.3-23.9,10.2,2.8,9,20ZM272.1,291.5l-26.3,1.2,7.1-22.7,10.4,2.8,8.8,18.7ZM272.1,264.2l-26.4,1.2,7.1-22.9,10.4,2.8,8.8,18.9Z"/>
            <path class="cls-1" d="M206.2,252.9l-3.9-9.2-7.1,11.4,17.1,1.2,4.9,12.2-9,23.4-7.4-1.6,1.8,13,29.2-18.5,1.8,5.1-25.8,3.3,33-49.5-13-10.2-8.3,32.7-14.6-11,13.8-27.6,7.7,2.3-.9-38.7-33.6-1.4-.9,39.7,24.3-2.6-9.2,25.9ZM195.8,191l23.9,6.2v4.1s-26.1,9.9-26.1,9.9l2.2-20.3ZM195.8,226.7l3.5-10.2h20.5c0,0,5.6,13.9,5.6,13.9l-29.6-3.7Z"/>
            <polygon class="cls-1" points="187.5 148.3 191.6 153.5 197.2 159.2 202.4 155.9 195.3 150.9 192.8 146.9 212 145.1 212.4 143.9 182.7 141.6 186.7 134.1 180.4 129.1 162 164.7 164.7 164.9 180.4 149.1 187.5 148.3"/>
            <polygon class="cls-1" points="170.5 248.3 175.3 248.5 175.4 181.7 171.1 181.9 170.5 248.3"/>
            <polygon class="cls-1" points="185.4 171.7 175.8 164 174.2 165.3 179.4 174.6 186.9 184.4 192.8 179.1 185.4 171.7"/>
            <polygon class="cls-1" points="209.6 161.1 221.1 145.4 232.4 149.7 235.4 155.3 242.6 159.5 247.1 156.3 239.7 151 237.9 146.1 256.6 145.1 257 144.5 224.5 143.8 228.3 134.6 224.7 132.8 208.9 161.8 209.6 161.1"/>
          </g>
          <g>
            <polygon class="cls-1" points="198.8 317.4 201 322.6 207.1 321.9 237.7 315.6 236.4 312.1 198.8 317.4"/>
            <polygon class="cls-1" points="285.8 219 263.4 217.6 263.4 224.7 285.7 222.4 285.8 219"/>
            <path class="cls-1" d="M277.5,317.2l6.6-17.5,12.2-1.8-2-4.4-13.1-7.6-5.4-20.1,21.9,8.8-3.3-6.9-11.1-10.8-9.3-20.2,23.4,3.4-.4-3.6-46.4-4v6.5s0-4.3,0-4.3l8.6-20.5h-18.5s15.2-51.7,15.2-51.7l-57.8,9.7-.5,4.7,50.6-7.1-3.6,59.1h-5.1s8.6,11.7,8.6,11.7l-11.6,26.9-3.3-.8,15-14,.8,78.3,7.5,5.6-7.9-20.8,49.5,2.8,1.3-4.5-21.5,2.9ZM269.1,317.2l-12.7-5.4-3.9-15.2,20.6-5.3-3.9,25.9ZM269.1,288.8l-12.9-5.5-3.8-13.8,20.6-5.5-3.8,24.8ZM269.1,261.5l-12.9-5.5-3.9-13.9,20.6-5.5-3.8,24.9Z"/>
            <path class="cls-1" d="M209.2,256.8l-7.2-.9,1.9-6.1,2.9,12.1,10.3,6.6-14.4,17.1.2,5.4-.3,12.5,31.3-16.2-.9-6.5-25.2,12.2,29-49.7-6.6,1-11.1,16.6-7.2-8.5,7.6-23.2h3.9c0,.1,4.6-40.4,4.6-40.4l-42.4-4.7,7.1,44.4h22.1c0-.1-5.7,28.3-5.7,28.3ZM193.4,186.7l32.2-.2-1,23.6-26.9-5.7-4.3-17.8ZM193.5,231v-25.1c0,0,31.2,1.8,31.2,1.8l-3.4,16.1-27.8,7.3Z"/>
            <polygon class="cls-1" points="188.1 146.9 191.5 153.5 197.6 160.2 203.7 157.4 197.8 148.2 192.4 144.8 213.2 150.2 212.5 143.5 182.7 142 186 134.6 181.7 130.8 163 165 165.3 165.6 179 146 188.1 146.9"/>
            <polygon class="cls-1" points="169.4 248.4 179 248.9 173.4 181.9 165.3 181.4 169.4 248.4"/>
            <polygon class="cls-1" points="185.6 171.5 175.8 163.5 172.6 165.9 179.5 174.6 186.1 183.1 192.5 179.2 185.6 171.5"/>
            <polygon class="cls-1" points="211.8 164.4 221.2 145.4 233 148.1 239.4 152.3 243.2 161.8 250.2 157.6 240.2 150.4 237.7 144.8 257 146.7 257.5 140.8 224.4 144.7 228.8 134.2 222.5 129.7 206.2 161.1 211.8 164.4"/>
          </g>
        </g>
        <g>
          <g>
            <polygon class="cls-1" points="198.7 317.2 200.2 324.1 206.9 321.5 237.2 314.2 236.3 310.9 198.7 317.2"/>
            <polygon class="cls-1" points="285.8 219.2 263.8 219.2 263.8 223.2 285.9 223.6 285.8 219.2"/>
            <path class="cls-1" d="M279.1,315.7l-.3-20.1,16.1-2.9v-2.4c.1,0-17.8-1.1-17.8-1.1l-.4-22.5,18.3-2.6.7-2.1-20.3,1.3-.5-25.6,22.7,4-.2-10-46.9.2v1.3s-.6,1.5-.6,1.5l-3.2-20.5h2.1s1.7-45.5,1.7-45.5l-52.6,2.9v2.6c-.1,0,42.9,1.7,42.9,1.7l-.4,53.1h.5s1.4,10.8,1.4,10.8l-8.2,27.5.6,3.3,9.7-17.5-4.8,79h10.1s-.6-11-.6-11l48.7-1.4.6-2.6-19.3-1.2ZM267.4,315.8l-16.1.4-3-23,22.1.3-3.1,22.3ZM267.5,287.3l-16.2.4-2.9-21.8,22.1.3-3,21.1ZM267.5,260.1l-16.2.4-2.9-21.9,22.1.3-3,21.2Z"/>
            <path class="cls-1" d="M204.3,250.4l-2.1-1.3-1.3,2.5,8.4,7.8,7,8.8-11.4,19.9-5.2,1.7,3.8,8.2,30.7-10.4-.8-1.9-22.9,3.5,26.7-45.9-8.4-5.4-9.6,23.2-9.7-7.8,12-20.9,8.9-1.7-.2-44-39.7,1.8-3,43,26.8-1.6-10.2,20.6ZM197.3,193.7l25.1-1.3.6,14.7-27.1.4,1.5-13.8ZM197.3,224l-.7-12.2,26.3-1.1.2,16-25.8-2.7Z"/>
            <polygon class="cls-1" points="187.5 148.3 191.4 153.6 198.2 161.9 203.6 157.3 195.3 150.9 192.8 147.2 212.7 147.8 212.5 143.3 182.6 142.8 188.2 132.9 180.9 129.8 163.5 165.2 166.3 166.9 179.4 146.6 187.5 148.3"/>
            <polygon class="cls-1" points="168.8 248.5 174.5 248.4 175.8 181.7 169.5 181.8 168.8 248.5"/>
            <polygon class="cls-1" points="185.1 172.1 175.9 163.3 173.3 165.6 180 174.2 186.3 183.4 191.8 179.2 185.1 172.1"/>
            <polygon class="cls-1" points="210.6 162.6 221.7 147.4 232.9 148.2 237.1 154 243.2 161.7 249.1 157.2 241.4 149.2 238.2 147.9 257.3 148 257.1 143.7 224.7 142 229.4 133.7 223.3 130.9 207.8 161.3 210.6 162.6"/>
          </g>
          <g>
            <polygon class="cls-1" points="198.6 317 200.1 324.2 207.2 322.4 237.1 313.9 236.3 310.8 198.6 317"/>
            <polygon class="cls-1" points="286 218.4 263.7 218.7 263.7 223.4 285.8 223.3 286 218.4"/>
            <path class="cls-1" d="M277.4,317.3l.3-22.6,17.1-2.4v-1.6c.1,0-18.6-.8-18.6-.8l-1.3-24.6,20-1.3,1.2-3.9-17.4.4.4-18.9,17.6-3.2.3-3.8h-46.6s0-1.1,0-1.1l.4,1.2-4.5-20.5h.2s1.1-42.3,1.1-42.3l-49.8-.4v2.4c0,0,46.2-.7,46.2-.7l-3.9,55.8h0s2.3,10.9,2.3,10.9l-12,26.9,3.2,1.5,10.3-15.2-2.6,78.8,6-1.8,2.8-4.5,47.8-5.9.6-2.9-21,.6ZM269.2,317.3l-19-.2-2.2-24.2,22.8.3-1.6,24.1ZM269.2,288.9l-19-.2-2.1-23,22.7.3-1.6,23ZM269.2,261.6l-19-.2-2.1-23.2,22.7.3-1.6,23.1Z"/>
            <path class="cls-1" d="M205,251.3l-2.8-2.7-1,2.8,6.6,9.4,8.7,7.5-10.3,21.3-4.5,1,1.9,6,31.3-8-1.5-1.9-23.7,3.7,26.7-47-7.4-4.4-9.7,24.6-9.7-10.2,10.5-23.3,9.2.5-.5-42.4-39.1-.3-1.1,43.1h25.4c0,.1-9.1,20.4-9.1,20.4ZM196.8,192.8h25.3c0,.1,1,14.7,1,14.7l-26.4-1.7v-12.9ZM196.8,225v-12.7c0,0,26.4-1.8,26.4-1.8l-.9,14.5h-25.4Z"/>
            <polygon class="cls-1" points="187.9 147.5 192 153.2 198.2 161.8 203.8 157.5 195.2 151 192.7 146.6 212.4 146.6 212.5 143.3 182.6 142.9 187.2 133.7 180.9 129.8 163.2 165.1 166.3 166.9 179.8 147.6 187.9 147.5"/>
            <polygon class="cls-1" points="169.7 248.4 174.5 248.4 176.6 181.6 167.7 181.6 169.7 248.4"/>
            <polygon class="cls-1" points="184.6 172.6 175.8 163.6 173.5 165.5 180 174.2 186.3 183.4 191.7 179.2 184.6 172.6"/>
            <polygon class="cls-1" points="210.4 162.3 221.6 146.8 233.1 147.9 237.4 153.8 242.9 160.7 249.2 157.2 240.5 150.1 238.1 147.4 257.1 147.1 257.2 143.2 224.7 142.6 229.7 133.4 223.6 131.2 208.9 161.7 210.4 162.3"/>
          </g>
          <g>
            <polygon class="cls-1" points="198.7 317.2 200.5 323.6 207 321.6 236.9 313.4 236.3 310.4 198.7 317.2"/>
            <polygon class="cls-1" points="285.9 218.6 263.7 218.6 263.7 223.3 285.9 223.7 285.9 218.6"/>
            <path class="cls-1" d="M278.9,315.9l-2.3-22,19.1,1.9v-7.5c-.1,0-16.9-.4-16.9-.4l-1.6-20.7h18.5c0-.1.7-8.1.7-8.1l-20.9,4.2,2.2-23,19.4-.7v-6.5c.1,0-46.6-.5-46.6-.5v-.6s2.1,2.6,2.1,2.6l-1-20.4h-4.5s1.5-43.5,1.5-43.5l-50.8.5v1.4c0,0,45.1,1.4,45.1,1.4l-2.4,54.9h3.3s.6,11.2.6,11.2l-15.9,26.3,4-.4,8.7-13,2.9,78.4,5.6.3-.6-11.4,49.3,4.6.5-9.4-19.9.4ZM267.6,316l-18.4,2,1.5-22.8,18.1-.3-1.2,21.1ZM267.7,287.5l-18.5,2.1,1.5-21.6,18.2-.3-1.2,19.9ZM267.7,260.3l-18.5,2.1,1.5-21.7,18.2-.3-1.2,20Z"/>
            <path class="cls-1" d="M206,252.6l-3.8-4.3-.9,3.1,7.2,8.8,8.4,8.2-9.2,22.9-6.6-1,2.3,7.5,29.5-11.7h.4c0,0-21.9,1.6-21.9,1.6l24.3-44.5-6.7-3.8-9.8,24.6-9.6-10.8,10.1-23.8,11.4,1.4-1.3-43.8h-40.8s-1.2,44.3-1.2,44.3l25.8,1-7.7,20.3ZM196,191.3l26,1.9,1.3,14.4-26.9-1-.4-15.2ZM196,226.4l1-13.9,26.2-2.3-.6,15.5-26.6.6Z"/>
            <polygon class="cls-1" points="187.7 147.9 191.6 153.5 198.3 162.2 204.1 157.9 196.3 149.8 192.7 146.7 212.5 147 212.5 143.2 182.5 143.3 187.5 133.4 180.9 129.8 164.3 165.5 165.9 166.4 180 148.1 187.7 147.9"/>
            <polygon class="cls-1" points="168.5 248.5 175.8 248.5 177 181.5 169.4 181.8 168.5 248.5"/>
            <polygon class="cls-1" points="184.6 172.5 175.9 163.3 173.7 165.5 179.7 174.4 186.4 183.6 192.1 179.2 184.6 172.5"/>
            <polygon class="cls-1" points="210.5 162.5 222 148.2 233.2 147.7 237.7 153.6 242.9 160.4 249.2 157.2 240.3 150.3 238.2 148.3 257.2 147.7 257.2 142.7 224.7 142.1 230.2 133 223 130.4 208.8 161.6 210.5 162.5"/>
          </g>
          <g>
            <polygon class="cls-1" points="198.7 317.3 200.9 322.9 207 321.8 237.1 313.8 236.4 311.5 198.7 317.3"/>
            <polygon class="cls-1" points="285.9 218.9 263.6 218.5 263.7 223.3 285.9 223.5 285.9 218.9"/>
            <path class="cls-1" d="M278.8,316v-20.3c0,0,16.7-.6,16.7-.6v-6.7s-20.1,2.2-20.1,2.2l1.4-23.8,19.1.9-.3-5.1-21,1.4,1.8-25.1,20.7.2.3-6.6-46.8.2v.8s1.1.9,1.1.9l.7-20.5h-4.5s.4-43,.4-43l-50.7-2.8.4,3.7,45.6,1.4-.9,55.4h-2.2s4.7,11.3,4.7,11.3l-12.8,26.8.2-.8,12.5-13.3-5.3,79h9.8c0-.1-.5-11-.5-11l49.1,2.6.5-7.6h-19.9ZM267.7,316h-16.3s-1.3-21.3-1.3-21.3h18.7s-1.2,21.3-1.2,21.3ZM267.8,287.6h-16.4s-1.2-20.1-1.2-20.1h18.8c0,0-1.2,20.1-1.2,20.1ZM267.8,260.3h-16.4s-1.2-20.2-1.2-20.2h18.8s-1.2,20.2-1.2,20.2Z"/>
            <path class="cls-1" d="M205.9,252.4l-3.6-4.3-.2,2.8,6.4,9.3,10.1,8.7-12,21-5.4.4,2.3,8.2,31.5-10-1.5-2.5-22.2,2.2,24.2-45-6.7-5.7-9.6,23-11.1-6.6,13.3-22,7.1-1.7,2.1-43.7-40.2,1.8-1.6,42.6,25.4.2-8.2,21.4ZM196.1,191.5l25.8,1.8,1.7,15-27.2-1.8-.3-15ZM196.1,226.2l1-13.6,26.5-3-1,16.1-26.5.6Z"/>
            <polygon class="cls-1" points="187.6 148 191.6 153.5 198.1 161.7 203.9 157.6 196.4 149.7 192.8 146.9 212.4 146.9 212.6 142.4 182.5 143.4 187.3 133.5 181.3 130.3 163.3 165.1 165.7 166.2 179.6 147.1 187.6 148"/>
            <polygon class="cls-1" points="168.7 248.5 176.1 248.5 175.5 181.7 170 181.8 168.7 248.5"/>
            <polygon class="cls-1" points="184.9 172.2 175.9 163.3 173.3 165.6 179.8 174.4 186.4 183.6 191.6 179.2 184.9 172.2"/>
            <polygon class="cls-1" points="210.5 162.5 221.9 147.9 233.2 147.5 236.9 154.1 243.3 162 248.5 156.9 241.2 149.4 238 147 257.3 148.1 257.1 143.5 224.7 142.6 229.8 133.4 222.6 129.8 209.4 161.9 210.5 162.5"/>
          </g>
          <g>
            <polygon class="cls-1" points="198.9 317.8 200.5 323.4 207 321.9 237.2 314 236.3 310.4 198.9 317.8"/>
            <polygon class="cls-1" points="285.9 218.9 263.6 218.5 263.8 223.1 285.9 223.5 285.9 218.9"/>
            <path class="cls-1" d="M274.6,319.8l.7-26.9,19.4-1.1,1.1-4.6-21.5,4.2.4-26.3,20.2-1.1,1.5-5-19.2,2.8,1.3-20.8h18.9s-.4-5.7-.4-5.7l-46.5-2.9v1.3s-3,1.2-3,1.2l.6-20.7h1.2s-1.6-42.4-1.6-42.4l-49.9-1.4-.3,6.6,47.2-4.3v56.3c-.1,0-3.4,0-3.4,0l3.3,11.2-14.9,26.5,3.8,1.2,8.2-14.7,1.2,78.6,4.9-1.4,1.4-10.4,49.4,5.7-.3-8-23.5,2.1ZM272.1,319.8l-24.1-.7-.3-26.5,20.5,3,3.9,24.2ZM272,291.4l-24-.7-.3-25.4,20.5,3.1,3.9,23.1ZM272,264.1l-24.1-.7-.3-25.6,20.5,3.1,3.9,23.2Z"/>
            <path class="cls-1" d="M204.5,250.7h-2.4c0-.1-.1.2-.1.2l7.3,8.4,7,8.9-9.6,22-4,.7.8,6.2,31.2-8.8-1.3-2-23.2,3.2,27-46.2-8.5-6-9.5,24-10.7-7.6,11-24.8,8.4,1.3,1.5-42.6-38.9,1-1.4,42.2h25.1c0,0-9.7,20.1-9.7,20.1ZM197.2,193.4l26-2.2.5,17.2-27.8-.7,1.4-14.3ZM197.2,224.3l-1.2-13.8,27.7-.9-.4,17.3-26.1-2.5Z"/>
            <polygon class="cls-1" points="188 147.3 192.3 152.9 198.1 161.7 203.6 157.3 195.6 150.5 192.9 147.8 212.7 147.9 212.7 142 182.7 142.1 187.8 133.2 181.6 130.7 163.7 165.3 166 166.5 180 148 188 147.3"/>
            <polygon class="cls-1" points="169.4 248.4 175.8 248.5 175.2 181.7 168.6 181.7 169.4 248.4"/>
            <polygon class="cls-1" points="185 172.2 175.8 163.8 173.6 165.5 179.6 174.5 186.5 183.7 192.1 179.2 185 172.2"/>
            <polygon class="cls-1" points="211.2 163.5 221.5 146.7 233.2 147.5 237.2 153.9 243.1 161.2 248 156.7 240.3 150.4 238 146.9 257.2 147.6 257.3 142.4 224.7 142.7 229.7 133.4 223.2 130.7 209.1 161.7 211.2 163.5"/>
          </g>
        </g>
      </g>
    </g>
  </g>
</svg>