<?xml version="1.0" encoding="UTF-8"?>
<svg xmlns="http://www.w3.org/2000/svg" version="1.1" viewBox="0 0 462 462">
  <defs>
    <style>
      .cls-1 {
        fill: #fff;
      }
    </style>
  </defs>
  <!-- Generator: Adobe Illustrator 28.7.1, SVG Export Plug-In . SVG Version: 1.2.0 Build 142)  -->
  <g>
    <g id="main">
      <g id="icon">
        <polygon id="bg" points="343.6 1.4 343.6 0 0 0 0 462 462 462 462 118.4 461.7 118.4 343.6 1.4"/>
        <g id="Be.">
          <path id="B" class="cls-1" d="M169,340.3c-5.6-7.4-13.3-12.9-22.8-16.3v-2.1c7.4-3.6,13.3-8.8,17.8-15.5,4.5-6.8,6.8-14.8,6.8-24s-2.5-16.8-7.4-24.1c-5-7.4-11.8-13.2-20.4-17.5-8.6-4.3-18.1-6.4-28.4-6.4H42.7v183.8h74.4c11.1,0,21.3-2.1,30.4-6.3,9.2-4.2,16.4-10.2,21.8-18,5.4-7.8,8.1-16.7,8.1-26.8s-2.8-19.4-8.5-26.8ZM77.3,265.5h35.7c7.2,0,13,2.1,17.3,6.3,4.4,4.2,6.5,9.4,6.5,15.5s-2.3,11.6-6.8,15.8c-4.5,4.2-10.6,6.3-18.1,6.3h-34.6v-43.9ZM135.5,380.1c-4.7,4.4-11.3,6.5-19.6,6.5h-38.5v-47.5h37.5c8.9,0,15.7,2.2,20.5,6.7,4.8,4.5,7.2,10.2,7.2,17.2s-2.4,12.7-7.1,17.1Z"/>
          <path id="e" class="cls-1" d="M318.7,345.3c0-12.3-2.5-23.5-7.6-33.6-5-10.1-12.4-18.1-22.2-23.9-9.8-5.8-21.4-8.7-34.9-8.7s-24.1,3.2-34.4,9.5c-10.3,6.3-18.3,14.8-24.1,25.5-5.8,10.7-8.7,22.3-8.7,34.8s3,25,8.9,35.5c5.9,10.5,14.1,18.8,24.5,24.8,10.4,6,22.2,9,35.2,9,27.2,0,47.5-11.6,60.8-34.9l-27.2-13.3c-3.3,5.6-7.7,10.1-13.2,13.5-5.6,3.3-12.2,5-19.9,5s-17.2-2.7-23.7-8.1c-6.6-5.4-10.7-13.3-12.4-23.7h98.3c.5-3.6.8-7.4.8-11.3ZM221.2,332.8c2.6-8,6.7-14.4,12.4-19.1,5.7-4.7,12.6-7.1,20.7-7.1s11.8,1.3,16.6,4c4.7,2.7,8.4,6,11,10,2.7,4,4.1,8.1,4.5,12.2h-65.2Z"/>
          <path id="_x2E_" class="cls-1" d="M334.1,417.1c-4.3-4.3-6.4-9.4-6.4-15.5s2.1-11.2,6.4-15.4c4.3-4.2,9.4-6.3,15.5-6.3s11.2,2.1,15.5,6.3c4.3,4.2,6.4,9.3,6.4,15.4s-2.1,11.2-6.4,15.5c-4.3,4.3-9.4,6.4-15.5,6.4s-11.2-2.1-15.5-6.4Z"/>
        </g>
        <polygon id="fg" class="cls-1" points="343.9 0 343.6 0 343.6 118.4 462 118.4 462 117 343.9 0"/>
      </g>
    </g>
  </g>
</svg>