<?xml version="1.0" encoding="UTF-8"?>
<svg id="_图层_1" data-name="图层_1" xmlns="http://www.w3.org/2000/svg" viewBox="0 0 461.99 461.99">
  <defs>
    <style>
      .cls-1 {
        fill: #fff;
      }
    </style>
  </defs>
  <rect width="461.99" height="461.99"/>
  <g>
    <path class="cls-1" d="M168.96,340.33c-5.65-7.44-13.26-12.87-22.84-16.3v-2.05c7.35-3.59,13.3-8.77,17.84-15.53,4.53-6.76,6.8-14.76,6.8-24,0-8.73-2.48-16.77-7.44-24.13-4.96-7.35-11.77-13.17-20.4-17.45-8.64-4.28-18.09-6.42-28.36-6.42H42.69v183.77h74.43c11.12,0,21.26-2.09,30.42-6.29,9.15-4.19,16.43-10.18,21.82-17.97,5.39-7.78,8.08-16.72,8.08-26.82s-2.82-19.38-8.47-26.82ZM77.33,265.52h35.68c7.19,0,12.96,2.1,17.32,6.29,4.36,4.19,6.55,9.37,6.55,15.53s-2.27,11.59-6.8,15.78c-4.54,4.19-10.57,6.29-18.09,6.29h-34.65v-43.89ZM135.47,380.12c-4.71,4.36-11.25,6.54-19.63,6.54h-38.5v-47.48h37.47c8.89,0,15.74,2.23,20.53,6.67,4.79,4.45,7.19,10.18,7.19,17.2s-2.35,12.7-7.06,17.07Z"/>
    <path class="cls-1" d="M318.72,345.34c0-12.32-2.53-23.52-7.57-33.62-5.05-10.09-12.45-18.05-22.2-23.87-9.75-5.81-21.39-8.73-34.91-8.73-12.67,0-24.13,3.17-34.39,9.5-10.27,6.33-18.31,14.85-24.13,25.54-5.82,10.7-8.73,22.29-8.73,34.78,0,13.18,2.95,25.02,8.86,35.55,5.9,10.52,14.07,18.78,24.51,24.77,10.44,5.99,22.16,8.98,35.16,8.98,27.21,0,47.48-11.63,60.83-34.91l-27.21-13.35c-3.25,5.65-7.66,10.14-13.22,13.47-5.56,3.34-12.19,5-19.89,5-9.24,0-17.16-2.7-23.74-8.09-6.59-5.39-10.74-13.3-12.45-23.74h98.3c.51-3.59.77-7.35.77-11.29ZM221.19,332.76c2.57-8.04,6.71-14.41,12.45-19.12,5.73-4.7,12.62-7.06,20.66-7.06,6.33,0,11.85,1.33,16.55,3.98,4.7,2.65,8.38,5.99,11.04,10.01,2.65,4.02,4.15,8.08,4.49,12.19h-65.19Z"/>
    <path class="cls-1" d="M334.06,417.11c-4.28-4.28-6.43-9.45-6.43-15.5s2.14-11.17,6.43-15.37c4.28-4.2,9.45-6.3,15.5-6.3s11.21,2.1,15.5,6.3c4.28,4.2,6.43,9.32,6.43,15.37s-2.14,11.21-6.43,15.5c-4.28,4.28-9.45,6.43-15.5,6.43s-11.21-2.14-15.5-6.43Z"/>
  </g>
</svg>