<?xml version="1.0" encoding="UTF-8"?>
<svg xmlns="http://www.w3.org/2000/svg" version="1.1" viewBox="0 0 462 462">
  <defs>
    <style>
      .cls-1 {
        fill: #647a20;
      }

      .cls-2 {
        fill: #ceaa9e;
      }

      .cls-3 {
        fill: #212e3b;
      }

      .cls-4 {
        fill: #657a20;
      }

      .cls-5 {
        fill: #2a4c6e;
      }

      .cls-6 {
        fill: #ec7a5a;
      }

      .cls-7 {
        fill: #305e8b;
      }

      .cls-8 {
        fill: #ebc24a;
      }

      .cls-9 {
        fill: #ec7a59;
      }

      .cls-10 {
        fill: #294c6e;
      }

      .cls-11 {
        fill: #ef75a8;
      }

      .cls-12 {
        fill: #ebc349;
      }

      .cls-13 {
        fill: #ec8d10;
      }

      .cls-14 {
        fill: #efd9cf;
      }

      .cls-15 {
        fill: #212d3a;
      }

      .cls-16 {
        fill: #202d3a;
      }

      .cls-17 {
        fill: #32735a;
      }

      .cls-18 {
        fill: #8ba146;
      }

      .cls-19 {
        fill: #f0d9cf;
      }

      .cls-20 {
        fill: #202c3a;
      }
    </style>
  </defs>
  <!-- Generator: Adobe Illustrator 28.7.1, SVG Export Plug-In . SVG Version: 1.2.0 Build 142)  -->
  <g>
    <g id="_图层_1" data-name="图层_1">
      <g>
        <g>
          <path class="cls-3" d="M254.3,417.8c-.4,9.8-.4,19.6-1.4,29.4-.2,1.5-.4,3-.5,4.4H77.3c-1-1.6-.9-3.5-.8-5.3,1-15.5.2-30.7-3.5-45.9-3.1-12.9-2.3-25.9,0-38.9.3-1.4,0-2.1-1.2-2.8-22.4-13.8-36.9-33.7-44.2-58.9-.4-1.4-.9-2.2-2.5-2.5-4.6-.9-9-2.6-12.9-5.4-3.7-2.8-5.6-6.3-5-11.2,3.1-26.7,9.2-52.5,22.1-76.4,2.4-4.4,5.2-8.6,7.8-12.9.3-1.1.8-2.2,1.5-3.2,16.1-21.8,37-36.9,62.4-46.1,8.7-3.1,17.5-5.6,26.6-7.3,2-.4,2.7-1.2,2.7-3.3-.1-9.2-.1-18.4,0-27.6,0-1.8-.4-2.4-2.4-2.4-4.7.2-7.5-2.9-9.4-6.7-2.2-4.4-2-9,0-13.6-1.2-.2-2.2-.5-2.3-1.9,0-1.5,1-2.3,2.2-2.8,4.8-2,9.9-2.9,15-3.9,3.5-.7,6.9-1.4,10.4-1.9,3.2-.4,6.3-1.2,9.5-1.7,1.9-.3,2.9-1.2,3.3-3.1.7-3.3,2.3-6.2,4.8-8.4,4.3-3.8,10-4.1,14.8-.9,1.7,1.1,3.2,2.5,4.3,4.3.8,1.2,1.6,2.1,3.3,1.7s3.6-.4,4-2.8c.3-1.6,1.1-3.1,2.3-4.3,1.1-1.2,1.1-2.3.3-3.6-1.3-2.2-2.6-4.5-4.2-6.5-.8-1-1.5-2.1-1.1-3.5,1.5-1.6,2.4-1.7,3.8,0,2.1,2.5,3.8,5.4,5.3,8.3.8,1.5,1.7,2.4,3.5,2.6,3.5.3,6,2.5,7.9,5.1,3.1,4.3,4.5,9.3,3.9,14.7-.3,2.8-1.5,5.4-3.7,7.2-1.5,1.3-1.9,2.7-1.8,4.6.3,7-.2,13.8-2.6,20.5-3.5,10.2-10.6,16.3-21.2,18.1-2,.3-2.8,1-2.7,3.2.1,4.4.4,8.8-.2,13.2-.7,2.1-2.1,3.1-4.2,3.7-10.2,2.6-20.5,2.8-30.9,1.6-3.9-.5-7.5-1.9-10.3-4.8-.9-1-2-1.1-3.2-.9-12.6,2.6-24.9,6.1-36.6,11.4-10.1,4.6-19.4,10.3-28.1,17.2-11.7,9.3-21.1,20.6-28.8,33.4-10.1,16.9-16.4,35.1-20.5,54.3-1.6,7.6-3,15.3-3.8,23-.3,2.4-.2,2.4,2.2,2.1,9.7-1.2,19.4-1.5,29.2-1.6,5-.1,10-.4,15,.1,7.2.7,12.3-3,16.3-8.5,3.9-5.5,5.6-11.9,7.5-18.2.9-2.9,1.7-5.9,2.5-8.9,0-.5.3-1.1.6-1.5.6-1.1,1.4-2,2.8-1.6,1.5.5,1.5,1.7,1.2,2.9-1,4.3-2.2,8.5-2.7,12.9-1.4,13.1-1.6,26.2,2.9,38.9,3.2,9.3,8.8,17,16.1,23.5,1.3,1.2,3.2,2.2,1.6,4.4-1.3,1.2-2.5.4-3.6-.4-5.6-4.5-10-10-13.6-16.1-3.7-6.3-6.2-13-7.4-20.3-.3-1.7-1-2.4-2.8-2.4-14-.6-28-.4-42-.4s-5,.6-7.5.5c-1.7-.1-1.6,1.1-1.4,2.3,1.6,7.8,3.5,15.5,6.4,22.9,5,12.5,12,23.7,21.7,33.1,11.1,10.9,24.3,18.6,38.9,23.8,12.8,4.6,25.7,8.3,39.1,10.5,7,1.2,14,1.9,21.1,2.4,7.9.6,15.6,2.3,22.9,5.1,2.5,1,5,2.3,6.6,4.8.1,3.3-.3,6.5-.3,9.8s.7,3.2,2.8,3.9c11.1,3.6,22.3,6.9,33.8,9.1,2.3.4,2.4.4,1.7-1.9-.5-1.6-1.2-3.1-1.8-4.6-.3-.9-.8-1.7-.1-2.7,1.3-.9,2.6-1.6,4.2-1.5,2.4,2.7,3.3,6.2,4.3,9.5.7,2.4,2,3.3,4.3,3.7,6.6,1,13.3,2,19.9,3.1.5.4.7.6.8.8h0Z"/>
          <path class="cls-8" d="M144.2,71.7c-6.8,1.4-13.5,2.7-20.3,4.2-1.8.4-3.6,1.1-5.3,1.8-1.1.4-2.3,1.1-1.6,2.6.8,1.6,2,.5,3.4,0-1.9,3.1-2.9,6.1-2.6,9.3.3,3.5,1.5,6.6,4,9.1s4.8,3.3,7.9,2.5c1.2-.3,1.5,0,1.5,1.2-.1,10.5-.1,21.1-.1,31.6s-1,1.5-2,1.7c-12.6,2.4-24.7,5.9-36.5,11-22.7,9.9-41.1,24.9-55.4,45.2-2-13.5-3.6-27.1-2.9-40.8.6-11.4,2.3-22.5,8.8-32.3,3.1-4.7,7.2-8.5,12.2-11.2,4-2.1,8-4.3,11.6-7.2,4.5-3.6,7.1-8.2,7.9-14,1.4-8.9,4.5-17,11.9-22.8,2.6-2.1,5.4-3.9,8.3-5.4,10.1-5.3,17.5-13.1,23-23,3.1-5.7,6.7-11.2,11.9-15.4,6.6-5.3,14.2-7.9,22.5-9,12.6-1.7,24.4.4,35.2,7.5,4.2,2.8,7.7,6.2,10.4,10.5.8,1.2,1.7,2,2.9,2.6,8.4,4.5,15,10.6,17.7,20.1,1.7,5.9,1.4,11.8.5,17.7-.2,1.7-.5,3.4-.7,5.1-.2,2,.3,3.7,1.3,5.4,2.3,3.9,4.4,8,6.6,11.9-1,1.3-2.8.9-4,1.7-6.2,3.2-9.7,10.5-7.9,17.2,2,7.6,4.9,14.8,7.6,22.1.6,1.6,1.2,3.3,1.8,4.8,2.8,6.8,1.5,13.4-.7,20-.2.5-.4,1-.9,1.4-1,.5-1.8-.2-2.6-.7-12.4-7.9-25.9-13.1-40.1-16.5-1-.2-2.6.1-2.4-1.8.6-4.9,0-9.9-.1-14.8,0-1.1,0-1.7,1.4-1.8,16.2-1.8,22.9-12.9,24.8-26.7.6-4.4.6-8.8.4-13.2-.1-1.2.2-1.9,1.3-2.7,2.7-1.8,4.1-4.6,4.3-7.8.4-6.1-1.2-11.5-5.5-16-1.9-1.9-4.2-3.1-6.9-3.1s-1.6-.5-2.1-1.4c-1.7-3.3-3.6-6.4-5.8-9.4-1-1.3-2-1.8-3.2-.3-.8.3-1.6,0-2.3-.2-13.5-3.9-27.5,2.7-33.7,17.1-1.3,3.1-2.4,6.3-3.7,9.4-.3,1.1-.8,2.1-1.8,2.9Z"/>
          <path class="cls-18" d="M272.8,210.5c1.6.9,1.5-.8,2.1-1.4,1.6-.6,2.5-2.3,4.2-2.8.8.5,1.1-.3,1.5-.7,7.1-5.4,11.3-13,15.1-20.8,3.5-7.1,6.3-14.4,8.4-22,5-18,16.7-29.5,34.2-35.7,9.5-3.3,19-6.5,27.9-11.4,2.8-1.6,5.5-3.4,8.3-4.9,8.6-4.4,17.4-5.7,26.5-1.4,1.6.8,3.2,1.6,4.4,3.1,1.3,2.9.4,5.7-.4,8.5-1.9,6.4-5.9,11.6-10.2,16.5-4,4.6-8.2,8.9-12.2,13.4-5.5,6.3-7.8,13.9-8.7,22-.2,1.6-1.1,3.1-.8,4.8-2,5.5-3,11.2-5.1,16.7-1.7,4.4-3.8,8.7-6.8,12.3-.9,1.1-.8,2.3-.9,3.5-1.2-.8-1.9.5-2.9.7-5.2,1.4-10.6,2.6-15.9,3.5-13.9,2.4-23.6,10.4-30.5,22.3-1.3,2.2-2.7,4.4-3.8,6.8-4,6-8.1,12-12.4,17.8-4.2,5.2-9.2,9.2-15.9,10.9-4.4.3-8.9.9-13.2-.8-1-1-.5-2,0-3,5.3-12.5,11.6-24.4,18.6-36,7.9-13.2,16.7-25.7,26.4-37.6,8.7-10.7,18.2-20.9,28.3-30.3,16.6-15.5,34.5-29.2,54-41,.9-.5,2.5-1.2,1.8-2.3-.8-1.4-2.1-.2-3.1.3-14.2,8.5-27.6,18.1-40.3,28.7-8.2,6.9-16.3,14.1-23.7,21.9-12.1,12.6-23.3,26-33.3,40.3-9.8,14.1-18.5,28.9-26,44.3-1.8,3.7-3.5,7.4-5.1,11.2-.8,1.8-1.8,2.4-3.7,1.9-1.3-.8-2.5-1.7-3.8-2.5-.8-.5-1.5-1.1-1.5-2.2.7-8,1.4-15.9,1.9-23.9.3-4.1,0-8.1.1-12.2,0-2.1-.1-4.2.2-6.3.3-1.4,1.4-2.2,2.5-3,4.4-3.5,9.2-6.3,13.8-9.2h0Z"/>
          <path class="cls-17" d="M294.5,261c4.1-5.8,8.1-11.6,12.2-17.5,4.7-7.4,11.7-12.1,19.1-16.3,3.7-2.1,7.4-4.1,11.3-5.9,1-.5,2.2-1.4,3.4-.3.2.9-.3,1.7-.6,2.5-3.5,7.7-5.6,15.7-5.6,24.2s-.4,3.1-3,3.7c-7.5,1.8-15,3.8-22.4,5.7-.9.2-2.4.3-2.2,1.3.3,1.3,1.8.6,2.6.2,5.4-2.3,9.8-1.5,14.6,2.3,9,7,19.5,11,30.9,12.8.8.1,1.7.6,2.5-.2-.5-.9-1.4-.8-2.2-1-11.9-1.6-22.4-6.5-32.1-13.3-.2-.1-.4-.3-.6-.4-.7-.6-1.6-1.2-1.4-2.3.2-.9,1.3-1.1,2.1-1.3,5.3-1.3,10.6-2.5,15.9-3.7,4.1-.9,8.2-1.6,12.3-2.5,2.3-.5,3.9.1,5.5,1.7,5.3,5.6,10.9,10.9,17.5,15,4.2,2.6,8.6,4.9,13.3,6.6.6.2,1.2.5,1.9.3-.3-.9-1.1-1-1.8-1.3-9.2-3.6-17.4-8.8-24.6-15.5-1.7-1.6-3.3-3.2-4.8-4.9-.5-.6-1.3-1.2-1-2,.3-.9,1.3-1,2.2-1.1,4.2-.6,8.4-1.1,12.6-1.5,9.1-.9,18.2-1.2,27.3-.9,12.2.3,24.3,1.8,36.3,4,1.1.2,2.1.7,3.4.3-.5-1-1.4-1-2.2-1.1-9-1.7-18-3.1-27.1-3.8-5.8-.4-11.6-.5-17.4-.9-2.2-.1-4.4.5-6.6.5-3.1-.1-3.6-.8-2.4-3.6,3.1-6.8,8.2-11.4,15-14.3.7-.3,1.7-.3,2.1-1.3-.7-.7-1.3-.3-2-.1-7.9,2.7-13.5,8.1-16.6,15.7-1,2.5-2.4,3.7-5,3.8-5,.2-9.9.8-14.8,1.3-2,.2-2.3-1.1-2.7-2.6-1.3-6-.2-11.7,2.5-17.1.4-.7.9-1.3,1-2.1,0-.2,0-.3-.2-.6-1,0-1.3.9-1.7,1.6-3,5.2-4,10.7-3.1,16.6.5,3.1-.9,4.9-4.1,5.4-5.1.8-10.1,1.7-15.1,2.6-3.2.6-3.8.1-3.5-3.2.8-9.9,3.2-19.4,8.7-27.9,4.6-2.6,9.1-5.3,13.6-8.1.7-.5,1.3-1.1,2-1.6.8.2.1,1.2.7,1.5.4,1.6.2,4,1.6,4.5,1,.4,2.4-1.8,3.2-3.1,2.5-4.6,6.2-5.4,10.8-3.8,1.3.4,2.8.5,4.4.8-2.7,5.9-5.6,11.7-4.7,18.4.9.1,1-.6,1.3-1,3.9-6.1,9.3-10.3,15.9-13.3.9-.4,1.7-.7,2.7-.4,11.3,3.7,22.1,8.6,32.3,15.4-3.6,2.2-6.4,4.8-8.1,9.3,5-1.9,9.7-1.9,14.5-1.7,2.7.1,5.1.8,7.2,2.8,4.6,4.4,9,9,12.7,14.3,1.1,1.5.9,2.3-.9,3-6.7,2.8-13.3,5.7-19.9,8.6-.7.3-1.4.5-2.2.1-2.9-1.6-6.1-2.6-9.3-3.4-4.9-1.3-9.8-1.9-14.9-2.6,0,1.2,1,1.7,1.6,2.2,3.5,3,7.1,6,10.7,8.9.9.7,1,1.1-.2,1.8-17,9-33.6,18.8-51.1,26.8-2.4,1.1-4.9,2-7.4,3.2-1.5.7-2.3.5-3-1.2-2.7-6.2-5.5-12.3-8.3-18.5-.3-.7-.4-1.5-1.3-2-1.9,3.9-2.6,8.1-3,12.3-.3,4-.5,8,.3,12,.3,1.6-.3,1.6-1.6,1.3-23.1-5-40.3-17.3-49.3-39.8-.1-1.2,1-1.3,1.7-1.7,1.3-.8,2.7-1.2,4-1.8.7-.3,1.6-.7,1.2-1.7-.4-.9-1.3-.6-2-.3-.9.4-1.8.8-2.8,1.2-.5,0-1.1.5-1.8,0h0Z"/>
          <path class="cls-17" d="M272.8,210.5c-.4,1.5-1.9,1.8-2.9,2.5-4.3,2.8-8.8,5.4-12.8,8.8-.7-.6-.7-1.4-.7-2.2-.3-6.7-.7-13.3-1.4-20-1.7-17.2-4.7-34.3-9.4-51-4-14.2-8.8-28-14.8-41.5-.4-.9-.8-1.9-1.4-2.7-.3-.5-.7-1.2-1.5-.9-.9.4-.7,1.2-.4,1.8,1.1,2.4,2.1,4.9,3.2,7.4,9.9,22.8,16.4,46.6,20.2,71.1,1.3,8.6,2.2,17.3,2.6,26,.4,7.5.5,15.1.8,22.6,0,1.1.4,2.4-1,3.1-1.2-1.1-.6-2.6-.8-4-.1-1.2.1-2.3-.1-3.8-3.5,5.2-5.3,10.8-5.7,16.8-.3,5,.3,9.9,2.8,14.3.3.5.7,1.1.2,1.7-3.3,1.1-6.3,0-9.4-.9-12.5-4.1-17.9-16.2-14.9-28.9,1-4.3,2.6-8.4,4.2-12.5,1.1-2.8,2.3-5.5,3.3-8.3,1-2.7,1.5-5.4,1.2-8.3-.8-3.8-2.9-6.9-5-10.1-2.9-4.3-6.1-8.4-8-13.3-2.3-6.1-2-12.2-.2-18.3.2-.6.5-1.2,1-1.5,3.3-8.2,3.8-16.3,0-24.6-3.4-7.4-5.9-15.2-8.1-23-2.1-7.3,1.7-15.3,8.3-18.4,4.1.2,6.9,2.8,9.5,5.4,2.7,2.7,4.7,6.1,6.4,9.5,1.5,2.9,3.1,5.8,4.7,8.7,2.6,4.8,6.6,8.1,11.2,10.8,4.3,5.8,9,11.2,12.6,17.5.1,4.1-1.2,8-2,12-.9,4.6-1.9,9.2-2.4,13.9-.7,6.6.8,12.9,3.3,19.1,2.1,5.1,4.7,10.1,6.3,15.5.7,1.8.8,3.8,1.1,5.7h0Z"/>
          <path class="cls-7" d="M313.4,307.7c-.2.8-.4,1.5-.6,2.3.2,1.3-.1,2.4-1.4,3-3.4-.1-6.7.8-10.1.5-.9-.1-1.8.1-2.6-.1-4.4-1-4.1.3-5.4,3.4-.8,2-1.6,4.1-2.4,6.2-.6,1.6-1.6,2.2-3.3,1.8-2.8-.5-5.6-1.1-8.4-.9-3.4.2-6.9.4-8.4,4.4-.4,1.1-1.4.8-2.2.5-1.7-.7-3.2-1.6-4.7-2.7-1.4-1.1-3-2.1-4.6-2.9-2.5-1.2-4.8-.2-5.7,2.3-.4,1.1-.9,1.9-2,2.4-2.2,1-3.1,3-2.6,5.5.5,2.4,1.5,4.6,3.1,6.5.7.8,1.1,1.6.6,2.8-1.3,2.7-.4,4.9,1.5,6.9.7.7,1.5,1.4,1.9,2.4,0,4.5,2.5,7.3,6.3,9.3.8.4,1.8.6,1.9,1.8-.6.6-1.4.6-2.2.5-10.7-1.1-20.4-4.6-28.4-12.1-4.8-4.5-8.4-10-11.8-15.5-4.7-7.6-8.9-15.6-14.6-22.6-5-6.2-11-11.2-18.4-14.4-.8-.4-1.8-.6-2.2-1.6-.4-2.1-.4-4.2-.2-6.3.5-3.8.3-7.7.4-11.5-.2-2.4.4-4.8.5-7.3.1-1.6,1-2.4,2.6-2.4,1.9-.1,3.8-.1,5.6,0,9.8.7,19.7,1.3,29.5,2.5,2.4.5,4.8.6,7.2,1,1.3.6,2.8-.1,4,1,.3.2-.2.7,0,.7,5.5,1.1,10.1,4.1,14.6,7.3,3.7,2.7,6.8,6,9.8,9.5,8,9.3,17.4,16.3,29.5,19.1,2.7.6,3.8,1.3,5.1-2.3.1-.2.3-.4.5-.5s.5-.2.7-.2c4.8.3,9.5.4,14.3-.5.9-.4,1.9-.6,2.6.2h0Z"/>
          <path class="cls-19" d="M311.5,312.9c.4-.9.9-1.9,1.3-2.8,4.2,4.9,6.3,10.7,7.7,16.9,1.9,8.4,1.6,16.8-1.7,24.9-3,7.5-8.6,11.9-16.3,13.9-3,.8-6.1,1.5-9.2,1.5s-1.8.5-2.6.9c-8.6.6-16.9-.8-24.9-3.9-.7-.3-1.3-.6-1.6-1.3-1.7-1.1-3.5-2-5.1-3.2-2.4-1.8-3.8-4.2-3.4-7.4,1.1-.4,1.7.5,2.5.9,3.4,2.2,7.2,3.5,11.2,4.2,1.2.2,2.3.2,3.5.1.5,0,1-.1,1-.7s-.6-.7-1-.8c-.5-.1-.9-.1-1.4-.2-6.1-.8-11.7-2.6-15.8-7.4-.3-.4-.7-.7-.9-1.1-.8-1.1-1.6-2.4-.4-3.6,1.1-1.2,2.2-.1,3.2.5,4,2.6,8.5,4.1,13.1,5.1,1.2.2,3.3.6,3.4-.4.2-1.5-1.9-1.1-3-1.3-5.6-1.2-10.9-3.2-15.3-6.8-2.5-2.1-4.7-4.5-4.9-8-.1-1.3-.1-2.6,1.3-3.2s2.4.2,3.3,1.2c4.5,5.5,10.8,7.9,17.2,10.1.6.2,1.5.7,1.9-.2.4-1-.6-1.3-1.3-1.5-3.2-.9-6.2-2.3-9.2-3.7-2.8-1.4-5.1-3.3-7.1-5.7s-2.3-2.6-1.2-4.4c.7-1.2,2.7-1,4.7.4,2.7,1.9,5.5,3.7,8.5,5.1,3.9,1.8,8,2.9,12.3,2.6,1-.1,2.7.1,2.6-1.2-.1-1.1-1.7-.7-2.6-.8-1.1-.1-2.2,0-3.3,0s-1.3,0-1.9-.3c-1.4-.5-2.8-1.2-2.7-2.9.1-1.8,1.8-2.1,3.1-2.2,4.6-.3,9.3-.2,13.8,1.2,3.9,1.2,7.6,3,10.9,5.5,2.1,1.6,2.2,1.5,2.8-1.1.8-3.4,2.4-6.5,3.5-9.7.9-2.4,2-4.8,2.7-7.3.2-.8.5-1.6,1.3-1.9h0Z"/>
          <path class="cls-3" d="M264.2,362.9c8.1,3.4,16.6,4.9,25.4,4.7.5,0,1-.1,1.1.5-6.2,16.2-12.4,32.5-18.4,48.8-.9,2.4-2,3-4.4,2.6-4.5-.7-9-1.1-13.5-1.7h-.1c-.3-1.9.7-3.4,1.3-5,5.4-14.1,10.7-28.2,16.1-42.3.9-2.5.8-2.7-1.9-2.6-6.6.1-13.2-.5-19.6-2.4-12-3.6-21.3-10.9-28.3-21.1-5.2-7.5-9.3-15.7-14.5-23.2-5-7.2-10.8-13.5-18.8-17.4-1-.5-1.9-1.2-2-2.4,0-1.2-.3-2.4.6-3.5,5.4,1.7,10.1,4.7,14.2,8.4,7.1,6.3,11.9,14.3,16.7,22.3,4.4,7.5,8.6,15.2,14.9,21.4,7.5,7.4,16.6,11.4,27,12.6,1.4,0,2.8.5,4.2.3h0Z"/>
          <path class="cls-7" d="M297.7,289.3c1.4.6,2.9,1.3,4.3,1.9.6.7.4,1.5.2,2.2-1.6,4.4-3.4,8.8-5.1,13.2-.3.7-.7,1.2-1.3,1.6h0c-.7.7-1.6.4-2.4.3-9.3-1.7-17.3-5.9-24.1-12.5-4.3-4.2-8.2-8.9-12.6-13.1-1.4-1.3-2.8-2.7-4.4-3.9-.6-.4-1.6-.9-1.3-1.8.4-1,1.5-.5,2.3-.5,1.7.6,3.5.7,5.3,1,1.2.4,2.4.8,3.7,1,3.2.4,6.2,1.4,9.3,2.1,1.1.4,2.3.7,3.5,1,6.6,1.7,13.1,3.5,19.5,5.8,1.1.4,2.1,1,3.1,1.7h0Z"/>
          <path class="cls-4" d="M373.1,177.8c-.6-3.1.3-6.1.8-9.2,1.4-8.6,5.7-15.7,11.7-22,6.1-6.4,12.4-12.6,16.6-20.5,2.2-4.3,3.4-8.7,3.1-13.5,6,4.5,8.1,13.1,5.1,20.9-1.7,4.5-4.8,7.9-8.4,10.9-2.7,2.2-5.4,4.3-8.2,6.4-9.5,6.9-16.6,15.8-20.7,27h0Z"/>
          <path class="cls-16" d="M288.2,126.8c.4-3,.8-6.1,1.1-9.1.2-1.4.5-2.7,2.1-2.5,1.7.2,1.7,1.6,1.5,2.9-.3,2.9-.9,5.9-.9,8.9-.7,5-1.5,10.1-2.2,15.1-2.8,21.5-6.6,42.9-10.8,64.2-1.1,1.3-2.1,3-4.2,2.8,3.4-16.7,6.5-33.4,8.9-50.2,1.5-10.1,3.4-20.1,3.9-30.3.2-.6.4-1.2.6-1.8Z"/>
          <path class="cls-3" d="M271.7,204.8c-2.3-3.8-3.7-8.1-5.6-12.1-3.2-6.8-5.4-13.9-4.8-21.5.5-5.8,1.7-11.6,3-17.3.7-3.2.9-6.4,2.1-9.5,4.6,7.5,6,15.6,3.7,24-3,11-1.5,21.6.8,32.3.4,1.3.6,2.7.8,4.1Z"/>
          <path class="cls-3" d="M254,126.9c-4.5-1.3-7.6-4.4-10.2-8.2-2.9-4.2-5-8.8-7.4-13.3-3.2-6-7.5-10.7-14.2-12.9,1.3-.8,2.8-.9,4.3-1.1,9.4.6,17.4,6.9,20.3,16.2,1.2,3.6,2.2,7.3,3.4,11,.9,2.9,2.1,5.7,3.8,8.3h0Z"/>
          <path class="cls-3" d="M295.8,308.2c2-5.1,4-10.1,5.9-15.2.2-.6.2-1.2.3-1.8,4.9,1.5,9.6,3.8,14.3,5.8,1,.4,1,1,.6,1.8-1.2,3-2.4,5.9-3.5,8.9-3.7.1-7.4,1.1-11.1.9-2.2,0-4.4,0-6.5-.4h0Z"/>
          <path class="cls-2" d="M297.7,289.3c-7.6-2.4-15.1-4.7-22.7-7.1-.2-.6,0-1.1.3-1.5,2.9-3.6,5.9-7.1,9.6-9.8.4-.3.9-.7,1.5-.4,2.7,5.5,6.3,10.4,9.4,15.6.5,1,1.2,2.1,1.9,3.2h0Z"/>
          <path class="cls-16" d="M286.4,270.4c-4.4,3.3-8.2,7.2-11.4,11.8-1.3,0-2.4-.2-3.4-1-.2-.6,0-1.1.3-1.5,2.2-2.9,4.2-6,7.5-7.9.4-.3.8-.6,1.2-.7,5.9-1.6,10.1-5.6,13.9-10,1.7-.7,3.3-1.3,5-2.1,1.1-.5,2.1-.3,2.6.7.7,1.3-.3,1.9-1.2,2.3-2.1,1.1-4.6,1.7-6.5,3.2-2.9,1.3-5.5,3.2-8,5.2Z"/>
          <path class="cls-6" d="M187.3,297.7c-.1,1.3-.1,2.6-.2,4,.6,5.3.6,10.6.1,15.9-.1.5-.1,1.1-.1,1.6.3,7.8-.7,15.6-.5,23.5.1,2.7-.4,5.3-.7,7.9-.6,1.3-1.7.9-2.7.8-6-.8-11.9-2.3-17.8-3.6-12.8-2.8-25.5-6.3-37.6-11.7-6.9-3.1-13.6-6.6-19.6-11.2-.8-.6-1.8-1.1-2-2.2,1-1.7-.5-2.4-1.4-3.2-9.9-8.7-16.6-19.4-19-32.6-2.6-14.1-2-28.1,1.6-42,0-.5.3-1.1.4-1.6.4-1.1.6-2.3-.9-2.7s-1.8.9-2.1,2c-1.7,6-3.2,12-5.3,17.8-1.4,4-3,7.9-5.6,11.4-3.9,5.1-8.8,8.2-15.7,7.9-11.7-.5-23.4-.1-35.1.6-3.7.2-7.3.8-11,1.2-1,.1-2,.5-1.8-1.3,2.3-18.6,6-36.9,12.7-54.5,10.5-27.6,27-50.4,52.2-66.6,16.9-10.8,35.4-17.1,54.9-20.9.6-.1,1.3-.4,1.8.2,3.5,4.6,8.7,5.5,13.8,6,9.3.9,18.5.3,27.6-2,1.8-.5,3.2-1.3,3.8-3.1.2.6.5.8,1.2,1,15.5,3.4,30,9.1,43.3,17.8.1.1.3.1.5.1-3,9-2.5,17.6,2.9,25.6,1.7,2.5,3.3,4.9,5,7.4,2.1,3,4,6.2,4.9,9.8-1.1.7-1.7-.3-2.4-.8-4.3-3.2-8.7-6.1-13.4-8.9-1.6-.9-2.6-1.1-3.4.8-.5,1.2-1.4,2.1-2.2,3-.5.6-1.2,1.1-2.1.8-.8-.3-1-1-1.1-1.7-.2-1.7-.6-3.4-.6-5.2.1-1.7-.6-2.9-2.3-3.4-1.1-.4-2.2-.8-3.3-1.3-1.6-.7-2.3-.1-2.5,1.6-.4,3.1-1.2,6.2-2.2,9.2-.5,1.3-1.1,2.6-1.9,3.8-.4.6-.8,1.4-1.6,1.1-.7-.3-.7-1.2-.7-1.9.1-2-.3-3.9-.6-5.9-.6-3.8-1.9-7.3-3.9-10.6-.6-1-1.4-1.6-2.6-1.8-5.6-1.1-11.4-1.5-17.1-1.9-2.9-.2-5.8.6-8.7.5-1.2-.1-1.7.5-1.2,1.8.8,2.1,1,4.3.8,6.5-.1.8,0,1.7-.9,2s-1.5-.3-2-.9c-2.5-2.7-5.4-4.7-8.8-6.2-1.2-.5-2.3-.8-3.6-.5-5.1,1.3-10.1,3.1-14.8,5.5-2.8,1.4-2.9,1.9-1.3,4.5,2.7,4.4,5.5,8.6,8.1,13,.7,1.2,1.7,1.7,3.1,1.8,6,.3,11.5,2.6,16.9,4.8.6.3,1.5.5,1.3,1.4-.1.8-.9,1.1-1.6,1.3-3.2.9-6.4,1.5-9.6,2.2-2,.5-2.5,1.6-1.6,3.5,7.2,14.5,14,29.2,22.5,43.1,3.9,6.5,3.1,5.1,7.8,1.5,3.6-2.8,7.1-5.7,10.7-8.5.7-.6,1.5-1.5,2.5-.9.9.6.5,1.7.2,2.6-1.6,6.2-4.5,11.9-8,17.2-1,1.5-.6,2.5,1.2,3,1.3.4,2.8.4,3.9,1.6-.3,6.8-.5,12.9-.6,19h0Z"/>
          <path class="cls-19" d="M106.2,322.7c18.5,14.1,40.2,20.3,62.4,25.1,5.6,1.2,11.1,2.8,16.8,3.1.8-.6,1.8-.6,2.7-.4,2.8.5,5.6.4,8.5.3,8.3-.3,16.6.6,25,.6s6.6.4,9.2,2.9c2.6,2.4,2.2,5.1-1,6.4-1.8.7-3.8,1-5.8,1s-4.6-.2-6.8.4c-.7.2-1.6,0-1.8.9-.1.8.7,1.2,1.2,1.6,3,2.3,6.2,4,9.6,5.4,5.7,2.4,11.8,3.9,17.3,6.9.8.4,1.6.7,2.2,1.3.6.7.9,1.7,1.2,2.5,1.2,2.6.1,4.6-2.9,5-3.1.4-6.1-.3-9-1.4-4.5-1.7-8.8-3.7-12.9-6.2-.4-.2-.8-.5-1.3-.6-.3-.1-.6-.1-.8.2-.2.3-.1.6.1.9.4.5.9.9,1.4,1.2,5.4,2.9,10.7,6,16.8,7.4,2.1.5,4.1.9,6.3.5,1.8-.3,2.6.6,2.6,2.4-.1,2.1-1.6,3.9-4,4.4-2,.4-4,.3-6.1-.2-7.4-1.7-14-5.1-20.5-8.9-.8-.4-1.8-1.6-2.4-.8-.8,1.3.8,1.8,1.6,2.3,5.7,3.3,11.5,6.5,17.9,8.3.5.1.9.3,1.3.5.5.2,1.1.4,1.1,1.1s-.5,1-1,1.2c-2.3,1.1-4.7,1.1-7.2.8-6.8-.9-12.8-3.6-18.5-7.3-.9-.6-2.2-2.1-2.9-.9-.7,1.1,1.2,1.7,2.1,2.3,3.6,2.6,7.6,4.4,11.8,5.8,1.5.5,3.1.8,4.4,1.7.2.2.2.4.1.7-1.3.5-2.6,1-3.8,1.5-2.3,1.7-5,1.3-7.5.7-10.3-2.4-19.6-6.9-28.1-13.1-.5-.4-.9-.9-1.2-1.4-2.8-2.7-6.2-4.4-10-5.6-8.5-2.6-17.3-3.6-26.2-4.4-22.6-2-44.4-7.5-64.8-17.2-29.9-14.1-47.7-38.1-54.8-70.1-.5-2.2-.9-4.5-1.4-6.7-.3-1.3,0-1.7,1.5-1.8,13.7-.6,27.4-.5,41-.2,3.2.1,6.4.3,9.7.2,1.9,0,2.6.5,3,2.5,2.3,14.7,9.5,26.8,20.7,36.5,1,.9,1.9,1.8,3.2.7h0Z"/>
          <path class="cls-19" d="M141.9,75.5c4.5-.9,9.1-1.8,13.6-2.7,1.4-.3,1.4.5,1.5,1.4.3,3.8,1.5,7.4,3.7,10.5,3.3,4.7,7.7,7.1,13.6,5.9,5.7-1.2,8.7-5.1,10-10.4,1-3.9.8-7.9-.5-11.6-.7-2.2.8-1.9,1.9-2.1,1.1-.3,2.3-.8,2.4,1.3.1,5.7,1.9,10.9,4.8,15.8,1.2,2,.8,3.8-1,5.2-.9.7-1.8,1.3-2.7,1.8s-1.3,1.2-.8,2.1c.5,1,1.3.9,2.2.5,5.4-2.1,7.2-6.6,4.6-11.9,1.7.3,3.1,1,4.7.9.9,0,.8.8.8,1.4.4,7.8-.1,15.4-3.2,22.7-4.8,11.3-15.3,14.8-26.4,13.8-6.2-.6-11.8-3.1-17.1-6.2-.4-.2-.8-.5-1.2-.7-1-.6-2.1-1.6-3.1-.2-1,1.6.5,2.2,1.6,2.8,2.1,1.2,4.3,2.3,6.4,3.6,6.2,3.7,11.6,8.1,14.9,14.7,2.4,4.9,2,5.6-3.1,6.5-9,1.6-18.1,2.4-27.2.6-1.1-.2-2.3-.6-3.4-1-4.1-1.6-5-2.8-4.8-7.1.4-13.1.2-26.1,0-39.2,0-.6,0-1.3-.1-1.9-.1-.8-.6-1.3-1.4-1.3s-1.4.6-1.5,1.5c0,.8.1,1.6,0,2.4-.1,1.2.6,2.7-1.1,3.5-1.8.8-3.3.6-4.9-.4-3.1-2-5-6.9-4.1-10.9.4-1.8,1.1-3.4,2.4-4.8,2.6-2.7,6-2.8,8.8-.2.5.5.9,1.1,1.4,1.6.6.8,1.3,1.2,2.2.6,1-.7.8-1.6.2-2.4-.2-.3-.5-.6-.7-1,.1-.3.2-.7.5-.8,2.2-1,3.9-3,6.1-4.3h0Z"/>
          <path class="cls-7" d="M245.6,378.6c-6.7-3.7-14.2-5.5-21.1-8.6-3.4-1.6-6.8-3.3-9.6-5.9-.5-.5-1.4-.8-1.1-1.6.2-.7,1.2-.6,1.9-.8,3-.7,6.1-.7,9.2-.7s3.3-.1,4.8-.8c2.8-1.2,3.1-3.5.8-5.5-1.5-1.2-3.3-1.8-5.2-2.1-5.9-.9-11.8-.6-17.7-.8-7.4-.2-14.8.1-22.1-.8.5-16.1,1-32.2,1.5-48.4,0-.3.1-.6.2-.9,1.5,1.8,3.9,2.3,5.7,3.5,5.3,3.6,9.8,8.1,13.5,13.3,5.8,8,10.2,16.9,15.8,25.1,7.6,11.1,17.6,18.7,30.7,21.8,6,1.4,12.1,1.9,18.2,1.7,1.6,0,2.4.2,1.6,2.1-5.9,15.5-11.8,31.1-17.7,46.6-.2.6-.5,1.1-.8,1.7-6.2-.3-12.2-1.9-18.3-2.5-4.3-.4-7.1-1.9-7.8-6.6-.4-2.6-1.8-5.1-3.2-7.5.1-.1.1-.3,0-.4,2-.7,4-.1,6-.2,3.1,0,5.7-.7,7.8-3.1.8-.9,1.8-1.1,3-1.2,5.8-.4,8-3.2,6.9-8.8-.3-1.3.1-2.5.4-3.7.9-2.8-.2-4.5-3.4-4.9h0Z"/>
          <path class="cls-19" d="M144.2,71.7c2.8-6.3,4.5-13.1,8.5-18.9,7.6-10.9,21.4-15.3,33-10.4-.2,1.1.5,1.8,1,2.5,1.9,2.7,3.7,5.4,5.2,8.4.4.7.7,1.3-.2,2-2.1,1.6-3,4-3.5,6.5-.2,1.1-.7,1.2-1.6,1.5-3.3,1-5.3.3-7.4-2.8-2.7-4-7-6-11.9-4.8-5.4,1.3-8.6,5.2-9.7,10.4-.6,2.9-1.9,3.9-4.6,4.2-2.9.3-5.8.9-8.8,1.4Z"/>
          <path class="cls-19" d="M159.8,71.8c.2-4.1,1.1-7.9,4.1-10.8,3.2-3.1,7-3.4,10.7-.9,6.5,4.4,9.3,15.8,5.5,22.7-3.1,5.8-10.7,6.9-15.4,2.1-3.5-3.7-4.6-8.3-4.9-13.1h0Z"/>
          <path class="cls-7" d="M184.4,388.8c5.8,3.8,11.5,7.6,17.9,10.2,3.7,1.5,7.4,2.9,11.4,3.7,2.5.5,5,.4,7.5-.1.2,2.8,2,5,2.6,7.7.2.8,1,1.7.4,2.4-.6.6-1.5-.1-2.2-.3-12.2-2.4-24-5.8-35.8-9.7-1.7-.6-2.3-1.3-2.3-3.2.1-3.5,0-7.1.5-10.7h0Z"/>
          <path class="cls-14" d="M194,57.2c1.1,2.6,1.9,4.8,2.9,7.2-2.2-.3-3.7.4-4,2.5-.2,1.8.2,3.4,1.9,4.2,1.6.8,2.6-.3,3.6-1.7.9,2.9,1.3,5.7,1.8,8.4.2,1.2-.3,1.4-1.3,1.2-1.8-.3-3.2-1.2-4.4-2.5-3.5-3.8-4.6-12.9-2-17.4.3-.5.8-1,1.5-1.9Z"/>
          <path class="cls-8" d="M203.3,78.2c-1.3-7.7-3.2-14.7-6.4-21.9,4.7,1.1,6.8,4.2,8.2,8,1.7,4.7,2.5,9.3-1.8,13.9Z"/>
          <path class="cls-12" d="M141.9,75.5c-1.5,2.7-4.1,3.8-6.8,4.9-1-1-2.1-2.1-4.1-3.1,4.1-.7,7.5-1.3,10.9-1.8h0Z"/>
          <path class="cls-13" d="M96.6,80.7c1.4-7.5,5.1-13.4,12.4-16.5,4.2-1.8,8.3-3.5,11.7-6.8,2.5-2.4,4.1-5.4,5.4-8.5,2.9-6.9,6.8-13,12.7-17.8.8-.7,1.7-1.5,2.6-.5,1.1,1.1.3,2.1-.6,2.8-6.2,4.6-9.5,11.2-12.5,17.9-3.2,7.1-8.4,11.8-15.5,14.5-7,2.6-11.6,7.2-13,14.8-.2,1.1-.6,2.2-2.1,2-1-.3-1.1-1.1-1.1-1.9Z"/>
          <path class="cls-13" d="M110.3,93.5c0,1.2-.8,1.4-1.4,1.8-2.6,1.3-5.2,2.5-7.5,4.4-4,3.3-5.6,7.8-6.7,12.7-1,4.3-2.3,8.5-5.7,11.6-1,.9-2.2,1.5-3.3,2.2-.8.6-1.7.3-2.3-.5-.7-.9,0-1.6.6-1.9,5.5-2.7,6.7-7.9,7.9-13.2,2-8.8,7.2-14.8,15.7-18,1.3-.6,2.2-.4,2.7.9Z"/>
          <path class="cls-13" d="M47.5,136.3c.8-3.2,2-6.7,4.3-9.6,1.8-2.3,3.9-4.5,6.6-5.9.9-.5,2.1-1.8,3-.2.8,1.4-.4,2.1-1.4,2.7-1.3.8-2.4,1.8-3.5,2.8-3.1,2.8-4.9,6.2-5.8,10.2,0,.4-.3.7-.4,1.1-.2.9-.7,1.4-1.7,1.3-1-.2-1.1-1-1.1-2.4h0Z"/>
          <path class="cls-15" d="M253.1,277c-.5.5-1.2-.2-2,.3,2.3,1.8,4.5,3.6,6.5,5.6,4.3,4.5,8.4,9.1,12.9,13.4,7.1,6.7,15.5,10.7,25.3,11.9-1.2,4.3-1.3,4.3-5.5,3.3-12.3-2.8-21.9-9.8-29.9-19.2-6.6-7.8-14.2-13.8-24-17-.2-.1-.4-.2-.6-.2.2-.1.3-.3.5-.4,1.2-.9,2.5-.4,3.8-.1.9.2,1.8.6,2.8.5,1.2.1,2.3.5,3.4.5,1.9.3,3-.5,3.3-2.3.5-2.6.6-5.2,1.1-7.8,0-1.1.1-2.2.3-3.2.6-7.7,1.5-15.4,1.6-23.2,0-1.2-.3-2.5.9-3.5.7-2.9.5-6,.2-8.9-.3-3.1-.2-6.1-.3-9.2-.4-10.3-1.4-20.4-2.7-30.6-1.7-13.2-4.7-26.2-8.2-39-3.9-14.1-9-27.8-15-41.1-.1-.3-.3-.6-.4-.8-.6-1.2-1.1-2.5.4-3.3,1.6-.9,2.2.4,2.8,1.6,2.2,5,4.5,10,6.5,15.1,5.3,13.8,9.7,27.8,13,42.2,2.2,9.8,3.8,19.6,5.1,29.6,1.3,10.2,2.1,20.4,2.4,30.7-.2,7.3.1,14.6-.4,21.9-.4,7.4-1.1,14.7-1.9,22,.5,3.9,0,7.7-1.9,11.2h0Z"/>
          <path class="cls-20" d="M261.9,279.3c-1.1-.5-2.6-.2-3.5-1.3-.7-1.2,0-2.3.2-3.4.4-1.8,1-3.5,1.3-5.3,1.8.4,2.5-.7,3.2-2.2,12.5-28.7,29-55,49.3-78.9,22.8-26.8,49.3-49.3,79.5-67.5.3-.2.7-.4,1-.6,1.1-.6,2.2-.7,2.9.5.6,1.1-.1,1.9-1,2.5-2.6,1.6-5.2,3.2-7.8,4.9-16.1,10.2-31.1,21.8-45.2,34.8-20.3,18.8-37.9,39.8-52.7,63.2-8.8,13.8-16.5,28.2-23,43.3-.2.5-.3,1-.5,1.6-.7,3-2,5.8-3.7,8.4h0Z"/>
          <path class="cls-1" d="M357.6,210.5c-3.9,3.6-8.4,6-13.2,8.1-1.1,1.2-2.5,2.1-4.2,2.2-8.7,3.5-16.9,8-24.4,13.8-3.4,2.6-6.1,6-9.2,9,2.2-5.1,5.4-9.7,8.7-14.2,6.3-8.5,14.8-13.3,25.1-15.2,5.8-1.1,11.5-2.5,17.2-3.7h0Z"/>
          <path class="cls-2" d="M261.9,279.3c1-2.9,2.1-5.8,3.6-8.5,4.1,1.3,8.3,1.2,12.6.8.5,0,.9-.3,1.3.1-2.8,3-5.7,5.9-7.8,9.4-3.4,0-6.4-1.6-9.7-1.8Z"/>
          <path class="cls-2" d="M259.9,269.3c.8.6.4,1.4.2,2.1-.6,2.2-1.1,4.4-1.7,6.5-1.9.3-3.6-.1-5.3-.9.6-3.8,1.2-7.5,1.7-11.3,1.7,1.4,3.7,2,5.1,3.6h0Z"/>
          <path class="cls-16" d="M340.2,220.8c1.2-1,2.8-1.5,4.2-2.2-1.4,3.6-3.6,6.8-4.8,10.4-2.1,6-3.3,12.2-3.7,18.6-.1,1.6.3,2,2,1.6,6.1-1.2,12.3-2.3,18.5-3.3,1.4-.2,1.8-.4,1.4-2-1.4-6.8-.7-13.4,3-19.5.2-.3.4-.7.6-1,.5-.8,1.2-1.7,2.3-.9,1,.7.5,1.6,0,2.3-1.5,2.1-2.4,4.6-3.1,7.1-1.2,4.1-1.1,8.2-.1,12.3.2.8.5,1.3,1.4,1.1,5.6-1,11.2-1.1,16.8-1.7,1.4-.2,1.8-.7,2.2-1.9,3.3-8.8,9.4-14.7,18.3-17.6,1.1-.4,2.2-.6,2.6.7.4,1.4-.9,1.5-1.8,1.8-7.6,2.6-12.9,7.6-16.1,14.8-.7,1.6-.4,2.3,1.5,2.1,2.1-.2,4.2-.4,6.3-.4,15.5.1,30.9,1.6,46.2,4.7.5.1,1.1.3,1.6.5.8.3,1.1.9.9,1.7s-1,.7-1.6.6c-3.8-.9-7.7-1.5-11.5-2.1-6.5-.9-13-1.7-19.6-2.2-7.2-.6-14.5-.5-21.7-.3-8,.2-15.9.8-23.8,2.2-1.5.2-3,0-4.6.8,2.6,3.4,5.7,6.4,9,9,6.8,5.5,14.1,10.3,22.5,13,.9.3,2.1.6,1.6,1.9s-1.5.7-2.4.4c-9.9-3.6-18.8-9.1-26.4-16.4-2.2-2.1-4.3-4.3-6.5-6.5s-1.3-1.2-2.5-1c-10.2,1.9-20.2,4.3-30.2,6.6-.5.1-1,.4-1.6.6,2.2,2.5,5,4.1,7.7,5.7,8.4,5.1,17.4,8.7,27.3,9.7.5,0,.9.2,1.4.4.7.2,1.4.5,1.3,1.4-.1,1-1,1.1-1.8,1-2.2-.4-4.5-.7-6.7-1.2-11.6-2.6-21.9-7.9-31.2-15.3-.9-.7-1.6-.9-2.7-.6-2.6.8-5.3,1.3-7.9,2.1-1.2.4-2.3.4-2.7-.9-.4-1.6,1-1.7,2-2,7.5-1.9,15-3.8,22.5-5.7.8-.2,1.5-.4,2.3-.5s1.3-.6,1.3-1.4c-.7-10.2,2.2-19.5,6.3-28.5h0Z"/>
          <path class="cls-3" d="M187.7,279.4c-1.8-.5-3.6-1-5.5-1.4-1.7-.4-2.2-.7-.9-2.5,4.1-5.4,7.1-11.5,8.8-18.1.2-.8.5-1.5.2-2.6-2.2,1.8-4.4,3.5-6.5,5.2-3.2,2.6-6.4,5-9.6,7.7-1.2,1-1.9.9-2.7-.4-3.5-5.3-6.5-10.9-9.6-16.5-6.2-11-11.2-22.7-17.2-34,4.9-1.8,10-2.1,15.4-4-5.1-2.3-9.8-4.1-14.7-5.1-.8-.2-1.6-.5-2.3-.4-3.4.6-4.8-1.4-6.3-4-2.4-4.3-5.1-8.5-7.8-12.6-.9-1.3-.9-2.1.6-3,5.6-3.1,11.6-5.3,17.8-6.8,1-.2,1.7.2,2.5.5,4.2,1.8,7.9,4.2,11,8.3.9-4.1.4-7.4-1.3-10.9,4.6-.6,9-.9,13.5-.7,5.1.2,10.2.7,15.2,1.7,1.4.3,2.2.8,2.9,2,2.9,5,4.4,10.4,4.5,16.2v2.8c1.8-1.9,2.6-3.8,3.3-5.7,1.2-3.1,1.8-6.4,2.2-9.6.2-1.4.5-2,2.2-1.4,4.3,1.4,8.1,2.8,7.3,8.6-.2,1.1-.2,2.7.8,3.9,1.8-1.2,3.4-2.8,4-4.8.7-2.1,1.7-1.6,3-.9,5.1,2.9,10.1,6.1,14.7,9.8.5.4.9.9,1.6.9.8,6.3-2.3,11.6-4.4,17.1-2.4,6.3-5,12.5-5,19.5.1,10.2,5.5,17.8,15.2,21.2-.3,2-1.5,3.3-3.3,4-1.3-.2-1.9-1.2-2.7-2.1-.6-.6-1.1-2.1-2.1-1.2-.9.7.5,1.6.9,2.3.7,1.1,2.3,1.9,1.7,3.6-2.6,3.2-5.6,5.8-9.6,7.1-11.1-.9-22.1-2.2-33.3-2.5h-2.6c-1.1-.1-1.5.4-1.6,1.5,0,2.2-.1,4.7-.3,7.3h0Z"/>
          <path class="cls-18" d="M253.5,235.5c-.1,8.5-.8,16.9-1.6,25.3,0,.5-.2,1.1-.3,1.6-1-.3-1.8-.8-1.5-2-4.8-7.3-4.5-15.2-2.5-23.2s2.8-7.6,5.3-10.9c.2,0,.4,0,.7.1-.1,3-.1,6-.1,9.1h0Z"/>
          <path class="cls-6" d="M250,260.4c.5.7,1,1.3,1.5,2-.1,1.1-.2,2.1-.3,3.2-2.8,2-6,3.1-9.1,4.1-2.3-1.4-3.5-3.8-4.9-6-.2-.3,0-.6.2-.8,1.3-1.1,2.2-2.5,3.3-3.8,3,1.1,6.1,1.6,9.3,1.3h0Z"/>
          <path class="cls-16" d="M311.5,312.9c-2.2,5.8-4.4,11.6-6.5,17.4-.2.6-.8,1.3-.5,2,.5,1,.6,1.8-.4,2.4-1.1.7-1.8-.3-2.5-.8-4.2-3.2-8.7-5.5-13.9-6.6-3.6-.8-7.3-1.2-11-.7-1.2.2-2.9.3-3,1.7-.1,1.5,1.6,2,2.8,2.4,2.1.5,4.2.3,6.3.2,1.1-.1,2.2-.1,2.4,1.2.2,1.3-.9,1.6-2,1.8-5.1.8-9.8-.3-14.4-2.3-3.4-1.5-6.4-3.7-9.5-5.7-1-.7-2.1-1.3-3.2-.1-1,1.1,0,2.1.6,2.9,2.7,3.9,6.6,6.2,10.9,8,2.2.9,4.4,1.6,6.7,2.3,1,.3,1.8.8,1.4,2-.3,1.1-1.1,1.3-2.2.9-7.2-2.2-14.1-4.9-19-11.1-.6-.7-1.1-1-2-.7-.8.3-1.2,1-1.2,1.8-.1,2.7,1.1,4.9,2.9,6.7,5.2,5.2,11.7,7.8,18.9,8.8,1.2.2,2.4.2,2.3,1.7s-1.4,1.4-2.5,1.3c-5.8-.6-11.1-2.7-16-5.7-.6-.4-1.1-1.4-2-.6-1,.8-.5,1.8,0,2.6,2.8,4.2,7,6.5,11.7,7.8,2,.6,4.2.8,6.3,1,1.1.1,2.4,0,2.4,1.6-.1,1.8-1.5,1.5-2.7,1.4-6.2-.3-11.8-2.4-16.8-6.1-.9-1-1.8-2-2.6-3-1.7-2.1-2.5-4.4-.9-6.9.6-1,.2-1.4-.4-1.9-1.9-2-2.9-4.4-3.5-7.1s.8-5.3,3.4-6.2c.8-.3,1-.6,1.2-1.4.8-3.5,4-4.8,7.1-3,2.6,1.5,5.2,3.3,7.7,4.9.7.4,1.5.8,2.4,1.2.8-4.6,4.3-5.1,7.8-5.5,3.1-.3,6.3,0,9.3.8,1.7.5,2.7,0,3.3-1.8,1-2.9,2.2-5.7,3.2-8.6.3-1,.8-1.5,1.9-1.4,5.1.8,10.2.6,15.2-.2.4,0,.5.3.6.6h0Z"/>
          <path class="cls-9" d="M225.6,272.9c3.3-2.2,6.6-4.4,9.4-7.3,2,.4,4.2,3,4.3,5.4-2.2,1.1-4.2,2.6-6.7,2.8-2.4-.1-4.7-.4-7-.9Z"/>
          <path class="cls-2" d="M232.6,273.8c2.1-1.2,4.3-2.4,6.7-3.1,1.9,1,3.3,2.5,3.5,4.8-2.1-.3-4.3-.6-6.4-.9-1.2-.8-2.7,0-3.8-.8Z"/>
          <path class="cls-3" d="M245.6,378.6c1.9-1.1,4.3,0,4.2,2.5,0,3.3-.2,6.7-.3,10-.2,3.4-3.2,5.7-6.6,5.8-1.9,0-3.4.4-4.6,2-1.2,1.4-3,2.1-4.8,2.2-2.8.2-5.6.4-8.4-.4-6.6-1.5-12.6-4.4-18.1-8.2-.9-.6-2.1-1.3-1.3-2.6.9-1.5,2-.5,3,.1,6,4,12.4,7.2,19.7,8,2.7.3,5.5.3,8.2-1.6-6.4-1.6-12-4.1-17.4-7.1-1.6-.9-3.1-1.9-4.6-2.8-1-.6-1.9-1.4-1.1-2.7.9-1.4,1.9-.5,2.8.1,6.8,4.4,14.1,8,22.1,9.6,1.6.3,3.3.5,4.9.1,1.8-.4,3.2-1.4,3.6-3.3.4-2-.2-2.6-2.3-2.3-3,.3-5.8-.3-8.6-1.2-5.4-1.8-10.5-4.2-15.3-7.3-.7-.5-1.5-.9-1.6-1.9-.1-.6.3-1,.8-1.4.9-.5,1.5,0,2.1.4,5.4,3.5,11.1,6.2,17.3,7.8,1.6.4,3.2.6,4.9.4,2.8-.4,3.7-2.3,2.2-4.6-.5-.3-.7-.9-.8-1.6h0Z"/>
          <path class="cls-3" d="M184.7,106.5c-3.6,0-6.4-1-8.8-3-.4-.3-1.1-.5-.8-1.2.3-.6,1-.5,1.5-.3,2.4.7,4.8.8,7.2.2,1.7-.4,3.3-1.1,4.5-2.4,1-1,2-1.6,3.3-.5,1.4,1.2,1.3,2.6.3,4-1.9,2.7-4.7,3.1-7.2,3.2Z"/>
          <path class="cls-16" d="M175.5,73.1c0,2.2-1.3,3.8-3,3.8s-3.4-2.1-3.4-4.6c.1-2.2,1.4-3.7,3.1-3.6,1.9,0,3.3,2,3.3,4.4h0Z"/>
          <path class="cls-2" d="M242,269.4c3-1.4,6-2.9,9.2-3.8-.3,2.7-.7,5.4-1.1,8.1-.3,2.1-1.6,2.9-3.7,2.3-2-1.8-3.9-3.7-4.4-6.6Z"/>
          <path class="cls-10" d="M242,269.4c1.5,2.2,2.9,4.4,4.4,6.5-1.3.3-2.4-.4-3.7-.5-.9-1.8-2.1-3.3-3.5-4.8-1.3-1.8-2.3-4-4.3-5.2-.2-2.1-2.2-2.9-3.1-4.5-.5-.8-.8-1.3,0-2s1.4-.5,2,.2c1.2,1.2,1.9,2.9,3.5,3.7,1.1,2.7,3.1,4.5,4.7,6.6h0Z"/>
          <path class="cls-5" d="M223.6,206.6c-.2,9.4-2.5,18.3-7.1,26.5-2.3,4.1-2.2,4,1,7.4,4.1,4.4,8.1,9,12.1,13.5.7.7.9,1.5.2,2.3-.9.9-1.6.1-2.2-.5-1.3-1.4-2.6-2.7-3.7-4.2-1.2-1.7-2.7-1.8-4.5-1.4-10.8,2.5-21.3,1.4-31.6-2.4-.4-.1-.7-.3-1.1-.5-.6-.3-1.1-.8-.8-1.5.3-.8,1-.9,1.8-.6,2.5.9,5,1.9,7.6,2.6,7.9,2,15.8,1.9,23.8.5,1.3-.2,1.3-.6.5-1.4-5.8-6.4-12-12.5-18.1-18.6s-1.4-.8-2.3-.4c-9.9,4.6-20.4,5.9-31.2,5.2-.8,0-1.5-.3-2.3-.4-.6-.1-1.4.1-1.4-.8s.9-1.2,1.7-1.1c2.1.1,4.2.4,6.3.5,8.4.3,16.5-1.5,24.3-4.4,2-.7,2-1.3.5-2.5-8.1-6.9-16.5-13.2-25.7-18.5-8.8-5.1-18-9.2-27.6-12.4-.6-.2-1.2-.4-1.8-.6-.8-.3-1.8-.7-1.3-1.8.4-1,1.2-.6,2-.4,5.8,1.9,11.5,4.2,17.1,6.7,7.7,3.5,15,7.5,21.9,12.4,1.8,1.3,2,.1,2.2-1,1-6.7.2-12.9-3.9-18.5-.5-.8-2-1.8-.7-2.8,1.4-1.1,1.9.6,2.6,1.5,4.8,6.4,5.3,13.6,3.8,21.1-.3,1.5.1,2.4,1.2,3.2,3.4,2.6,6.8,5.2,10.2,7.9.9.7,1.3.6,1.9-.2,4-5,6.6-10.5,6.8-16.9,0-.8,0-1.8,1.1-1.7,1.2,0,.8,1.2.8,1.8.1,6.5-2.3,12.1-6.5,16.9-1.3,1.5-1.6,2.5.1,3.8,3.7,2.8,6.8,6.3,10.1,9.6s2,1.4,2.8-.4c3.7-7.7,6.8-15.5,7.3-24.1.1-2.2.3-4.4.4-6.6,0-.8-.2-1.8.9-1.9,1.1-.1,1,1,1,1.8-.2.9-.2,2.1-.2,3.3h0Z"/>
        </g>
        <path class="cls-11" d="M339.8,73c-2.1-5.9-6.4-9.6-12.4-11.3-.7-.2-.9-.4-.6-1.2.8-2.7.9-5.4.4-8.1-1.4-6.9-5.5-11.5-12.1-13.8-6.6-2.2-12.5-.8-17.7,3.8-3.8,3.4-5.8,7.7-5.9,12.9v14.9c0,.2-.1.4.2.4,2.1-1.2,4.2-2.4,6.2-3.6,1.8-1,2.6-2.6,2.6-4.7v-7.1c.1-5.4,5.5-9.6,10.7-8.4,3.7.8,6.6,3.7,7.1,7.2.6,3.9-1.1,7.5-4.5,9.5-13.4,7.8-26.9,15.5-40.3,23.3-1.8,1.1-3.8,1.4-5.9,1.1-4.1-.6-7.4-4.3-7.5-8.3-.1-4.6,2.7-8.4,6.9-9.4,1.4-.3,2.9,0,4.3,0,2.7,0,5.1-2.5,5.2-5.2.1-1.7-.6-3-1.5-4.3-2-3.1-2.1-6.4-.3-9.6,1.9-3.1,4.8-4.7,8.5-4.3,2.8.3,4.9-.7,6.2-3.2.5-.9,1.1-1.8,1.7-2.7.4-.6.3-.8-.3-1.1-3.6-1.8-7.4-2.5-11.4-1.8-10.4,1.7-17.2,12.4-14.2,22.5.2.7.2,1-.6,1.2-9.8,2.5-15.7,12.6-12.8,22.3,1.9,6.5,6.3,10.6,12.8,12.5.8.2.9.4.7,1.2-.8,2.6-.9,5.2-.4,7.9,1.6,9.7,11.1,16.4,20.8,14.7,8.7-1.5,14.9-9,14.9-17.8v-14.1c0-.3.1-.6-.2-.8-2,1.2-4,2.3-6,3.5-1.9,1.1-2.8,2.7-2.8,4.9s.2,5.2-.1,7.8c-.6,5.1-5.8,8.8-10.8,7.6-3.8-.9-6.5-3.9-7-7.7-.5-3.6,1.4-7.1,4.7-9,3.6-2.1,7.2-4.2,10.8-6.3,9.7-5.6,19.4-11.2,29.1-16.8,1.6-.9,3.3-1.4,5.2-1.3,3.8,0,7,2.7,8.2,6.3,1.1,3.6-.2,7.6-3.2,9.8-2.1,1.6-4.5,1.9-7,1.7-2.4-.2-4.1.9-5.2,3s-.9,4.1.5,6c1.5,2.1,2.1,4.3,1.8,6.8-.5,4.5-5.1,8.2-9.6,7.6-2.6-.3-4.7.5-6.1,2.8-.6,1.1-1.2,2.1-1.9,3.2-.3.5-.2.7.3.9,3.9,2,7.9,2.7,12.2,1.8,10.2-2.2,16.3-12.2,13.6-22.3-.2-.9,0-1.1.8-1.3,10.1-2.9,15.4-13.8,11.9-23.5h0Z"/>
      </g>
    </g>
  </g>
</svg>