<?xml version="1.0" encoding="UTF-8"?>
<svg xmlns="http://www.w3.org/2000/svg" version="1.1" viewBox="0 0 462 462">
  <defs>
    <style>
      .cls-1 {
        fill: #eb580c;
      }
    </style>
  </defs>
  <!-- Generator: Adobe Illustrator 28.7.1, SVG Export Plug-In . SVG Version: 1.2.0 Build 142)  -->
  <g>
    <g id="_图层_1" data-name="图层_1">
      <g>
        <polygon class="cls-1" points="182.6 186.9 132.1 274.9 142.4 274.9 193 186.9 182.6 186.9"/>
        <g>
          <path class="cls-1" d="M153.3,196.6c-1.5-2.7-3.6-4.8-6.3-6.3-2.7-1.5-5.9-2.3-9.5-2.3h-23.2v59h9.7v-22.9h13.5c3.6,0,6.8-.7,9.5-2.2,2.7-1.5,4.8-3.6,6.3-6.3,1.5-2.7,2.3-5.9,2.3-9.5s-.8-6.8-2.3-9.5ZM143.4,212.4c-1.4,1.6-3.3,2.4-5.7,2.4h-13.8v-17.5h13.8c2.4,0,4.3.8,5.7,2.4,1.4,1.6,2.1,3.7,2.1,6.4s-.7,4.7-2.2,6.3Z"/>
          <path class="cls-1" d="M93.4,188v37.9c0,3.8-1,6.8-3,8.9-2,2.1-4.8,3.2-8.5,3.2s-6.4-1.1-8.4-3.2c-2-2.1-3-5.1-3-8.9v-20.3h13.2l-17.8-17.8-17.8,17.8h12.8v20c0,7,1.8,12.4,5.5,16.2,3.7,3.8,8.9,5.7,15.6,5.7s11.9-1.9,15.6-5.7c3.7-3.8,5.5-9.2,5.5-16.2v-37.6h-9.7Z"/>
        </g>
        <g>
          <path class="cls-1" d="M222.9,220.8c-4-3.7-9.6-5.5-16.9-5.5h-19.1v59h19.1c4.9,0,9.1-.9,12.5-2.6,3.4-1.7,6-4.2,7.7-7.3,1.7-3.2,2.6-6.9,2.6-11.2v-16.7c0-6.7-2-11.9-6-15.6ZM218.8,253.4c0,3.7-1.1,6.5-3.3,8.5-2.2,2-5.3,3-9.3,3h-9.7v-40.4h9.7c4,0,7.1,1,9.3,3,2.2,2,3.3,4.8,3.3,8.5v17.4Z"/>
          <path class="cls-1" d="M277.1,224.9c-1.7-3.3-4.2-5.8-7.4-7.6-3.2-1.8-6.9-2.7-11.1-2.7s-8,.9-11.1,2.7c-3.2,1.8-5.6,4.3-7.4,7.6-1.7,3.3-2.6,7.1-2.6,11.5v16.7c0,4.4.9,8.2,2.6,11.4,1.7,3.3,4.2,5.8,7.4,7.6,3.2,1.8,6.9,2.7,11.1,2.7s8-.9,11.1-2.7c3.2-1.8,5.6-4.3,7.4-7.6,1.7-3.3,2.6-7.1,2.6-11.4v-16.7c0-4.4-.9-8.2-2.6-11.5ZM269.8,253.4c0,3.6-1,6.4-3,8.6-2,2.2-4.7,3.2-8.1,3.2s-6.1-1.1-8.1-3.2c-2-2.2-3.1-5-3.1-8.6v-17.3c0-3.6,1-6.5,3.1-8.6,2-2.1,4.7-3.2,8.1-3.2s6.1,1.1,8.1,3.2,3,5,3,8.6v17.3Z"/>
          <polygon class="cls-1" points="304.2 258.1 315.9 215.3 323.2 215.3 334.8 258.1 343.8 215.3 353.9 215.3 339.9 274.2 330.4 274.2 319.8 233 308.6 274.2 299.1 274.2 285.2 215.3 295.2 215.3 304.2 258.1"/>
          <path class="cls-1" d="M368.6,274.9v-37.9c0-3.8,1-6.8,3-8.9,2-2.1,4.8-3.2,8.5-3.2,3.6,0,6.4,1.1,8.4,3.2,2,2.1,3,5.1,3,8.9v20.3h-13.2s17.8,17.8,17.8,17.8l17.8-17.8h-12.8v-20c0-7-1.8-12.4-5.5-16.2-3.7-3.8-8.9-5.7-15.6-5.7-6.7,0-11.9,1.9-15.6,5.7-3.7,3.8-5.5,9.2-5.5,16.2v37.6s9.7,0,9.7,0Z"/>
        </g>
      </g>
    </g>
  </g>
</svg>