<?xml version="1.0" encoding="UTF-8"?>
<svg xmlns="http://www.w3.org/2000/svg" version="1.1" viewBox="0 0 462 462">
  <defs>
    <style>
      .cls-1 {
        fill: #50f6d4;
      }

      .cls-2 {
        fill: #00e4e9;
      }

      .cls-3 {
        fill: #17fff2;
      }
    </style>
  </defs>
  <!-- Generator: Adobe Illustrator 28.7.1, SVG Export Plug-In . SVG Version: 1.2.0 Build 142)  -->
  <g>
    <g id="_图层_1" data-name="图层_1">
      <g>
        <g>
          <rect class="cls-3" x="130.2" y="202.2" width="45.8" height="5.7"/>
          <polygon class="cls-3" points="130.2 232.7 130.2 257.7 130.2 259.5 176.1 259.5 176.1 253.8 136 253.8 136 232.7 176.1 232.7 176.1 227 130.2 227 130.2 232.7"/>
          <path class="cls-3" d="M210.5,239c2.5-1,4.8-2.4,6.7-4.1,1.9-1.7,3.4-3.7,4.6-6,1.1-2.3,1.7-4.7,1.7-7.3s-.6-5.9-2-8.2c-1.3-2.4-3-4.3-5-5.9-2-1.6-4.3-2.7-6.8-3.5s-4.9-1.2-7.3-1.2h-20.9v5.5h22.8c1.7,0,3.4.4,5,1.1,1.6.7,3,1.7,4.2,2.9s2.2,2.6,2.9,4.2c.7,1.6,1.1,3.3,1.1,5.1s-.4,3.8-1.2,5.4c-.8,1.6-1.9,3-3.1,4.2-1.3,1.2-2.7,2.1-4.3,2.7-1.6.6-3.1,1-4.7,1h-19v8.4l26.5,16.4h11.5l-31.4-19h10.4c2.8,0,5.5-.5,8-1.5l.3-.2Z"/>
          <path class="cls-3" d="M278.2,210.7c-2.6-2.6-5.6-4.6-9.1-6.1s-7.2-2.2-11.2-2.2-7.7.7-11.2,2.2-6.5,3.5-9.1,6.1-4.6,5.6-6.1,9.1-2.3,7.2-2.3,11.2h5.5c0-3.2.6-6.2,1.8-9s2.8-5.2,4.9-7.3c2.1-2.1,4.5-3.7,7.3-4.9s5.8-1.8,9-1.8,6.1.6,8.8,1.8c2.8,1.2,5.2,2.8,7.3,4.8,2.1,2.1,3.7,4.5,4.9,7.3,1.2,2.8,1.8,5.8,1.8,9s-.6,6.1-1.8,8.9c-1.2,2.8-2.8,5.2-4.9,7.3s-4.5,3.7-7.3,4.9-5.7,1.8-8.8,1.8v5.7c4,0,7.7-.8,11.2-2.3s6.5-3.5,9.1-6.1,4.6-5.6,6.1-9.1,2.2-7.2,2.2-11.2-.7-7.7-2.2-11.2-3.5-6.5-6.1-9.1l.2.2Z"/>
          <polygon class="cls-3" points="292 202.3 292 259.4 297.7 259.4 297.7 214.6 330.1 259.4 335.6 259.4 337.2 259.4 295.8 202.3 292 202.3"/>
          <rect class="cls-3" x="343.2" y="202.2" width="45.8" height="5.7"/>
          <polygon class="cls-3" points="389.1 232.7 389.1 227 343.2 227 343.2 232.7 343.2 257.7 343.2 259.5 389.1 259.5 389.1 253.8 348.9 253.8 348.9 232.7 389.1 232.7"/>
          <polygon class="cls-3" points="118.9 202.4 118.8 202.5 74.9 202.5 74.9 208.2 114.2 208.2 72.9 259.8 80.4 259.8 80.4 259.7 124.4 259.7 124.4 254 85 254 126.3 202.4 118.9 202.4"/>
        </g>
        <g>
          <g>
            <polygon class="cls-1" points="318.7 271.1 294.2 342.1 294.2 342.1 151.1 342.1 175.6 271.1 165.4 271.1 137.5 352.2 300.9 352.2 328.8 271.1 318.7 271.1"/>
            <path class="cls-1" d="M202,194.3l42.3-123h142.8c.2,0,.3.2.2.4l-42.2,122.6h10.2l45.7-132.8c0-.2,0-.4-.2-.4h-163.1l-45.8,133.1h10.2-.1Z"/>
          </g>
          <g>
            <polygon class="cls-2" points="258.9 271.1 217.8 390.6 217.8 390.6 74.7 390.6 115.8 271.1 105.7 271.1 61 400.8 224.4 400.8 269.1 271.1 258.9 271.1"/>
            <path class="cls-2" d="M142.3,194.3l25.6-74.4h142.8c.2,0,.3.2.2.4l-25.5,74h10.2l29-84.2c0-.2,0-.4-.2-.4h-163.1l-29.1,84.6h10.2-.1Z"/>
          </g>
        </g>
      </g>
    </g>
  </g>
</svg>