<?xml version="1.0" encoding="utf-8"?>
<!-- Generator: Adobe Illustrator 28.3.0, SVG Export Plug-In . SVG Version: 6.00 Build 0)  -->
<svg version="1.1" id="图层_1" xmlns="http://www.w3.org/2000/svg" xmlns:xlink="http://www.w3.org/1999/xlink" x="0px" y="0px"
	 viewBox="0 0 893.7 749.5" style="enable-background:new 0 0 893.7 749.5;" xml:space="preserve">
<style type="text/css">
	.st0{fill:#3F3D56;}
	.st1{fill:#212E3B;}
	.st2{fill:#EBC24A;}
	.st3{fill:#8BA146;}
	.st4{fill:#32735A;}
	.st5{fill:#305E8B;}
	.st6{fill:#F0D9CF;}
	.st7{fill:#657A20;}
	.st8{fill:#202D3A;}
	.st9{fill:#CEAA9E;}
	.st10{fill:#EC7A5A;}
	.st11{fill:#EFD9CF;}
	.st12{fill:#EBC349;}
	.st13{fill:#EC8D10;}
	.st14{fill:#212D3A;}
	.st15{fill:#202C3A;}
	.st16{fill:#647A20;}
	.st17{fill:#EC7A59;}
	.st18{fill:#294C6E;}
	.st19{fill:#2A4C6E;}
	.st20{fill:#EF75A8;}
</style>
<path class="st0" d="M893.7,748.3c0,0.7-0.5,1.2-1.2,1.2H1.2c-0.7,0-1.2-0.5-1.2-1.2s0.5-1.2,1.2-1.2h891.3
	C893.1,747.2,893.7,747.7,893.7,748.3z"/>
<g>
	<g>
		<path class="st1" d="M485.3,682.5c-0.7,16.1-0.7,32.3-2.3,48.4c-0.3,2.5-0.7,4.9-0.8,7.2c-96.1,0-192.3,0-288.2,0
			c-1.6-2.6-1.5-5.8-1.3-8.7c1.6-25.5,0.3-50.5-5.8-75.6c-5.1-21.2-3.8-42.6,0.2-64c0.5-2.3-0.2-3.5-2-4.6
			c-36.9-22.7-60.7-55.5-72.8-97c-0.7-2.3-1.5-3.6-4.1-4.1c-7.6-1.5-14.8-4.3-21.2-8.9c-6.1-4.6-9.2-10.4-8.2-18.4
			c5.1-44,15.1-86.4,36.4-125.8c4-7.2,8.6-14.2,12.8-21.2c0.5-1.8,1.3-3.6,2.5-5.3c26.5-35.9,60.9-60.7,102.7-75.9
			c14.3-5.1,28.8-9.2,43.8-12c3.3-0.7,4.4-2,4.4-5.4c-0.2-15.1-0.2-30.3,0-45.4c0-3-0.7-4-4-4c-7.7,0.3-12.3-4.8-15.5-11
			c-3.6-7.2-3.3-14.8,0.2-22.4c-2-0.3-3.6-0.8-3.8-3.1c-0.2-2.5,1.6-3.8,3.6-4.6c7.9-3.3,16.3-4.8,24.7-6.4
			c5.8-1.2,11.4-2.3,17.1-3.1c5.3-0.7,10.4-2,15.6-2.8c3.1-0.5,4.8-2,5.4-5.1c1.2-5.4,3.8-10.2,7.9-13.8c7.1-6.3,16.5-6.7,24.4-1.5
			c2.8,1.8,5.3,4.1,7.1,7.1c1.3,2,2.6,3.5,5.4,2.8s5.9-0.7,6.6-4.6c0.5-2.6,1.8-5.1,3.8-7.1c1.8-2,1.8-3.8,0.5-5.9
			c-2.1-3.6-4.3-7.4-6.9-10.7c-1.3-1.6-2.5-3.5-1.8-5.8c2.5-2.6,4-2.8,6.3,0c3.5,4.1,6.3,8.9,8.7,13.7c1.3,2.5,2.8,4,5.8,4.3
			c5.8,0.5,9.9,4.1,13,8.4c5.1,7.1,7.4,15.3,6.4,24.2c-0.5,4.6-2.5,8.9-6.1,11.9c-2.5,2.1-3.1,4.4-3,7.6c0.5,11.5-0.3,22.7-4.3,33.7
			c-5.8,16.8-17.4,26.8-34.9,29.8c-3.3,0.5-4.6,1.6-4.4,5.3c0.2,7.2,0.7,14.5-0.3,21.7c-1.2,3.5-3.5,5.1-6.9,6.1
			c-16.8,4.3-33.7,4.6-50.9,2.6c-6.4-0.8-12.3-3.1-17-7.9c-1.5-1.6-3.3-1.8-5.3-1.5c-20.7,4.3-41,10-60.2,18.8
			c-16.6,7.6-31.9,17-46.3,28.3c-19.3,15.3-34.7,33.9-47.4,55c-16.6,27.8-27,57.8-33.7,89.4c-2.6,12.5-4.9,25.2-6.3,37.9
			c-0.5,4-0.3,4,3.6,3.5c16-2,31.9-2.5,48.1-2.6c8.2-0.2,16.5-0.7,24.7,0.2c11.9,1.2,20.2-4.9,26.8-14c6.4-9.1,9.2-19.6,12.3-30
			c1.5-4.8,2.8-9.7,4.1-14.7c0.2-0.8,0.5-1.8,1-2.5c1-1.8,2.3-3.3,4.6-2.6c2.5,0.8,2.5,2.8,2,4.8c-1.6,7.1-3.6,14-4.4,21.2
			c-2.3,21.6-2.6,43.1,4.8,64c5.3,15.3,14.5,28,26.5,38.7c2.1,2,5.3,3.6,2.6,7.2c-2.1,2-4.1,0.7-5.9-0.7
			c-9.2-7.4-16.5-16.5-22.4-26.5c-6.1-10.4-10.2-21.4-12.2-33.4c-0.5-2.8-1.6-4-4.6-4c-23-1-46.1-0.7-69.1-0.7
			c-4.1,0-8.2,1-12.3,0.8c-2.8-0.2-2.6,1.8-2.3,3.8c2.6,12.8,5.8,25.5,10.5,37.7c8.2,20.6,19.8,39,35.7,54.5
			c18.3,17.9,40,30.6,64,39.2c21.1,7.6,42.3,13.7,64.4,17.3c11.5,2,23,3.1,34.7,4c13,1,25.7,3.8,37.7,8.4c4.1,1.6,8.2,3.8,10.9,7.9
			c0.2,5.4-0.5,10.7-0.5,16.1c0,3.6,1.2,5.3,4.6,6.4c18.3,5.9,36.7,11.4,55.6,15c3.8,0.7,4,0.7,2.8-3.1c-0.8-2.6-2-5.1-3-7.6
			c-0.5-1.5-1.3-2.8-0.2-4.4c2.1-1.5,4.3-2.6,6.9-2.5c4,4.4,5.4,10.2,7.1,15.6c1.2,4,3.3,5.4,7.1,6.1c10.9,1.6,21.9,3.3,32.8,5.1
			C484.8,681.8,485.1,682.1,485.3,682.5z"/>
		<path class="st2" d="M304.1,112.7c-11.2,2.3-22.2,4.4-33.4,6.9c-3,0.7-5.9,1.8-8.7,3c-1.8,0.7-3.8,1.8-2.6,4.3
			c1.3,2.6,3.3,0.8,5.6-0.2c-3.1,5.1-4.8,10-4.3,15.3c0.5,5.8,2.5,10.9,6.6,15c3.6,3.6,7.9,5.4,13,4.1c2-0.5,2.5,0,2.5,2
			c-0.2,17.3-0.2,34.7-0.2,52c0,2.6-1.6,2.5-3.3,2.8c-20.7,4-40.7,9.7-60.1,18.1c-37.4,16.3-67.7,41-91.2,74.4
			c-3.3-22.2-5.9-44.6-4.8-67.2c1-18.8,3.8-37,14.5-53.2c5.1-7.7,11.9-14,20.1-18.4c6.6-3.5,13.2-7.1,19.1-11.9
			c7.4-5.9,11.7-13.5,13-23c2.3-14.7,7.4-28,19.6-37.5c4.3-3.5,8.9-6.4,13.7-8.9c16.6-8.7,28.8-21.6,37.9-37.9
			c5.1-9.4,11-18.4,19.6-25.4c10.9-8.7,23.4-13,37-14.8c20.7-2.8,40.2,0.7,57.9,12.3c6.9,4.6,12.7,10.2,17.1,17.3
			c1.3,2,2.8,3.3,4.8,4.3c13.8,7.4,24.7,17.4,29.1,33.1c2.8,9.7,2.3,19.4,0.8,29.1c-0.3,2.8-0.8,5.6-1.2,8.4
			c-0.3,3.3,0.5,6.1,2.1,8.9c3.8,6.4,7.2,13.2,10.9,19.6c-1.6,2.1-4.6,1.5-6.6,2.8c-10.2,5.3-16,17.3-13,28.3
			c3.3,12.5,8.1,24.4,12.5,36.4c1,2.6,2,5.4,3,7.9c4.6,11.2,2.5,22.1-1.2,32.9c-0.3,0.8-0.7,1.6-1.5,2.3c-1.6,0.8-3-0.3-4.3-1.2
			c-20.4-13-42.6-21.6-66-27.2c-1.6-0.3-4.3,0.2-4-3c1-8.1,0-16.3-0.2-24.4c0-1.8,0-2.8,2.3-3c26.7-3,37.7-21.2,40.8-44
			c1-7.2,1-14.5,0.7-21.7c-0.2-2,0.3-3.1,2.1-4.4c4.4-3,6.7-7.6,7.1-12.8c0.7-10-2-18.9-9.1-26.3c-3.1-3.1-6.9-5.1-11.4-5.1
			c-2,0-2.6-0.8-3.5-2.3c-2.8-5.4-5.9-10.5-9.5-15.5c-1.6-2.1-3.3-3-5.3-0.5c-1.3,0.5-2.6,0-3.8-0.3c-22.2-6.4-45.3,4.4-55.5,28.1
			c-2.1,5.1-4,10.4-6.1,15.5C306.5,109.8,305.7,111.4,304.1,112.7z"/>
		<path class="st3" d="M515.8,341.2c2.6,1.5,2.5-1.3,3.5-2.3c2.6-1,4.1-3.8,6.9-4.6c1.3,0.8,1.8-0.5,2.5-1.2
			c11.7-8.9,18.6-21.4,24.9-34.2c5.8-11.7,10.4-23.7,13.8-36.2c8.2-29.6,27.5-48.6,56.3-58.8c15.6-5.4,31.3-10.7,45.9-18.8
			c4.6-2.6,9.1-5.6,13.7-8.1c14.2-7.2,28.6-9.4,43.6-2.3c2.6,1.3,5.3,2.6,7.2,5.1c2.1,4.8,0.7,9.4-0.7,14
			c-3.1,10.5-9.7,19.1-16.8,27.2c-6.6,7.6-13.5,14.7-20.1,22.1c-9.1,10.4-12.8,22.9-14.3,36.2c-0.3,2.6-1.8,5.1-1.3,7.9
			c-3.3,9.1-4.9,18.4-8.4,27.5c-2.8,7.2-6.3,14.3-11.2,20.2c-1.5,1.8-1.3,3.8-1.5,5.8c-2-1.3-3.1,0.8-4.8,1.2
			c-8.6,2.3-17.4,4.3-26.2,5.8c-22.9,4-38.8,17.1-50.2,36.7c-2.1,3.6-4.4,7.2-6.3,11.2c-6.6,9.9-13.3,19.8-20.4,29.3
			c-6.9,8.6-15.1,15.1-26.2,17.9c-7.2,0.5-14.7,1.5-21.7-1.3c-1.6-1.6-0.8-3.3,0-4.9c8.7-20.6,19.1-40.2,30.6-59.3
			c13-21.7,27.5-42.3,43.5-61.9c14.3-17.6,30-34.4,46.6-49.9c27.3-25.5,56.8-48.1,88.9-67.5c1.5-0.8,4.1-2,3-3.8
			c-1.3-2.3-3.5-0.3-5.1,0.5c-23.4,14-45.4,29.8-66.3,47.2c-13.5,11.4-26.8,23.2-39,36.1c-19.9,20.7-38.4,42.8-54.8,66.3
			c-16.1,23.2-30.5,47.6-42.8,72.9c-3,6.1-5.8,12.2-8.4,18.4c-1.3,3-3,4-6.1,3.1c-2.1-1.3-4.1-2.8-6.3-4.1c-1.3-0.8-2.5-1.8-2.5-3.6
			c1.2-13.2,2.3-26.2,3.1-39.3c0.5-6.7,0-13.3,0.2-20.1c0-3.5-0.2-6.9,0.3-10.4c0.5-2.3,2.3-3.6,4.1-4.9
			C500.3,350.6,508.2,346,515.8,341.2z"/>
		<path class="st4" d="M551.5,424.4c6.7-9.5,13.3-19.1,20.1-28.8c7.7-12.2,19.3-19.9,31.4-26.8c6.1-3.5,12.2-6.7,18.6-9.7
			c1.6-0.8,3.6-2.3,5.6-0.5c0.3,1.5-0.5,2.8-1,4.1c-5.8,12.7-9.2,25.8-9.2,39.8c0,4.3-0.7,5.1-4.9,6.1c-12.3,3-24.7,6.3-36.9,9.4
			c-1.5,0.3-4,0.5-3.6,2.1c0.5,2.1,3,1,4.3,0.3c8.9-3.8,16.1-2.5,24,3.8c14.8,11.5,32.1,18.1,50.9,21.1c1.3,0.2,2.8,1,4.1-0.3
			c-0.8-1.5-2.3-1.3-3.6-1.6c-19.6-2.6-36.9-10.7-52.8-21.9c-0.3-0.2-0.7-0.5-1-0.7c-1.2-1-2.6-2-2.3-3.8c0.3-1.5,2.1-1.8,3.5-2.1
			c8.7-2.1,17.4-4.1,26.2-6.1c6.7-1.5,13.5-2.6,20.2-4.1c3.8-0.8,6.4,0.2,9.1,2.8c8.7,9.2,17.9,17.9,28.8,24.7
			c6.9,4.3,14.2,8.1,21.9,10.9c1,0.3,2,0.8,3.1,0.5c-0.5-1.5-1.8-1.6-3-2.1c-15.1-5.9-28.6-14.5-40.5-25.5c-2.8-2.6-5.4-5.3-7.9-8.1
			c-0.8-1-2.1-2-1.6-3.3c0.5-1.5,2.1-1.6,3.6-1.8c6.9-1,13.8-1.8,20.7-2.5c15-1.5,30-2,44.9-1.5c20.1,0.5,40,3,59.8,6.6
			c1.8,0.3,3.5,1.2,5.6,0.5c-0.8-1.6-2.3-1.6-3.6-1.8c-14.8-2.8-29.6-5.1-44.6-6.3c-9.5-0.7-19.1-0.8-28.6-1.5
			c-3.6-0.2-7.2,0.8-10.9,0.8c-5.1-0.2-5.9-1.3-4-5.9c5.1-11.2,13.5-18.8,24.7-23.5c1.2-0.5,2.8-0.5,3.5-2.1
			c-1.2-1.2-2.1-0.5-3.3-0.2c-13,4.4-22.2,13.3-27.3,25.8c-1.6,4.1-4,6.1-8.2,6.3c-8.2,0.3-16.3,1.3-24.4,2.1
			c-3.3,0.3-3.8-1.8-4.4-4.3c-2.1-9.9-0.3-19.3,4.1-28.1c0.7-1.2,1.5-2.1,1.6-3.5c0-0.3,0-0.5-0.3-1c-1.6,0-2.1,1.5-2.8,2.6
			c-4.9,8.6-6.6,17.6-5.1,27.3c1.2,7.7,1.2,7.7-6.7,8.9c-8.4,1.3-16.6,2.8-24.9,4.3c-5.3,1-6.3,0.2-5.8-5.3
			c1.3-16.3,5.3-31.9,14.3-45.9c7.6-4.3,15-8.7,22.4-13.3c1.2-0.8,2.1-1.8,3.3-2.6c1.3,0.3,0.2,2,1.2,2.5c0.7,2.6,0.3,6.6,2.6,7.4
			c1.6,0.7,4-3,5.3-5.1c4.1-7.6,10.2-8.9,17.8-6.3c2.1,0.7,4.6,0.8,7.2,1.3c-4.4,9.7-9.2,19.3-7.7,30.3c1.5,0.2,1.6-1,2.1-1.6
			c6.4-10,15.3-17,26.2-21.9c1.5-0.7,2.8-1.2,4.4-0.7c18.6,6.1,36.4,14.2,53.2,25.4c-5.9,3.6-10.5,7.9-13.3,15.3
			c8.2-3.1,16-3.1,23.9-2.8c4.4,0.2,8.4,1.3,11.9,4.6c7.6,7.2,14.8,14.8,20.9,23.5c1.8,2.5,1.5,3.8-1.5,4.9
			c-11,4.6-21.9,9.4-32.8,14.2c-1.2,0.5-2.3,0.8-3.6,0.2c-4.8-2.6-10-4.3-15.3-5.6c-8.1-2.1-16.1-3.1-24.5-4.3c0,2,1.6,2.8,2.6,3.6
			c5.8,4.9,11.7,9.9,17.6,14.7c1.5,1.2,1.6,1.8-0.3,3c-28,14.8-55.3,30.9-84.1,44.1c-4,1.8-8.1,3.3-12.2,5.3c-2.5,1.2-3.8,0.8-4.9-2
			c-4.4-10.2-9.1-20.2-13.7-30.5c-0.5-1.2-0.7-2.5-2.1-3.3c-3.1,6.4-4.3,13.3-4.9,20.2c-0.5,6.6-0.8,13.2,0.5,19.8
			c0.5,2.6-0.5,2.6-2.6,2.1c-38-8.2-66.3-28.5-81.2-65.5c-0.2-2,1.6-2.1,2.8-2.8c2.1-1.3,4.4-2,6.6-3c1.2-0.5,2.6-1.2,2-2.8
			c-0.7-1.5-2.1-1-3.3-0.5c-1.5,0.7-3,1.3-4.6,2C553.6,424.5,552.6,425.2,551.5,424.4z"/>
		<path class="st4" d="M515.8,341.2c-0.7,2.5-3.1,3-4.8,4.1c-7.1,4.6-14.5,8.9-21.1,14.5c-1.2-1-1.2-2.3-1.2-3.6
			c-0.5-11-1.2-21.9-2.3-32.9c-2.8-28.3-7.7-56.5-15.5-84c-6.6-23.4-14.5-46.1-24.4-68.3c-0.7-1.5-1.3-3.1-2.3-4.4
			c-0.5-0.8-1.2-2-2.5-1.5c-1.5,0.7-1.2,2-0.7,3c1.8,4,3.5,8.1,5.3,12.2c16.3,37.5,27,76.7,33.3,117c2.1,14.2,3.6,28.5,4.3,42.8
			c0.7,12.3,0.8,24.9,1.3,37.2c0,1.8,0.7,4-1.6,5.1c-2-1.8-1-4.3-1.3-6.6c-0.2-2,0.2-3.8-0.2-6.3c-5.8,8.6-8.7,17.8-9.4,27.7
			c-0.5,8.2,0.5,16.3,4.6,23.5c0.5,0.8,1.2,1.8,0.3,2.8c-5.4,1.8-10.4,0-15.5-1.5c-20.6-6.7-29.5-26.7-24.5-47.6
			c1.6-7.1,4.3-13.8,6.9-20.6c1.8-4.6,3.8-9.1,5.4-13.7c1.6-4.4,2.5-8.9,2-13.7c-1.3-6.3-4.8-11.4-8.2-16.6
			c-4.8-7.1-10-13.8-13.2-21.9c-3.8-10-3.3-20.1-0.3-30.1c0.3-1,0.8-2,1.6-2.5c5.4-13.5,6.3-26.8,0-40.5c-5.6-12.2-9.7-25-13.3-37.9
			c-3.5-12,2.8-25.2,13.7-30.3c6.7,0.3,11.4,4.6,15.6,8.9c4.4,4.4,7.7,10,10.5,15.6c2.5,4.8,5.1,9.5,7.7,14.3
			c4.3,7.9,10.9,13.3,18.4,17.8c7.1,9.5,14.8,18.4,20.7,28.8c0.2,6.7-2,13.2-3.3,19.8c-1.5,7.6-3.1,15.1-4,22.9
			c-1.2,10.9,1.3,21.2,5.4,31.4c3.5,8.4,7.7,16.6,10.4,25.5C515.1,334.8,515.3,338.1,515.8,341.2z"/>
		<path class="st5" d="M582.6,501.2c-0.3,1.3-0.7,2.5-1,3.8c0.3,2.1-0.2,4-2.3,4.9c-5.6-0.2-11,1.3-16.6,0.8c-1.5-0.2-3,0.2-4.3-0.2
			c-7.2-1.6-6.7,0.5-8.9,5.6c-1.3,3.3-2.6,6.7-4,10.2c-1,2.6-2.6,3.6-5.4,3c-4.6-0.8-9.2-1.8-13.8-1.5c-5.6,0.3-11.4,0.7-13.8,7.2
			c-0.7,1.8-2.3,1.3-3.6,0.8c-2.8-1.2-5.3-2.6-7.7-4.4c-2.3-1.8-4.9-3.5-7.6-4.8c-4.1-2-7.9-0.3-9.4,3.8c-0.7,1.8-1.5,3.1-3.3,4
			c-3.6,1.6-5.1,4.9-4.3,9.1c0.8,4,2.5,7.6,5.1,10.7c1.2,1.3,1.8,2.6,1,4.6c-2.1,4.4-0.7,8.1,2.5,11.4c1.2,1.2,2.5,2.3,3.1,4
			c0,7.4,4.1,12,10.4,15.3c1.3,0.7,3,1,3.1,3c-1,1-2.3,1-3.6,0.8c-17.6-1.8-33.6-7.6-46.8-19.9c-7.9-7.4-13.8-16.5-19.4-25.5
			c-7.7-12.5-14.7-25.7-24-37.2c-8.2-10.2-18.1-18.4-30.3-23.7c-1.3-0.7-3-1-3.6-2.6c-0.7-3.5-0.7-6.9-0.3-10.4
			c0.8-6.3,0.5-12.7,0.7-18.9c-0.3-4,0.7-7.9,0.8-12c0.2-2.6,1.6-4,4.3-4c3.1-0.2,6.3-0.2,9.2,0c16.1,1.2,32.4,2.1,48.6,4.1
			c4,0.8,7.9,1,11.9,1.6c2.1,1,4.6-0.2,6.6,1.6c0.5,0.3-0.3,1.2,0,1.2c9.1,1.8,16.6,6.7,24,12c6.1,4.4,11.2,9.9,16.1,15.6
			c13.2,15.3,28.6,26.8,48.6,31.4c4.4,1,6.3,2.1,8.4-3.8c0.2-0.3,0.5-0.7,0.8-0.8c0.3-0.2,0.8-0.3,1.2-0.3
			c7.9,0.5,15.6,0.7,23.5-0.8C579.8,500.2,581.4,499.9,582.6,501.2z"/>
		<path class="st6" d="M579.5,509.8c0.7-1.5,1.5-3.1,2.1-4.6c6.9,8.1,10.4,17.6,12.7,27.8c3.1,13.8,2.6,27.7-2.8,41
			c-4.9,12.3-14.2,19.6-26.8,22.9c-4.9,1.3-10,2.5-15.1,2.5c-1.6,0-3,0.8-4.3,1.5c-14.2,1-27.8-1.3-41-6.4c-1.2-0.5-2.1-1-2.6-2.1
			c-2.8-1.8-5.8-3.3-8.4-5.3c-4-3-6.3-6.9-5.6-12.2c1.8-0.7,2.8,0.8,4.1,1.5c5.6,3.6,11.9,5.8,18.4,6.9c2,0.3,3.8,0.3,5.8,0.2
			c0.8,0,1.6-0.2,1.6-1.2c0-1-1-1.2-1.6-1.3c-0.8-0.2-1.5-0.2-2.3-0.3c-10-1.3-19.3-4.3-26-12.2c-0.5-0.7-1.2-1.2-1.5-1.8
			c-1.3-1.8-2.6-4-0.7-5.9c1.8-2,3.6-0.2,5.3,0.8c6.6,4.3,14,6.7,21.6,8.4c2,0.3,5.4,1,5.6-0.7c0.3-2.5-3.1-1.8-4.9-2.1
			c-9.2-2-17.9-5.3-25.2-11.2c-4.1-3.5-7.7-7.4-8.1-13.2c-0.2-2.1-0.2-4.3,2.1-5.3c2.3-1,4,0.3,5.4,2c7.4,9.1,17.8,13,28.3,16.6
			c1,0.3,2.5,1.2,3.1-0.3c0.7-1.6-1-2.1-2.1-2.5c-5.3-1.5-10.2-3.8-15.1-6.1c-4.6-2.3-8.4-5.4-11.7-9.4c-1.6-2-3.8-4.3-2-7.2
			c1.2-2,4.4-1.6,7.7,0.7c4.4,3.1,9.1,6.1,14,8.4c6.4,3,13.2,4.8,20.2,4.3c1.6-0.2,4.4,0.2,4.3-2c-0.2-1.8-2.8-1.2-4.3-1.3
			c-1.8-0.2-3.6,0-5.4,0c-1,0-2.1,0-3.1-0.5c-2.3-0.8-4.6-2-4.4-4.8c0.2-3,3-3.5,5.1-3.6c7.6-0.5,15.3-0.3,22.7,2
			c6.4,2,12.5,4.9,17.9,9.1c3.5,2.6,3.6,2.5,4.6-1.8c1.3-5.6,4-10.7,5.8-16c1.5-4,3.3-7.9,4.4-12
			C577.7,511.6,578.1,510.3,579.5,509.8z"/>
		<path class="st1" d="M501.6,592.1c13.3,5.6,27.3,8.1,41.8,7.7c0.8,0,1.6-0.2,1.8,0.8c-10.2,26.7-20.4,53.5-30.3,80.3
			c-1.5,4-3.3,4.9-7.2,4.3c-7.4-1.2-14.8-1.8-22.2-2.8l-0.2-0.2c-0.5-3,1.2-5.4,2.1-8.1c8.9-23.2,17.6-46.4,26.5-69.6
			c1.5-4.1,1.3-4.4-3.1-4.3c-10.9,0.2-21.7-0.8-32.3-4c-19.8-5.9-35.1-17.9-46.6-34.7c-8.6-12.3-15.3-25.8-23.9-38.2
			c-8.2-11.9-17.8-22.2-30.9-28.6c-1.6-0.8-3.1-2-3.3-4c0-2-0.5-4,1-5.8c8.9,2.8,16.6,7.7,23.4,13.8c11.7,10.4,19.6,23.5,27.5,36.7
			c7.2,12.3,14.2,25,24.5,35.2c12.3,12.2,27.3,18.8,44.4,20.7C497,591.6,499.3,592.4,501.6,592.1z"/>
		<path class="st5" d="M556.7,470.9c2.3,1,4.8,2.1,7.1,3.1c1,1.2,0.7,2.5,0.3,3.6c-2.6,7.2-5.6,14.5-8.4,21.7
			c-0.5,1.2-1.2,2-2.1,2.6l0,0c-1.2,1.2-2.6,0.7-4,0.5c-15.3-2.8-28.5-9.7-39.7-20.6c-7.1-6.9-13.5-14.7-20.7-21.6
			c-2.3-2.1-4.6-4.4-7.2-6.4c-1-0.7-2.6-1.5-2.1-3c0.7-1.6,2.5-0.8,3.8-0.8c2.8,1,5.8,1.2,8.7,1.6c2,0.7,4,1.3,6.1,1.6
			c5.3,0.7,10.2,2.3,15.3,3.5c1.8,0.7,3.8,1.2,5.8,1.6c10.9,2.8,21.6,5.8,32.1,9.5C553.5,468.8,555.1,469.8,556.7,470.9z"/>
		<path class="st7" d="M680.9,287.4c-1-5.1,0.5-10,1.3-15.1c2.3-14.2,9.4-25.8,19.3-36.2c10-10.5,20.4-20.7,27.3-33.7
			c3.6-7.1,5.6-14.3,5.1-22.2c9.9,7.4,13.3,21.6,8.4,34.4c-2.8,7.4-7.9,13-13.8,17.9c-4.4,3.6-8.9,7.1-13.5,10.5
			C699.3,254.3,687.6,269,680.9,287.4z"/>
		<path class="st8" d="M541.1,203.4c0.7-4.9,1.3-10,1.8-15c0.3-2.3,0.8-4.4,3.5-4.1c2.8,0.3,2.8,2.6,2.5,4.8
			c-0.5,4.8-1.5,9.7-1.5,14.7c-1.2,8.2-2.5,16.6-3.6,24.9c-4.6,35.4-10.9,70.6-17.8,105.7c-1.8,2.1-3.5,4.9-6.9,4.6
			c5.6-27.5,10.7-55,14.7-82.6c2.5-16.6,5.6-33.1,6.4-49.9C540.5,205.4,540.8,204.4,541.1,203.4z"/>
		<path class="st1" d="M513.9,331.8c-3.8-6.3-6.1-13.3-9.2-19.9c-5.3-11.2-8.9-22.9-7.9-35.4c0.8-9.5,2.8-19.1,4.9-28.5
			c1.2-5.3,1.5-10.5,3.5-15.6c7.6,12.3,9.9,25.7,6.1,39.5c-4.9,18.1-2.5,35.6,1.3,53.2C513.3,327.2,513.6,329.5,513.9,331.8z"/>
		<path class="st1" d="M484.8,203.6c-7.4-2.1-12.5-7.2-16.8-13.5c-4.8-6.9-8.2-14.5-12.2-21.9c-5.3-9.9-12.3-17.6-23.4-21.2
			c2.1-1.3,4.6-1.5,7.1-1.8c15.5,1,28.6,11.4,33.4,26.7c2,5.9,3.6,12,5.6,18.1C480,194.7,482,199.3,484.8,203.6z"/>
		<path class="st1" d="M553.6,502.1c3.3-8.4,6.6-16.6,9.7-25c0.3-1,0.3-2,0.5-3c8.1,2.5,15.8,6.3,23.5,9.5c1.6,0.7,1.6,1.6,1,3
			c-2,4.9-4,9.7-5.8,14.7c-6.1,0.2-12.2,1.8-18.3,1.5C560.7,502.7,557.1,502.7,553.6,502.1z"/>
		<path class="st9" d="M556.7,470.9c-12.5-4-24.9-7.7-37.4-11.7c-0.3-1,0-1.8,0.5-2.5c4.8-5.9,9.7-11.7,15.8-16.1
			c0.7-0.5,1.5-1.2,2.5-0.7c4.4,9.1,10.4,17.1,15.5,25.7C554.4,467.3,555.6,469.1,556.7,470.9z"/>
		<path class="st8" d="M538.1,439.8c-7.2,5.4-13.5,11.9-18.8,19.4c-2.1,0-4-0.3-5.6-1.6c-0.3-1,0-1.8,0.5-2.5
			c3.6-4.8,6.9-9.9,12.3-13c0.7-0.5,1.3-1,2-1.2c9.7-2.6,16.6-9.2,22.9-16.5c2.8-1.2,5.4-2.1,8.2-3.5c1.8-0.8,3.5-0.5,4.3,1.2
			c1.2,2.1-0.5,3.1-2,3.8c-3.5,1.8-7.6,2.8-10.7,5.3C546.5,433.4,542.3,436.5,538.1,439.8z"/>
		<path class="st10" d="M375,484.8c-0.2,2.1-0.2,4.3-0.3,6.6c1,8.7,1,17.4,0.2,26.2c-0.2,0.8-0.2,1.8-0.2,2.6
			c0.5,12.8-1.2,25.7-0.8,38.7c0.2,4.4-0.7,8.7-1.2,13c-1,2.1-2.8,1.5-4.4,1.3c-9.9-1.3-19.6-3.8-29.3-5.9
			c-21.1-4.6-42-10.4-61.9-19.3c-11.4-5.1-22.4-10.9-32.3-18.4c-1.3-1-3-1.8-3.3-3.6c1.6-2.8-0.8-4-2.3-5.3
			c-16.3-14.3-27.3-31.9-31.3-53.7c-4.3-23.2-3.3-46.3,2.6-69.1c0.2-0.8,0.5-1.8,0.7-2.6c0.7-1.8,1-3.8-1.5-4.4
			c-2.5-0.7-3,1.5-3.5,3.3c-2.8,9.9-5.3,19.8-8.7,29.3c-2.3,6.6-4.9,13-9.2,18.8c-6.4,8.4-14.5,13.5-25.8,13
			c-19.3-0.8-38.5-0.2-57.8,1c-6.1,0.3-12,1.3-18.1,2c-1.6,0.2-3.3,0.8-3-2.1c3.8-30.6,9.9-60.7,20.9-89.7
			c17.3-45.4,44.4-83,85.9-109.6c27.8-17.8,58.3-28.1,90.4-34.4c1-0.2,2.1-0.7,3,0.3c5.8,7.6,14.3,9.1,22.7,9.9
			c15.3,1.5,30.5,0.5,45.4-3.3c3-0.8,5.3-2.1,6.3-5.1c0.3,1,0.8,1.3,2,1.6c25.5,5.6,49.4,15,71.3,29.3c0.2,0.2,0.5,0.2,0.8,0.2
			c-4.9,14.8-4.1,29,4.8,42.1c2.8,4.1,5.4,8.1,8.2,12.2c3.5,4.9,6.6,10.2,8.1,16.1c-1.8,1.2-2.8-0.5-4-1.3
			c-7.1-5.3-14.3-10-22.1-14.7c-2.6-1.5-4.3-1.8-5.6,1.3c-0.8,2-2.3,3.5-3.6,4.9c-0.8,1-2,1.8-3.5,1.3c-1.3-0.5-1.6-1.6-1.8-2.8
			c-0.3-2.8-1-5.6-1-8.6c0.2-2.8-1-4.8-3.8-5.6c-1.8-0.7-3.6-1.3-5.4-2.1c-2.6-1.2-3.8-0.2-4.1,2.6c-0.7,5.1-2,10.2-3.6,15.1
			c-0.8,2.1-1.8,4.3-3.1,6.3c-0.7,1-1.3,2.3-2.6,1.8c-1.2-0.5-1.2-2-1.2-3.1c0.2-3.3-0.5-6.4-1-9.7c-1-6.3-3.1-12-6.4-17.4
			c-1-1.6-2.3-2.6-4.3-3c-9.2-1.8-18.8-2.5-28.1-3.1c-4.8-0.3-9.5,1-14.3,0.8c-2-0.2-2.8,0.8-2,3c1.3,3.5,1.6,7.1,1.3,10.7
			c-0.2,1.3,0,2.8-1.5,3.3c-1.5,0.5-2.5-0.5-3.3-1.5c-4.1-4.4-8.9-7.7-14.5-10.2c-2-0.8-3.8-1.3-5.9-0.8c-8.4,2.1-16.6,5.1-24.4,9.1
			c-4.6,2.3-4.8,3.1-2.1,7.4c4.4,7.2,9.1,14.2,13.3,21.4c1.2,2,2.8,2.8,5.1,3c9.9,0.5,18.9,4.3,27.8,7.9c1,0.5,2.5,0.8,2.1,2.3
			c-0.2,1.3-1.5,1.8-2.6,2.1c-5.3,1.5-10.5,2.5-15.8,3.6c-4.9,1.2-4.9,1.2-2.6,5.8c11.9,23.9,23,48.1,37,70.9
			c6.4,10.7,5.1,8.4,12.8,2.5c5.9-4.6,11.7-9.4,17.6-14c1.2-1,2.5-2.5,4.1-1.5c1.5,1,0.8,2.8,0.3,4.3c-2.6,10.2-7.4,19.6-13.2,28.3
			c-2.5,3.6-2.5,3.6,2,4.9c2.1,0.7,4.6,0.7,6.4,2.6C375.5,464.7,375.2,474.7,375,484.8z"/>
		<path class="st6" d="M241.5,525.9c30.5,23.2,66.2,33.4,102.7,41.3c9.2,2,18.3,4.6,27.7,5.1c1.3-1,3-1,4.4-0.7
			c4.6,0.8,9.2,0.7,14,0.5c13.7-0.5,27.3,1,41.2,1c5.3,0,10.9,0.7,15.1,4.8c4.3,4,3.6,8.4-1.6,10.5c-3,1.2-6.3,1.6-9.5,1.6
			c-3.8,0-7.6-0.3-11.2,0.7c-1.2,0.3-2.6,0-3,1.5c-0.2,1.3,1.2,2,2,2.6c4.9,3.8,10.2,6.6,15.8,8.9c9.4,4,19.4,6.4,28.5,11.4
			c1.3,0.7,2.6,1.2,3.6,2.1c1,1.2,1.5,2.8,2,4.1c2,4.3,0.2,7.6-4.8,8.2c-5.1,0.7-10-0.5-14.8-2.3c-7.4-2.8-14.5-6.1-21.2-10.2
			c-0.7-0.3-1.3-0.8-2.1-1c-0.5-0.2-1-0.2-1.3,0.3c-0.3,0.5-0.2,1,0.2,1.5c0.7,0.8,1.5,1.5,2.3,2c8.9,4.8,17.6,9.9,27.7,12.2
			c3.5,0.8,6.7,1.5,10.4,0.8c3-0.5,4.3,1,4.3,4c-0.2,3.5-2.6,6.4-6.6,7.2c-3.3,0.7-6.6,0.5-10-0.3c-12.2-2.8-23-8.4-33.7-14.7
			c-1.3-0.7-3-2.6-4-1.3c-1.3,2.1,1.3,3,2.6,3.8c9.4,5.4,18.9,10.7,29.5,13.7c0.8,0.2,1.5,0.5,2.1,0.8c0.8,0.3,1.8,0.7,1.8,1.8
			c0,1-0.8,1.6-1.6,2c-3.8,1.8-7.7,1.8-11.9,1.3c-11.2-1.5-21.1-5.9-30.5-12c-1.5-1-3.6-3.5-4.8-1.5c-1.2,1.8,2,2.8,3.5,3.8
			c5.9,4.3,12.5,7.2,19.4,9.5c2.5,0.8,5.1,1.3,7.2,2.8c0.3,0.3,0.3,0.7,0.2,1.2c-2.1,0.8-4.3,1.6-6.3,2.5c-3.8,2.8-8.2,2.1-12.3,1.2
			c-17-4-32.3-11.4-46.3-21.6c-0.8-0.7-1.5-1.5-2-2.3c-4.6-4.4-10.2-7.2-16.5-9.2c-14-4.3-28.5-5.9-43.1-7.2
			c-37.2-3.3-73.1-12.3-106.7-28.3c-49.2-23.2-78.5-62.7-90.2-115.4c-0.8-3.6-1.5-7.4-2.3-11c-0.5-2.1,0-2.8,2.5-3
			c22.6-1,45.1-0.8,67.5-0.3c5.3,0.2,10.5,0.5,16,0.3c3.1,0,4.3,0.8,4.9,4.1c3.8,24.2,15.6,44.1,34.1,60.1
			C237.9,526.3,239.4,527.7,241.5,525.9z"/>
		<path class="st6" d="M300.3,119c7.4-1.5,15-3,22.4-4.4c2.3-0.5,2.3,0.8,2.5,2.3c0.5,6.3,2.5,12.2,6.1,17.3
			c5.4,7.7,12.7,11.7,22.4,9.7c9.4-2,14.3-8.4,16.5-17.1c1.6-6.4,1.3-13-0.8-19.1c-1.2-3.6,1.3-3.1,3.1-3.5c1.8-0.5,3.8-1.3,4,2.1
			c0.2,9.4,3.1,17.9,7.9,26c2,3.3,1.3,6.3-1.6,8.6c-1.5,1.2-3,2.1-4.4,3c-1.5,0.8-2.1,2-1.3,3.5c0.8,1.6,2.1,1.5,3.6,0.8
			c8.9-3.5,11.9-10.9,7.6-19.6c2.8,0.5,5.1,1.6,7.7,1.5c1.5-0.2,1.3,1.3,1.3,2.3c0.7,12.8-0.2,25.4-5.3,37.4
			c-7.9,18.6-25.2,24.4-43.5,22.7c-10.2-1-19.4-5.1-28.1-10.2c-0.7-0.3-1.3-0.8-2-1.2c-1.6-1-3.5-2.6-5.1-0.3
			c-1.6,2.6,0.8,3.6,2.6,4.6c3.5,2,7.1,3.8,10.5,5.9c10.2,6.1,19.1,13.3,24.5,24.2c4,8.1,3.3,9.2-5.1,10.7c-14.8,2.6-29.8,4-44.8,1
			c-1.8-0.3-3.8-1-5.6-1.6c-6.7-2.6-8.2-4.6-7.9-11.7c0.7-21.6,0.3-43,0-64.5c0-1,0-2.1-0.2-3.1c-0.2-1.3-1-2.1-2.3-2.1
			c-1.5,0-2.3,1-2.5,2.5c0,1.3,0.2,2.6,0,4c-0.2,2,1,4.4-1.8,5.8c-3,1.3-5.4,1-8.1-0.7c-5.1-3.3-8.2-11.4-6.7-17.9
			c0.7-3,1.8-5.6,4-7.9c4.3-4.4,9.9-4.6,14.5-0.3c0.8,0.8,1.5,1.8,2.3,2.6c1,1.3,2.1,2,3.6,1c1.6-1.2,1.3-2.6,0.3-4
			c-0.3-0.5-0.8-1-1.2-1.6c0.2-0.5,0.3-1.2,0.8-1.3C293.9,124.4,296.7,121.1,300.3,119z"/>
		<path class="st5" d="M471,617.9c-11-6.1-23.4-9.1-34.7-14.2c-5.6-2.6-11.2-5.4-15.8-9.7c-0.8-0.8-2.3-1.3-1.8-2.6
			c0.3-1.2,2-1,3.1-1.3c4.9-1.2,10-1.2,15.1-1.2c2.8,0,5.4-0.2,7.9-1.3c4.6-2,5.1-5.8,1.3-9.1c-2.5-2-5.4-3-8.6-3.5
			c-9.7-1.5-19.4-1-29.1-1.3c-12.2-0.3-24.4,0.2-36.4-1.3c0.8-26.5,1.6-53,2.5-79.7c0-0.5,0.2-1,0.3-1.5c2.5,3,6.4,3.8,9.4,5.8
			c8.7,5.9,16.1,13.3,22.2,21.9c9.5,13.2,16.8,27.8,26,41.3c12.5,18.3,29,30.8,50.5,35.9c9.9,2.3,19.9,3.1,30,2.8
			c2.6,0,4,0.3,2.6,3.5c-9.7,25.5-19.4,51.2-29.1,76.7c-0.3,1-0.8,1.8-1.3,2.8c-10.2-0.5-20.1-3.1-30.1-4.1
			c-7.1-0.7-11.7-3.1-12.8-10.9c-0.7-4.3-3-8.4-5.3-12.3c0.2-0.2,0.2-0.5,0-0.7c3.3-1.2,6.6-0.2,9.9-0.3c5.1,0,9.4-1.2,12.8-5.1
			c1.3-1.5,3-1.8,4.9-2c9.5-0.7,13.2-5.3,11.4-14.5c-0.5-2.1,0.2-4.1,0.7-6.1C478.1,621.4,476.3,618.6,471,617.9z"/>
		<path class="st6" d="M304.1,112.7c4.6-10.4,7.4-21.6,14-31.1c12.5-17.9,35.2-25.2,54.3-17.1c-0.3,1.8,0.8,3,1.6,4.1
			c3.1,4.4,6.1,8.9,8.6,13.8c0.7,1.2,1.2,2.1-0.3,3.3c-3.5,2.6-4.9,6.6-5.8,10.7c-0.3,1.8-1.2,2-2.6,2.5c-5.4,1.6-8.7,0.5-12.2-4.6
			c-4.4-6.6-11.5-9.9-19.6-7.9c-8.9,2.1-14.2,8.6-16,17.1c-1,4.8-3.1,6.4-7.6,6.9C313.8,110.9,309,111.9,304.1,112.7z"/>
		<path class="st6" d="M329.7,112.9c0.3-6.7,1.8-13,6.7-17.8c5.3-5.1,11.5-5.6,17.6-1.5c10.7,7.2,15.3,26,9.1,37.4
			c-5.1,9.5-17.6,11.4-25.4,3.5C332,128.4,330.2,120.8,329.7,112.9z"/>
		<path class="st5" d="M370.2,634.7c9.5,6.3,18.9,12.5,29.5,16.8c6.1,2.5,12.2,4.8,18.8,6.1c4.1,0.8,8.2,0.7,12.3-0.2
			c0.3,4.6,3.3,8.2,4.3,12.7c0.3,1.3,1.6,2.8,0.7,4c-1,1-2.5-0.2-3.6-0.5c-20.1-4-39.5-9.5-58.9-16c-2.8-1-3.8-2.1-3.8-5.3
			C369.6,646.6,369.4,640.7,370.2,634.7z"/>
		<path class="st11" d="M386,88.9c1.8,4.3,3.1,7.9,4.8,11.9c-3.6-0.5-6.1,0.7-6.6,4.1c-0.3,3,0.3,5.6,3.1,6.9
			c2.6,1.3,4.3-0.5,5.9-2.8c1.5,4.8,2.1,9.4,3,13.8c0.3,2-0.5,2.3-2.1,2c-3-0.5-5.3-2-7.2-4.1c-5.8-6.3-7.6-21.2-3.3-28.6
			C384.1,91.2,384.9,90.4,386,88.9z"/>
		<path class="st2" d="M401.4,123.4c-2.1-12.7-5.3-24.2-10.5-36.1c7.7,1.8,11.2,6.9,13.5,13.2C407.1,108.3,408.4,115.9,401.4,123.4z
			"/>
		<path class="st12" d="M300.3,119c-2.5,4.4-6.7,6.3-11.2,8.1c-1.6-1.6-3.5-3.5-6.7-5.1C289.1,120.8,294.7,119.8,300.3,119z"/>
		<path class="st13" d="M225.7,127.6c2.3-12.3,8.4-22.1,20.4-27.2c6.9-3,13.7-5.8,19.3-11.2c4.1-4,6.7-8.9,8.9-14
			c4.8-11.4,11.2-21.4,20.9-29.3c1.3-1.2,2.8-2.5,4.3-0.8c1.8,1.8,0.5,3.5-1,4.6c-10.2,7.6-15.6,18.4-20.6,29.5
			c-5.3,11.7-13.8,19.4-25.5,23.9c-11.5,4.3-19.1,11.9-21.4,24.4c-0.3,1.8-1,3.6-3.5,3.3C225.9,130.2,225.7,128.9,225.7,127.6z"/>
		<path class="st13" d="M248.3,148.6c0.2,2-1.3,2.3-2.3,3c-4.3,2.1-8.6,4.1-12.3,7.2c-6.6,5.4-9.2,12.8-11,20.9
			c-1.6,7.1-3.8,14-9.4,19.1c-1.6,1.5-3.6,2.5-5.4,3.6c-1.3,1-2.8,0.5-3.8-0.8c-1.2-1.5,0-2.6,1-3.1c9.1-4.4,11-13,13-21.7
			c3.3-14.5,11.9-24.4,25.8-29.6C246,146.2,247.4,146.5,248.3,148.6z"/>
		<path class="st13" d="M144.9,219.1c1.3-5.3,3.3-11,7.1-15.8c3-3.8,6.4-7.4,10.9-9.7c1.5-0.8,3.5-3,4.9-0.3
			c1.3,2.3-0.7,3.5-2.3,4.4c-2.1,1.3-4,3-5.8,4.6c-5.1,4.6-8.1,10.2-9.5,16.8c-0.2,0.7-0.5,1.2-0.7,1.8c-0.3,1.5-1.2,2.3-2.8,2.1
			C145,222.7,144.9,221.4,144.9,219.1z"/>
		<path class="st14" d="M483.3,450.7c-0.8,0.8-2-0.3-3.3,0.5c3.8,3,7.4,5.9,10.7,9.2c7.1,7.4,13.8,15,21.2,22.1
			c11.7,11,25.5,17.6,41.6,19.6c-2,7.1-2.1,7.1-9.1,5.4c-20.2-4.6-36.1-16.1-49.2-31.6c-10.9-12.8-23.4-22.7-39.5-28
			c-0.3-0.2-0.7-0.3-1-0.3c0.3-0.2,0.5-0.5,0.8-0.7c2-1.5,4.1-0.7,6.3-0.2c1.5,0.3,3,1,4.6,0.8c2,0.2,3.8,0.8,5.6,0.8
			c4.6,0.7,4.6,0.7,5.4-3.8c0.8-4.3,1-8.6,1.8-12.8c0-1.8,0.2-3.6,0.5-5.3c1-12.7,2.5-25.4,2.6-38.2c0-2-0.5-4.1,1.5-5.8
			c1.2-4.8,0.8-9.9,0.3-14.7c-0.5-5.1-0.3-10-0.5-15.1c-0.7-17-2.3-33.6-4.4-50.4c-2.8-21.7-7.7-43.1-13.5-64.2
			c-6.4-23.2-14.8-45.8-24.7-67.7c-0.2-0.5-0.5-1-0.7-1.3c-1-2-1.8-4.1,0.7-5.4c2.6-1.5,3.6,0.7,4.6,2.6c3.6,8.2,7.4,16.5,10.7,24.9
			c8.7,22.7,16,45.8,21.4,69.5c3.6,16.1,6.3,32.3,8.4,48.7c2.1,16.8,3.5,33.6,4,50.5c-0.3,12,0.2,24-0.7,36.1
			c-0.7,12.2-1.8,24.2-3.1,36.2C487.3,438.7,486.5,444.9,483.3,450.7z"/>
		<path class="st15" d="M497.8,454.5c-1.8-0.8-4.3-0.3-5.8-2.1c-1.2-2,0-3.8,0.3-5.6c0.7-3,1.6-5.8,2.1-8.7c3,0.7,4.1-1.2,5.3-3.6
			c20.6-47.2,47.7-90.5,81.2-129.9c37.5-44.1,81.2-81.2,130.9-111.1c0.5-0.3,1.2-0.7,1.6-1c1.8-1,3.6-1.2,4.8,0.8
			c1,1.8-0.2,3.1-1.6,4.1c-4.3,2.6-8.6,5.3-12.8,8.1c-26.5,16.8-51.2,35.9-74.4,57.3c-33.4,30.9-62.4,65.5-86.8,104
			c-14.5,22.7-27.2,46.4-37.9,71.3c-0.3,0.8-0.5,1.6-0.8,2.6C502.8,445.6,500.6,450.2,497.8,454.5z"/>
		<path class="st16" d="M655.4,341.2c-6.4,5.9-13.8,9.9-21.7,13.3c-1.8,2-4.1,3.5-6.9,3.6c-14.3,5.8-27.8,13.2-40.2,22.7
			c-5.6,4.3-10,9.9-15.1,14.8c3.6-8.4,8.9-16,14.3-23.4c10.4-14,24.4-21.9,41.3-25C636.6,345.5,646,343.2,655.4,341.2z"/>
		<path class="st9" d="M497.8,454.5c1.6-4.8,3.5-9.5,5.9-14c6.7,2.1,13.7,2,20.7,1.3c0.8,0,1.5-0.5,2.1,0.2
			c-4.6,4.9-9.4,9.7-12.8,15.5C508.2,457.4,503.2,454.8,497.8,454.5z"/>
		<path class="st9" d="M494.5,438c1.3,1,0.7,2.3,0.3,3.5c-1,3.6-1.8,7.2-2.8,10.7c-3.1,0.5-5.9-0.2-8.7-1.5c1-6.3,2-12.3,2.8-18.6
			C488.9,434.4,492.2,435.4,494.5,438z"/>
		<path class="st8" d="M626.7,358.2c2-1.6,4.6-2.5,6.9-3.6c-2.3,5.9-5.9,11.2-7.9,17.1c-3.5,9.9-5.4,20.1-6.1,30.6
			c-0.2,2.6,0.5,3.3,3.3,2.6c10-2,20.2-3.8,30.5-5.4c2.3-0.3,3-0.7,2.3-3.3c-2.3-11.2-1.2-22.1,4.9-32.1c0.3-0.5,0.7-1.2,1-1.6
			c0.8-1.3,2-2.8,3.8-1.5c1.6,1.2,0.8,2.6,0,3.8c-2.5,3.5-4,7.6-5.1,11.7c-2,6.7-1.8,13.5-0.2,20.2c0.3,1.3,0.8,2.1,2.3,1.8
			c9.2-1.6,18.4-1.8,27.7-2.8c2.3-0.3,3-1.2,3.6-3.1c5.4-14.5,15.5-24.2,30.1-29c1.8-0.7,3.6-1,4.3,1.2c0.7,2.3-1.5,2.5-3,3
			c-12.5,4.3-21.2,12.5-26.5,24.4c-1.2,2.6-0.7,3.8,2.5,3.5c3.5-0.3,6.9-0.7,10.4-0.7c25.5,0.2,50.9,2.6,76.1,7.7
			c0.8,0.2,1.8,0.5,2.6,0.8c1.3,0.5,1.8,1.5,1.5,2.8c-0.3,1.3-1.6,1.2-2.6,1c-6.3-1.5-12.7-2.5-18.9-3.5
			c-10.7-1.5-21.4-2.8-32.3-3.6c-11.9-1-23.9-0.8-35.7-0.5c-13.2,0.3-26.2,1.3-39.2,3.6c-2.5,0.3-4.9,0-7.6,1.3
			c4.3,5.6,9.4,10.5,14.8,14.8c11.2,9.1,23.2,17,37,21.4c1.5,0.5,3.5,1,2.6,3.1c-0.8,2.1-2.5,1.2-4,0.7c-16.3-5.9-30.9-15-43.5-27
			c-3.6-3.5-7.1-7.1-10.7-10.7c-1.2-1.2-2.1-2-4.1-1.6c-16.8,3.1-33.3,7.1-49.7,10.9c-0.8,0.2-1.6,0.7-2.6,1
			c3.6,4.1,8.2,6.7,12.7,9.4c13.8,8.4,28.6,14.3,44.9,16c0.8,0,1.5,0.3,2.3,0.7c1.2,0.3,2.3,0.8,2.1,2.3c-0.2,1.6-1.6,1.8-3,1.6
			c-3.6-0.7-7.4-1.2-11-2c-19.1-4.3-36.1-13-51.4-25.2c-1.5-1.2-2.6-1.5-4.4-1c-4.3,1.3-8.7,2.1-13,3.5c-2,0.7-3.8,0.7-4.4-1.5
			c-0.7-2.6,1.6-2.8,3.3-3.3c12.3-3.1,24.7-6.3,37-9.4c1.3-0.3,2.5-0.7,3.8-0.8s2.1-1,2.1-2.3C615.2,388.3,620,373,626.7,358.2z"/>
		<path class="st1" d="M375.7,454.7c-3-0.8-5.9-1.6-9.1-2.3c-2.8-0.7-3.6-1.2-1.5-4.1c6.7-8.9,11.7-18.9,14.5-29.8
			c0.3-1.3,0.8-2.5,0.3-4.3c-3.6,3-7.2,5.8-10.7,8.6c-5.3,4.3-10.5,8.2-15.8,12.7c-2,1.6-3.1,1.5-4.4-0.7
			c-5.8-8.7-10.7-17.9-15.8-27.2c-10.2-18.1-18.4-37.4-28.3-56c8.1-3,16.5-3.5,25.4-6.6c-8.4-3.8-16.1-6.7-24.2-8.4
			c-1.3-0.3-2.6-0.8-3.8-0.7c-5.6,1-7.9-2.3-10.4-6.6c-4-7.1-8.4-14-12.8-20.7c-1.5-2.1-1.5-3.5,1-4.9c9.2-5.1,19.1-8.7,29.3-11.2
			c1.6-0.3,2.8,0.3,4.1,0.8c6.9,3,13,6.9,18.1,13.7c1.5-6.7,0.7-12.2-2.1-17.9c7.6-1,14.8-1.5,22.2-1.2c8.4,0.3,16.8,1.2,25,2.8
			c2.3,0.5,3.6,1.3,4.8,3.3c4.8,8.2,7.2,17.1,7.4,26.7c0,1.3,0,2.5,0,4.6c3-3.1,4.3-6.3,5.4-9.4c2-5.1,3-10.5,3.6-15.8
			c0.3-2.3,0.8-3.3,3.6-2.3c7.1,2.3,13.3,4.6,12,14.2c-0.3,1.8-0.3,4.4,1.3,6.4c3-2,5.6-4.6,6.6-7.9c1.2-3.5,2.8-2.6,4.9-1.5
			c8.4,4.8,16.6,10,24.2,16.1c0.8,0.7,1.5,1.5,2.6,1.5c1.3,10.4-3.8,19.1-7.2,28.1c-4,10.4-8.2,20.6-8.2,32.1
			c0.2,16.8,9.1,29.3,25,34.9c-0.5,3.3-2.5,5.4-5.4,6.6c-2.1-0.3-3.1-2-4.4-3.5c-1-1-1.8-3.5-3.5-2c-1.5,1.2,0.8,2.6,1.5,3.8
			c1.2,1.8,3.8,3.1,2.8,5.9c-4.3,5.3-9.2,9.5-15.8,11.7c-18.3-1.5-36.4-3.6-54.8-4.1c-1.5,0-2.8,0-4.3,0c-1.8-0.2-2.5,0.7-2.6,2.5
			C376.3,446.3,376,450.4,375.7,454.7z"/>
		<path class="st3" d="M484,382.4c-0.2,14-1.3,27.8-2.6,41.6c0,0.8-0.3,1.8-0.5,2.6c-1.6-0.5-3-1.3-2.5-3.3c-7.9-12-7.4-25-4.1-38.2
			c1.6-6.6,4.6-12.5,8.7-17.9c0.3,0,0.7,0,1.2,0.2C484,372.3,484,377.3,484,382.4z"/>
		<path class="st10" d="M478.2,423.4c0.8,1.2,1.6,2.1,2.5,3.3c-0.2,1.8-0.3,3.5-0.5,5.3c-4.6,3.3-9.9,5.1-15,6.7
			c-3.8-2.3-5.8-6.3-8.1-9.9c-0.3-0.5,0-1,0.3-1.3c2.1-1.8,3.6-4.1,5.4-6.3C467.9,423,473,423.9,478.2,423.4z"/>
		<path class="st8" d="M579.5,509.8c-3.6,9.5-7.2,19.1-10.7,28.6c-0.3,1-1.3,2.1-0.8,3.3c0.8,1.6,1,3-0.7,4c-1.8,1.2-3-0.5-4.1-1.3
			c-6.9-5.3-14.3-9.1-22.9-10.9c-5.9-1.3-12-2-18.1-1.2c-2,0.3-4.8,0.5-4.9,2.8c-0.2,2.5,2.6,3.3,4.6,4c3.5,0.8,6.9,0.5,10.4,0.3
			c1.8-0.2,3.6-0.2,4,2s-1.5,2.6-3.3,3c-8.4,1.3-16.1-0.5-23.7-3.8c-5.6-2.5-10.5-6.1-15.6-9.4c-1.6-1.2-3.5-2.1-5.3-0.2
			c-1.6,1.8,0,3.5,1,4.8c4.4,6.4,10.9,10.2,17.9,13.2c3.6,1.5,7.2,2.6,11,3.8c1.6,0.5,3,1.3,2.3,3.3c-0.5,1.8-1.8,2.1-3.6,1.5
			c-11.9-3.6-23.2-8.1-31.3-18.3c-1-1.2-1.8-1.6-3.3-1.2c-1.3,0.5-2,1.6-2,3c-0.2,4.4,1.8,8.1,4.8,11c8.6,8.6,19.3,12.8,31.1,14.5
			c2,0.3,4,0.3,3.8,2.8c-0.2,2.5-2.3,2.3-4.1,2.1c-9.5-1-18.3-4.4-26.3-9.4c-1-0.7-1.8-2.3-3.3-1c-1.6,1.3-0.8,3,0,4.3
			c4.6,6.9,11.5,10.7,19.3,12.8c3.3,1,6.9,1.3,10.4,1.6c1.8,0.2,4,0,4,2.6c-0.2,3-2.5,2.5-4.4,2.3c-10.2-0.5-19.4-4-27.7-10
			c-1.5-1.6-3-3.3-4.3-4.9c-2.8-3.5-4.1-7.2-1.5-11.4c1-1.6,0.3-2.3-0.7-3.1c-3.1-3.3-4.8-7.2-5.8-11.7c-1-4.4,1.3-8.7,5.6-10.2
			c1.3-0.5,1.6-1,2-2.3c1.3-5.8,6.6-7.9,11.7-4.9c4.3,2.5,8.6,5.4,12.7,8.1c1.2,0.7,2.5,1.3,4,2c1.3-7.6,7.1-8.4,12.8-9.1
			c5.1-0.5,10.4,0,15.3,1.3c2.8,0.8,4.4,0,5.4-3c1.6-4.8,3.6-9.4,5.3-14.2c0.5-1.6,1.3-2.5,3.1-2.3c8.4,1.3,16.8,1,25-0.3
			C579.1,508.6,579.3,509.3,579.5,509.8z"/>
		<path class="st17" d="M438.1,444c5.4-3.6,10.9-7.2,15.5-12c3.3,0.7,6.9,4.9,7.1,8.9c-3.6,1.8-6.9,4.3-11,4.6
			C445.6,445.3,441.8,444.8,438.1,444z"/>
		<path class="st9" d="M449.6,445.4c3.5-2,7.1-4,11-5.1c3.1,1.6,5.4,4.1,5.8,7.9c-3.5-0.5-7.1-1-10.5-1.5
			C453.9,445.4,451.4,446.6,449.6,445.4z"/>
		<path class="st1" d="M471,617.9c3.1-1.8,7.1,0,6.9,4.1c0,5.4-0.3,11-0.5,16.5c-0.3,5.6-5.3,9.4-10.9,9.5c-3.1,0-5.6,0.7-7.6,3.3
			c-2,2.3-4.9,3.5-7.9,3.6c-4.6,0.3-9.2,0.7-13.8-0.7c-10.9-2.5-20.7-7.2-29.8-13.5c-1.5-1-3.5-2.1-2.1-4.3c1.5-2.5,3.3-0.8,4.9,0.2
			c9.9,6.6,20.4,11.9,32.4,13.2c4.4,0.5,9.1,0.5,13.5-2.6c-10.5-2.6-19.8-6.7-28.6-11.7c-2.6-1.5-5.1-3.1-7.6-4.6
			c-1.6-1-3.1-2.3-1.8-4.4c1.5-2.3,3.1-0.8,4.6,0.2c11.2,7.2,23.2,13.2,36.4,15.8c2.6,0.5,5.4,0.8,8.1,0.2c3-0.7,5.3-2.3,5.9-5.4
			c0.7-3.3-0.3-4.3-3.8-3.8c-4.9,0.5-9.5-0.5-14.2-2c-8.9-3-17.3-6.9-25.2-12c-1.2-0.8-2.5-1.5-2.6-3.1c-0.2-1,0.5-1.6,1.3-2.3
			c1.5-0.8,2.5,0,3.5,0.7c8.9,5.8,18.3,10.2,28.5,12.8c2.6,0.7,5.3,1,8.1,0.7c4.6-0.7,6.1-3.8,3.6-7.6
			C471.5,620.1,471.1,619.1,471,617.9z"/>
		<path class="st1" d="M370.7,170c-5.9,0-10.5-1.6-14.5-4.9c-0.7-0.5-1.8-0.8-1.3-2c0.5-1,1.6-0.8,2.5-0.5c4,1.2,7.9,1.3,11.9,0.3
			c2.8-0.7,5.4-1.8,7.4-4c1.6-1.6,3.3-2.6,5.4-0.8c2.3,2,2.1,4.3,0.5,6.6C379.5,169.2,374.8,169.9,370.7,170z"/>
		<path class="st8" d="M355.6,115c0,3.6-2.1,6.3-4.9,6.3c-3.1,0-5.6-3.5-5.6-7.6c0.2-3.6,2.3-6.1,5.1-5.9
			C353.3,107.8,355.6,111.1,355.6,115z"/>
		<path class="st9" d="M465.1,438.2c4.9-2.3,9.9-4.8,15.1-6.3c-0.5,4.4-1.2,8.9-1.8,13.3c-0.8,5.3-0.8,5.3-6.1,3.8
			C469,446.1,465.9,443,465.1,438.2z"/>
		<path class="st18" d="M465.1,438.2c2.5,3.6,4.8,7.2,7.2,10.7c-2.1,0.5-4-0.7-6.1-0.8c-1.5-3-3.5-5.4-5.8-7.9
			c-2.1-3-3.8-6.6-7.1-8.6c-0.3-3.5-3.6-4.8-5.1-7.4c-0.8-1.3-1.3-2.1,0-3.3c1.3-1.2,2.3-0.8,3.3,0.3c2,2,3.1,4.8,5.8,6.1
			C459.1,431.8,462.4,434.7,465.1,438.2z"/>
		<path class="st19" d="M434.8,334.8c-0.3,15.5-4.1,30.1-11.7,43.6c-3.8,6.7-3.6,6.6,1.6,12.2c6.7,7.2,13.3,14.8,19.9,22.2
			c1.2,1.2,1.5,2.5,0.3,3.8c-1.5,1.5-2.6,0.2-3.6-0.8c-2.1-2.3-4.3-4.4-6.1-6.9c-2-2.8-4.4-3-7.4-2.3c-17.8,4.1-35.1,2.3-52-4
			c-0.7-0.2-1.2-0.5-1.8-0.8c-1-0.5-1.8-1.3-1.3-2.5c0.5-1.3,1.6-1.5,3-1c4.1,1.5,8.2,3.1,12.5,4.3c13,3.3,26,3.1,39.2,0.8
			c2.1-0.3,2.1-1,0.8-2.3c-9.5-10.5-19.8-20.6-29.8-30.6c-1.2-1.2-2.3-1.3-3.8-0.7c-16.3,7.6-33.6,9.7-51.4,8.6
			c-1.3,0-2.5-0.5-3.8-0.7c-1-0.2-2.3,0.2-2.3-1.3c0-1.8,1.5-2,2.8-1.8c3.5,0.2,6.9,0.7,10.4,0.8c13.8,0.5,27.2-2.5,40-7.2
			c3.3-1.2,3.3-2.1,0.8-4.1c-13.3-11.4-27.2-21.7-42.3-30.5c-14.5-8.4-29.6-15.1-45.4-20.4c-1-0.3-2-0.7-3-1c-1.3-0.5-3-1.2-2.1-3
			c0.7-1.6,2-1,3.3-0.7c9.5,3.1,18.9,6.9,28.1,11c12.7,5.8,24.7,12.3,36.1,20.4c3,2.1,3.3,0.2,3.6-1.6c1.6-11,0.3-21.2-6.4-30.5
			c-0.8-1.3-3.3-3-1.2-4.6c2.3-1.8,3.1,1,4.3,2.5c7.9,10.5,8.7,22.4,6.3,34.7c-0.5,2.5,0.2,4,2,5.3c5.6,4.3,11.2,8.6,16.8,13
			c1.5,1.2,2.1,1,3.1-0.3c6.6-8.2,10.9-17.3,11.2-27.8c0-1.3,0-3,1.8-2.8c2,0,1.3,2,1.3,3c0.2,10.7-3.8,19.9-10.7,27.8
			c-2.1,2.5-2.6,4.1,0.2,6.3c6.1,4.6,11.2,10.4,16.6,15.8c2.1,2.1,3.3,2.3,4.6-0.7c6.1-12.7,11.2-25.5,12-39.7
			c0.2-3.6,0.5-7.2,0.7-10.9c0-1.3-0.3-3,1.5-3.1c1.8-0.2,1.6,1.6,1.6,3C434.8,330.9,434.8,332.8,434.8,334.8z"/>
	</g>
	<path class="st20" d="M626.1,114.9c-3.5-9.7-10.5-15.8-20.4-18.6c-1.2-0.3-1.5-0.7-1-2c1.3-4.4,1.5-8.9,0.7-13.3
		c-2.3-11.4-9.1-18.9-19.9-22.7c-10.9-3.6-20.6-1.3-29.1,6.3c-6.3,5.6-9.5,12.7-9.7,21.2c0,8.2,0,16.3,0,24.5c0,0.3-0.2,0.7,0.3,0.7
		c3.5-2,6.9-4,10.2-5.9c3-1.6,4.3-4.3,4.3-7.7c0-4,0-7.7,0-11.7c0.2-8.9,9.1-15.8,17.6-13.8c6.1,1.3,10.9,6.1,11.7,11.9
		c1,6.4-1.8,12.3-7.4,15.6c-22.1,12.8-44.3,25.5-66.3,38.4c-3,1.8-6.3,2.3-9.7,1.8c-6.7-1-12.2-7.1-12.3-13.7
		c-0.2-7.6,4.4-13.8,11.4-15.5c2.3-0.5,4.8-0.2,7.1-0.2c4.4-0.2,8.4-4.1,8.6-8.6c0.2-2.8-1-4.9-2.5-7.1c-3.3-5.1-3.5-10.5-0.5-15.8
		c3.1-5.1,7.9-7.7,14-7.1c4.6,0.5,8.1-1.2,10.2-5.3c0.8-1.5,1.8-3,2.8-4.4c0.7-1,0.5-1.3-0.5-1.8c-5.9-3-12.2-4.1-18.8-3
		c-17.1,2.8-28.3,20.4-23.4,37c0.3,1.2,0.3,1.6-1,2c-16.1,4.1-25.8,20.7-21.1,36.7c3.1,10.7,10.4,17.4,21.1,20.6
		c1.3,0.3,1.5,0.7,1.2,2c-1.3,4.3-1.5,8.6-0.7,13c2.6,16,18.3,27,34.2,24.2c14.3-2.5,24.5-14.8,24.5-29.3c0-7.7,0-15.5,0-23.2
		c0-0.5,0.2-1-0.3-1.3c-3.3,2-6.6,3.8-9.9,5.8c-3.1,1.8-4.6,4.4-4.6,8.1c0,4.3,0.3,8.6-0.2,12.8c-1,8.4-9.5,14.5-17.8,12.5
		c-6.3-1.5-10.7-6.4-11.5-12.7c-0.8-5.9,2.3-11.7,7.7-14.8c5.9-3.5,11.9-6.9,17.8-10.4c16-9.2,31.9-18.4,47.9-27.7
		c2.6-1.5,5.4-2.3,8.6-2.1c6.3,0.2,11.5,4.4,13.5,10.4c1.8,5.9-0.3,12.5-5.3,16.1c-3.5,2.6-7.4,3.1-11.5,2.8c-4-0.3-6.7,1.5-8.6,4.9
		c-1.8,3.5-1.5,6.7,0.8,9.9c2.5,3.5,3.5,7.1,3,11.2c-0.8,7.4-8.4,13.5-15.8,12.5c-4.3-0.5-7.7,0.8-10,4.6c-1,1.8-2,3.5-3.1,5.3
		c-0.5,0.8-0.3,1.2,0.5,1.5c6.4,3.3,13,4.4,20.1,3c16.8-3.6,26.8-20.1,22.4-36.7c-0.3-1.5,0-1.8,1.3-2.1
		C623.1,148.8,631.8,130.9,626.1,114.9z"/>
</g>
</svg>
