<?xml version="1.0" encoding="utf-8"?>
<!-- Generator: Adobe Illustrator 28.3.0, SVG Export Plug-In . SVG Version: 6.00 Build 0)  -->
<svg version="1.1" id="图层_1" xmlns="http://www.w3.org/2000/svg" xmlns:xlink="http://www.w3.org/1999/xlink" x="0px" y="0px"
	 viewBox="0 0 893.7 749.5" style="enable-background:new 0 0 893.7 749.5;" xml:space="preserve">
<style type="text/css">
	.st0{fill:none;stroke:#999999;stroke-width:0.1;stroke-miterlimit:10;}
	.st1{fill:none;stroke:#808080;stroke-width:0.3;stroke-miterlimit:10;}
</style>
<g>
	<g>
		<g>
			<g>
				<g>
					<polygon class="st0" points="341.8,540.5 357.2,634.7 387.7,623.9 468.5,606.7 450.6,607.9 					"/>
				</g>
				<g>
					<polygon class="st0" points="585.8,362.9 528.2,324.4 537.8,328.5 587.7,371.5 					"/>
				</g>
				<g>
					<path class="st0" d="M621.8,551.5l74.9,88.9l-2.3,214.5L672,299.8L321.5,726.9L638.1,528l-77.2-279.6L534.7,781l-20.9-281.5
						L455.5,298l190.9,216.8l-18.6-216.1l-130.1-2.5l-0.1,186.6l-167.5-89.9l530.7-62L410.2,331L240.6,511l94.3-572.7l64.1-86.5
						l134.7,328.4L254.3,369.4l176.1,0l38.4,27.1l203.6,105.2l-73.5,270.2L648,425.6l-4.1,196.9L490,633.7l24.1,80.7l120.5,31.6
						l-416-144.5L621.8,551.5z M499.5,559.5l103-50.6l104.7,212.5L351.5,583.5L499.5,559.5z M501.9,485.5l95.2-50.6l99.5,215.2
						L366.8,541.7L501.9,485.5z M501.8,414.5l95.6-50.4l99.7,214L365.7,467.6L501.8,414.5z"/>
				</g>
				<g>
					<path class="st0" d="M244.8,255L378,169.9L222.7,517.6l206.1-107.5l59.6,87.4l-68.7,72.2l0-21.3l-64.5,133.9l160.6-85.8
						l-79-324.4l95.2,55.1l-363.5,60.9l308.5,162.7l-47.8,103l213-320.4l-197,83.6l136.6-14.3l-24.8-247.9l-51,262.6l-122-70.3
						l-21.1,155.4L244.8,255z M454,448.2l-140.8,25.8L350.5,177l56.7,123.4L454,448.2z M439.1,211.4l12.2,283.8l-89.3-57.3
						l19.3-82.2L439.1,211.4z"/>
				</g>
				<g>
					<polygon class="st0" points="325.1,176.9 365.1,157 346.9,154.4 434.2,252.2 340.8,179.9 330.9,60.3 414.8,224.5 384.2,238 
						318.4,163 377,84.7 310,103 270,202.8 243.6,161.8 290.5,236.7 					"/>
				</g>
				<g>
					<polygon class="st0" points="307.7,418 251.8,415.1 344.1,241.8 254.7,247 					"/>
				</g>
				<g>
					<polygon class="st0" points="349.7,198.1 303.5,175.1 327.4,192.4 305.7,232.3 318.1,231.2 312.5,227.9 					"/>
				</g>
				<g>
					<polygon class="st0" points="441.1,266.5 446.1,236.7 488.5,63.8 507.8,140.7 460.1,127.2 579,218.6 484.2,150.6 472.3,205.1 
						527.9,208.9 504,222.9 428.2,162.9 477.6,89.5 415.3,97.6 349.5,208 					"/>
				</g>
			</g>
			<g>
				<g>
					<polygon class="st0" points="370,620.7 374.6,602.8 380.4,597.6 475.2,624.8 452.5,558.5 					"/>
				</g>
				<g>
					<polygon class="st0" points="597.2,309.1 524,304.1 526.7,381.1 584.8,347.8 					"/>
				</g>
				<g>
					<path class="st0" d="M702.7,479l-37.1,137.4l8.2,157.5l-4.3-464.4L488.1,590.9l-19.8-204.3l144.4,70.8l73.1-284.8L533.8,483
						L353.1,206.7l238,68.6l33.9,50.6L497.6,156.4l0.2,25.1L865,365.9l-161.9-35l47.3,0.1l-230-145.7L377.2,407.5l-31.6-43.8
						l211.2-202.4L247.2,369.4l406.5-0.1l-114.4,38.3L660.8,500l-164.1,61.1L121.4,446.2l499.5,178.4l-117.1,19.6l2.3,28.2
						L651,916.7l0.9-297.5L702.7,479z M422.2,493.3l159,33.9l79.9,154.7l-4.4-314.3L422.2,493.3z M425,416.1l154.4,34.9l78.1,164
						l12.1-309.6L425,416.1z M424.7,345.3l154.9,34.8L657.9,543l10.3-310.2L424.7,345.3z"/>
				</g>
				<g>
					<path class="st0" d="M615.6,732.2l-250.9-28.5L248.7,501.7l39.9,48.6l-81-143.8l130.6,70.9l393.7,188L434.8,150.7l53.9,412.9
						l-49.1-247.7l-190.8,419L70.5,382l447.1,349.1l-99.1-241.8l-125.6-17.6l49.3-230.2l93.9,130.3L684.8,35.3L54.1-4.6l294.2,372.2
						l68.1-36.4L615.6,732.2z M224.7,36.2l296.8,63.6L377.5,225.4l59.6,26.9L224.7,36.2z M253.1,548.5l27.8-362.2l106.9,204.8
						l-25.2-77.7L253.1,548.5z"/>
				</g>
				<g>
					<polygon class="st0" points="308.4,213.1 300.9,204.5 394.8,288.2 411.6,225.4 402.1,113 349.1,167.3 386.7,105.6 404.5,107.7 
						317.3,172.6 382.2,80.5 347,149.9 288.1,209.2 242.6,160.5 286.8,159.3 					"/>
				</g>
				<g>
					<polygon class="st0" points="300.1,418.8 196.6,409.3 256.3,251 262.4,245.8 					"/>
				</g>
				<g>
					<polygon class="st0" points="345.2,202.7 303.5,174.2 307.7,199.9 325,218.7 329.7,249.8 375.6,249.2 					"/>
				</g>
				<g>
					<polygon class="st0" points="422,238.3 405.1,96.6 487.3,67.1 532.5,122.5 476.1,184.8 469.4,171.6 446.1,190.7 465.2,155.3 
						534.7,236.6 528.9,49.6 429.9,147.8 435,127.9 397.3,72.2 355.1,201.9 					"/>
				</g>
			</g>
			<g>
				<g>
					<polygon class="st0" points="348.9,560.5 361,627.6 364.3,538.8 435.5,516.8 463.4,573.1 					"/>
				</g>
				<g>
					<polygon class="st0" points="581.1,385.3 538.7,373.9 528.9,370.5 581.7,368.7 					"/>
				</g>
				<g>
					<path class="st0" d="M454.7,701.3L222.8,272.8L603.9,498l-50.5,269.5l-268.2-11.1l114.5-427.1l293.9,453.9l-74.9-340.7
						L457.4,546.3l154.3-109l112.9,416.9L591.9,656.2L497.6-69l-0.1,553.1l236.5-111.6L316.3,331l323.9,0l-404,185.1L340.8,4.4
						l17.7,234.9L786.5-27.3L106.5,369.4l641-0.2L931.9,469L761.7,515L338.3,234.2L560.4,429l232.3,180.2L111.5,345.9l302.9-157.5
						l225.3,611.5L532,430.2L454.7,701.3z M642.7,682.4L220.3,836.8L468,516.2L691.6,391L642.7,682.4z M626.5,597.9L267.4,732.4
						l205.2-284.3l198.1-104.4L626.5,597.9z M623.8,524L275,653.3l198.3-275.8l193-100.6L623.8,524z"/>
				</g>
				<g>
					<path class="st0" d="M317.9,349.1l57.9-89.6l108.9,97.6L356.5,482.4L267.6,426l-11.1-40.8l-36.3,88.4l125.5,270.5l-42.9-408.5
						l133.5-67.1L319,633.8l127.9-228l45.8,215L418,481.5l-240.3,35.9l343.5,29.1l-319-224.3l249.3-69L314,238.1L224.5,439
						l142.4,50.4L317.9,349.1z M406,361.9l-60.7,54.3l147,15.5L314.4,295.3L406,361.9z M399.3,283.5l26.1,164.8l57.8-230.3
						l-25.3,121.8L399.3,283.5z"/>
				</g>
				<g>
					<polygon class="st0" points="295.5,240.8 361.6,159.6 377.3,239.4 351.6,154.3 375.2,142.4 333.7,76.9 408.7,198.8 
						399.2,142.1 311.1,225.9 392.4,72.2 351.4,155.5 360.6,234.6 238.9,155.6 367,163.6 					"/>
				</g>
				<g>
					<polygon class="st0" points="323.8,416.3 319.6,422.2 433.5,232.4 360.3,236.7 					"/>
				</g>
				<g>
					<polygon class="st0" points="323.8,224.3 302.6,219.7 325.5,193.1 328.2,216.4 344.7,273.8 345.7,239.4 					"/>
				</g>
				<g>
					<polygon class="st0" points="447.7,276.2 408.6,108.3 454.3,152.7 535.5,120.2 475.7,183.3 412.5,147.1 525.6,107 452.1,62.8 
						516.2,161.2 517,132.2 435.9,94.5 478,89.1 444,137.7 470.8,160.9 					"/>
				</g>
			</g>
			<g>
				<g>
					<polygon class="st0" points="347.6,556.8 339.6,666.8 397.1,658.2 483.3,647 440.5,653.3 					"/>
				</g>
				<g>
					<polygon class="st0" points="593.7,325.4 526.2,314.7 537.2,331.4 593.5,362.3 					"/>
				</g>
				<g>
					<path class="st0" d="M803.1,389.1l-491.3-47.4l307.6,216.9l-62.3,195l66.5-273.1l-93.9-42.9l96.8,74.8l-4.7-81.5l103.7-106.6
						l-327.6-77.7l164.1-97.7l80,8.3L497.6,264.8l0.2-101.5l297,206.2l72-38.5L189.4,331l328.2-142.5L374.8,380.8l-52.1,202.7
						L631.7,99.8L270.6,369.4l533.4-0.2l-509.3,0l76.7,87.7l-20.5-196.6l27,175.8l503.4,165.2l-75.6,272.4l-297.5-190l100.3-208.5
						l-88.2,44L803.1,389.1z M344.9,426.9l-56,351l218.7-227.7l-77.6,146.6L344.9,426.9z M371,367.3l-55.6,321.8L506,478.2
						l-68.7,126L371,367.3z M370.5,296.7l-55.6,320.8l191.2-210.7l-67.9,126.6L370.5,296.7z"/>
				</g>
				<g>
					<path class="st0" d="M261.6,276.6l111.1,108l35.5,19.5l49.6-22.9l-131.3,64L456.1,611L160.5,451.2L411.4,307L353,397.1
						L461.5,642L421,487l217.6-69L389.7,164.3l39.6,493.2L195,510.5l244.9-102.4L323.5,348l138.8-104.9L156,90.5l195.2,275.4
						l50.4,12.7L261.6,276.6z M450.7,442.2l-44.5-135.3l42.5,46.4l4.2-61.1L450.7,442.2z M437.2,214.9l-64.5,137.8l72.6-65.9
						L341,351.9L437.2,214.9z"/>
				</g>
				<g>
					<polygon class="st0" points="323.1,181.3 305.2,201.4 383.6,257.1 429.2,246.2 308.5,215 348.6,164.5 390.1,120.2 411.2,64.8 
						315.3,189.5 369.8,90.6 362.8,170.1 232.7,189.7 288.2,221.3 338.8,109.9 					"/>
				</g>
				<g>
					<polygon class="st0" points="220.8,427.1 233.1,413.2 224.3,254.3 219.9,217 					"/>
				</g>
				<g>
					<polygon class="st0" points="327.6,220.5 302.5,220.6 290.9,206.2 317.1,224.3 332.6,254.4 347,239.5 					"/>
				</g>
				<g>
					<polygon class="st0" points="367,156.9 427.9,174.4 427.8,221.3 390.9,227.1 457.7,118.4 419.9,150.3 482.8,152 458.9,110.7 
						517.6,166.7 528.7,50.5 429.6,150.6 444.7,119.2 384.6,54.4 370.4,264.1 					"/>
				</g>
			</g>
			<g>
				<g>
					<polygon class="st0" points="353.9,574.8 383.3,586.8 402,676.3 437.3,521.6 454,631.2 					"/>
				</g>
				<g>
					<polygon class="st0" points="597,309.9 530.7,336.3 533.9,346.9 580.2,341.1 					"/>
				</g>
				<g>
					<path class="st0" d="M215.6,915.6l623.7-164.5L476.7-4L518,907.4L352.6,701.5l418.9-62.3L543.9,180.4l157.6-71.2L286.9,687.5
						l448.3-140.2l-98.9-76.3L616.2,414L497.6,162.6L498-69.3l22.1,452.7l14.9-52.4l-8,0.1l140-316.3L361.4,231.9l39.1-394.1
						l9.5,444.1l-183.6,87.5l640.3-0.2l6.4,90.7l-432.3,7.5l108.1,201.5L-11.8,451.4l236.1,208.5l435.2,102.7l-98.2,201l98.2,41.3
						l-9.2-365.5L215.6,915.6z M849.1,859.5L715.7,411.8L136.7,232l632.9,62.3L849.1,859.5z M797.7,752.3L678,361.9L197.9,200.2
						L739.7,264L797.7,752.3z M756,642.6L647.4,319.2L247.5,174.8l460,52.6L756,642.6z"/>
				</g>
				<g>
					<path class="st0" d="M506.2,591.4L370.4,477.1l-32.9-29.7L175.2,663.7l431.3-127.9l-152.2,73.1L92.5,425.8l302.3-8.3l44,84.8
						l7.1-92.5l100.6-103.4l102.8,112.3l-185.7,73l-53.5-132.4L188.4,513.1l82.1-393.7l202.2,260.2l-112.3-41.4L516.3,427
						l-110.1-92.9L304.8,687.5L506.2,591.4z M279.1,133.9l166.3,102.6l-33.3,51.1l124.8-125.3L279.1,133.9z M287.9,485.5l50.7-194.7
						l75.1,53.5l-147.8-118L287.9,485.5z"/>
				</g>
				<g>
					<polygon class="st0" points="317.8,192.7 280.3,219.8 362.4,197.6 379.7,187.6 359,160 355.2,203.1 398.1,153.8 388,213.5 
						322.4,129.3 368.4,91.8 360.2,166.7 339.3,227.1 278.6,208.4 280.3,177.2 					"/>
				</g>
				<g>
					<polygon class="st0" points="372.7,411.2 357.7,426.2 321.2,244.2 291,243.3 					"/>
				</g>
				<g>
					<polygon class="st0" points="297.7,250.7 302.4,227.6 316,196.7 297.6,238 319,232.6 344.7,213.7 					"/>
				</g>
				<g>
					<polygon class="st0" points="412.5,224.1 445.8,236 431.5,211.8 488.2,155.2 486.3,221.5 432.1,155.5 409.9,228.9 466.7,166.2 
						506.9,123.2 504.6,219.1 427.5,168.9 518.3,52.8 474.9,181.1 327.4,202.5 					"/>
				</g>
			</g>
		</g>
	</g>
	<g>
		<g>
			<g>
				<g>
					<polygon class="st1" points="363.8,603.1 368.2,614.4 385.6,616.6 461.6,587.8 460.8,583.7 					"/>
				</g>
				<g>
					<polygon class="st1" points="589.6,345.1 532.3,343.5 532.1,355.5 590.6,358.3 					"/>
				</g>
				<g>
					<path class="st1" d="M573.7,594.7l-14.8-61.2l59.1,19.9l-2.8-29.1l-50.3,4.1l8.6-54.2l42-6l0.2-13L585,440.6l-16.2-41.6
						l48.2-11.5l3.3-8.6l-61.9,2.2l-60.8-5.1l0-4.5l13.3,12.3l-26.4-52.8L512,331l-11.4-58l0.4-65.1l-73.6-3.9l-66.7,15.8l2.2-7.5
						l55.3,29.4l74.5-27.8l-12.4,84.3l15.9,71.1l-4.4,0l-0.5,30.7l-27.5,70.7l-13.1-4.6l34.6-35l-25.8,69.6l2.7,68.4l19.5,67.1
						l24.7,10l-19.8-54.8l71.8,39.9l65.5-7.5l-1.7-23.5L573.7,594.7z M540.6,594.8l-52.9,12.6l18.2-58.7l39.8-7.6L540.6,594.8z
						 M540.7,520.5l-52.9,13l17.8-55.5l40.1-7.8L540.7,520.5z M540.7,449.4l-52.9,12.9l17.9-55.9l40.1-7.7L540.7,449.4z"/>
				</g>
				<g>
					<path class="st1" d="M376.9,424.9l-5.1-2.9l-19.2,16.1l37.6,10.6l33,27.6l-51.5,39L359.8,526l14.9,25.5l77.8-32.4l1.2,7.4
						l-58.9-5.4l24.9-58.5l28.1-53.3l-9.4-28.7l-21,92.4l-36.1-36.1l34.2-70.2l40.9,12.4l-3-61.8l-12.1-52.4l-108-13.1l11.5,65.5
						l-1.6,50.5l61.3,1.8L376.9,424.9z M359.3,278l65.1-3.9l-7.5,22.1l-61.6,17.1L359.3,278z M359.3,356l-2.1-31.4l59.8,13.6
						l9.3,25.4L359.3,356z"/>
				</g>
				<g>
					<polygon class="st1" points="333.7,158.4 344.4,172.3 361.7,195.8 377.6,185.2 358.4,160.7 346.8,153.7 400,161.8 399,142.9 
						320.9,141.8 336.3,117.8 318.1,113.2 276.1,205 280.6,211 310.7,151 					"/>
				</g>
				<g>
					<polygon class="st1" points="280.6,421.2 302.6,420.4 303,333.3 312.4,244.1 283.1,245.9 288.3,333.4 					"/>
				</g>
				<g>
					<polygon class="st1" points="325.8,222.3 303,197.9 298.3,203.4 312,227.9 330.6,251.2 344.4,239.7 					"/>
				</g>
				<g>
					<polygon class="st1" points="391.4,193 423.4,159.2 454.2,153 468.2,170 480.3,199.7 485.8,178.6 470.3,165.3 465,153.6 
						516.7,163.2 515.8,140.5 430,146.9 446.5,117.5 427.9,115.2 391.4,195.1 					"/>
				</g>
			</g>
			<g>
				<g>
					<polygon class="st1" points="364.3,604.3 364.5,621.2 385.2,615 463,591.6 460.9,584.5 					"/>
				</g>
				<g>
					<polygon class="st1" points="590.3,341.8 532.1,342.7 531.4,358.5 589.9,354.6 					"/>
				</g>
				<g>
					<path class="st1" d="M564.2,603.2l-0.3-65.8l53.1,11.8l-3.3-18.9l-41.1-8.3l-24-68.7l69.6,25.6l-8.2-1L584,441.4l-8.8-36.6
						l38.4-31.8l0.7,35.4l-56-20.3l-60.8,12.5l0-34.8l2.6,18.5l-11.5-53.4l12.6,0.1l-12.4-58l4.5-56.2l-66-25.6l-63.5,46.3
						l-9.1,13.5l63.4-47.5l45.2,34.4l4.6,60.3l-5.3,71.1l5.5,0l-8.6,25.7l2.2,75.3l-0.4,18l21.6-57l-26.2,69.3l1.4,68.4l-5.6,74.8
						l34-12.7l2.7-32.5l69.1,20.4l62.2-12l4.4-23.6L564.2,603.2z M550.3,603.1l-57.7,0.2l10.2-57.3l47.9-8.8L550.3,603.1z
						 M550.2,529l-57.6,0.2l9.9-54.2l48-9.1L550.2,529z M550.2,458l-57.7,0.2l10-54.5l48-9L550.2,458z"/>
				</g>
				<g>
					<path class="st1" d="M383.8,433.9l-12.1-10.1l-1.6,3.6l11.7,29.7l20.7,12.7l-23.6,53.9l-17.2,3.1l12.4,29l84-29.8l-4.5-2.2
						l-57.8-8.8l24.2-52.3l47-57.8L440.2,388l-23.9,67.4l-26.8-22l28.2-63.1l27.9,4l-9.9-57.3l9.1-59.1l-110.3-3.8L321.2,317
						l21.9,50.6l57.4,14.2L383.8,433.9z M353.8,268.2l71.4,4.5l1.7,41.7l-65.8-11.1L353.8,268.2z M353.9,365.9l2.5-42.8l70.6-3.1
						l-6.5,33.3L353.9,365.9z"/>
				</g>
				<g>
					<polygon class="st1" points="337.5,150.1 346.1,171 359.2,188.8 378.7,186.5 356.2,163 347,154.9 399.2,158.6 398.5,146.4 
						320.5,145.3 339.3,115.4 321.5,117.5 264.9,201.1 273.7,201.9 315.9,161.1 					"/>
				</g>
				<g>
					<polygon class="st1" points="293.7,418.5 307.1,421.4 293.3,333.3 311.9,244.2 279.5,245.1 294.4,332.7 					"/>
				</g>
				<g>
					<polygon class="st1" points="327.5,220.6 303,199.4 297.6,203.7 312.4,227.6 330.2,250.5 345.6,239.6 					"/>
				</g>
				<g>
					<polygon class="st1" points="392.1,194 424.2,161.8 454.1,153.1 461.2,175.2 479.3,196.4 492.9,181.6 473,162.4 465.2,155.6 
						515.5,158.2 514.7,148.3 430.4,143.6 445.6,118.3 421.8,106.6 391.4,195 					"/>
				</g>
			</g>
			<g>
				<g>
					<polygon class="st1" points="361.7,597.2 366.4,617.8 385,614.4 463.5,593 460.6,581.4 					"/>
				</g>
				<g>
					<polygon class="st1" points="589.8,344 532.2,343 532.3,354.4 590.4,357 					"/>
				</g>
				<g>
					<path class="st1" d="M581.3,587.9l-15.1-48.7l46.6-6.5l-0.7,3.9l-53.4-3.2l4-68.2l57.7,22.8l-9.3-14.3l-56.1-8.3l-2.4-81
						l69.1,23.1l-0.1-34.9l-63.1,20.7l-60.8,2.8l0-7.5l-8.6-3.9l7.1-53.9l20.4,0.1l-19.8-58l-17.3-40l-52-14.5L358,204.8l5,7.3
						l55.2,28.5l62.5-16.8l-1.6,74.5l17.3,71.1l-12.8,0l8.8,30.9l-35.9,69.4l-12.7-17.7l48.3-21.7l-0.7,70.5l10.5,68.4l-10.6,64.5
						l-10.7-7l17.1-5.9l60.7,11l59-41.3l13.3-3.2L581.3,587.9z M532.8,588.2l-38.1,13.2l-5-66.6l66.1-1.5L532.8,588.2z M533.2,513.7
						l-38.5,13.6l-4.9-63.7l65.7-1.7L533.2,513.7z M533.1,442.6l-38.4,13.6l-4.9-64l65.7-1.7L533.1,442.6z"/>
				</g>
				<g>
					<path class="st1" d="M375,422.6l-3-14.4l3.8,15.6l6.7,32.5l41.5,20.4l-37.7,55.4l-28.4-6.8l15.2,37l72.9-51.1l6.6-1l-57.5,8.7
						l22.2-57.7l36.5-53.4l-15.4-27.6l-22.3,72.2l-23.3-20.2l20.1-70.1l18.3,6.1l18-51.2l1.1-69.1l-109.4,17.9l6.6,51.2l-10.2,57.4
						l65.4,0.9L375,422.6z M360.8,280.6l56.9,5.6l12.6,34l-70.4-16.5L360.8,280.6z M360.8,353.4l3.1-16.7l66.4-22.6l-8.5,39.8
						L360.8,353.4z"/>
				</g>
				<g>
					<polygon class="st1" points="332.9,160.1 347.4,170.1 359.7,190 374.3,181.2 353.9,165.5 347.4,157.1 400.3,163.1 398.9,144 
						319.8,151.7 333,120.5 315.3,109.6 276.2,205 280.4,210.8 312.6,155.3 					"/>
				</g>
				<g>
					<polygon class="st1" points="286.3,420 310.9,422.2 295.1,333.3 296.7,247.4 291.8,247.7 279.8,333.3 					"/>
				</g>
				<g>
					<polygon class="st1" points="326.6,221.5 303,196.6 297.3,203.8 314.2,226.4 329.8,249.9 343.4,239.9 					"/>
				</g>
				<g>
					<polygon class="st1" points="395.5,199 423.7,160.1 454.6,151.9 466,171.6 480.3,199.8 494.2,182.2 474,161.3 464.6,151.3 
						513.8,151.4 515.6,142.4 431,138.5 441.2,122.3 428.6,116.1 387.7,193.5 					"/>
				</g>
			</g>
			<g>
				<g>
					<polygon class="st1" points="364.4,604.7 368.3,614.3 385.4,615.7 464.3,595.2 461.4,588 					"/>
				</g>
				<g>
					<polygon class="st1" points="590.4,341.2 531.5,339.9 532.6,353.1 590.4,356.7 					"/>
				</g>
				<g>
					<path class="st1" d="M549.2,616.6l31-66.6l30-27.4l-0.6,23.3l-31.5-28.5L563,465.4l47.4-17.5l2,20.3l-63.7,2.5l5.7-84.4
						l66,16.1l-3.5-6.2l-58.5-35.3l-60.8,17l0,19.3l-18.4-11.6l8.5-54.4l-6.5,0.1l-7.2-58l20.4-57.4l-67,18.3l-64.3-1.2l-3.3-5
						l58.5,3.1l50.7,2.6l16.6,64.7L454,369.4l1.2,0l17,27.7l-16.1,72.5l-3.8-0.1l1.6-33.9l45.9,65.2l-39.2,68.4l8.1,70.5l27.3-1.4
						l-8.5-44.7l71,19.7l68.2,24.9l-4-19.3L549.2,616.6z M565.5,616.2l-57.3-26.4l-26.3-61.7l80.5-2L565.5,616.2z M565.1,542.5
						l-57.2-27.1l-25.7-58.7l80-1.9L565.1,542.5z M565.2,471.4l-57.2-27.1l-25.8-59l80.1-1.9L565.2,471.4z"/>
				</g>
				<g>
					<path class="st1" d="M370.4,416.7l0.9,21.5l0.1-11.6l14.9,26l21.3,18.8l-23.8,57.8l-22.6-2.7l16.7,3.4l68-18.8l6.8,0.6
						l-61.1,29.3l44.8-69.5l31.4-66.9l-23.4,2l-28.5,42.8l-13.8-20.9l10.7-66.7l41.2,16l-9.4-60.8l2.8-63.6l-112.9,0.2L335,317
						l7.8,51l58.4,11.7L370.4,416.7z M364.4,287.2l67.9-27.1l-4.6,55.6l-70.2-7.2L364.4,287.2z M364.4,346.9l-15-36.4l78.3,8.2
						l-3.5,39.8L364.4,346.9z"/>
				</g>
				<g>
					<polygon class="st1" points="335.9,153.6 339.5,175.9 361.6,195.3 372.7,179.3 351.9,167.7 347,154.6 397.8,152.8 397.8,150.8 
						320.6,144.8 329.4,123.5 320.6,116.4 271.7,203.4 278.6,208.4 314.6,159.4 					"/>
				</g>
				<g>
					<polygon class="st1" points="286.1,420.1 294.2,418.7 297.5,333.3 293.4,248.1 290.8,247.5 282.1,333.3 					"/>
				</g>
				<g>
					<polygon class="st1" points="327.2,220.9 302.9,201.9 295.2,204.6 315.2,225.6 329.1,248.8 346.5,239.5 					"/>
				</g>
				<g>
					<polygon class="st1" points="395.1,198.4 420.9,150.5 451.1,160.9 460.9,175.4 477.1,188.2 495.4,182.7 477.1,158.1 
						464.6,151.2 516.4,162 515.3,144.4 430.7,141.3 445.7,118.2 425.4,111.6 391.3,194.5 					"/>
				</g>
			</g>
			<g>
				<g>
					<polygon class="st1" points="362.4,598.9 367.6,615.5 385.1,614.5 460.4,584.5 461.1,588 					"/>
				</g>
				<g>
					<polygon class="st1" points="590.7,339.7 532.8,345.9 532.4,354.1 590.2,355.7 					"/>
				</g>
				<g>
					<path class="st1" d="M562.2,605l-1.8-70.3l60,28l-8.4-25.7l-63.4,4.7l6.4-82.9l64.3,24.9l-5.5-20.9l-55.9,0.3l20.2-55.9
						l39.9-15.9l2.5-12.6l-62,2l-60.8,4.7l0-12.7l-0.1,11.9l22.4-53.5l-24.1,0.1l1.4-58l-6.5-53.1l-63.3-9l-68.7-2.4l5.3-1.3
						l54.2,22.9l71.1-13.4l-4.7,81.6l-13.4,71.1l6.9,0l-20.8,25.4l-13.2,73.1l20.2,26.7l21.8-63.5l8.9,69.7l-14.4,68.4l-4.8,68.6
						l3.7-11.8l17.4-6.7l61.3,15.1l59.1-43.7l1.2,33.3L562.2,605z M552.3,604.9l-63.1,1.3l24-51.2l42.5-22.4L552.3,604.9z
						 M552.2,530.8l-62.9,1.3l23.5-47.8l42.7-23L552.2,530.8z M552.2,459.8l-63,1.3l23.6-48.2l42.7-22.9L552.2,459.8z"/>
				</g>
				<g>
					<path class="st1" d="M379.4,428.2l-7.7-6.4l1.1,3.9l26.2,14.2l20.5,35.3L372.1,516l-3.8,13.2l8.7,7l78.2-13.8l-3.1-19.1
						L392,538.7l34.2-72.6l24.8-57.6l-8.2-8.7l-26.9,49.7L380.5,437l40-62l23.8-1.3l14.3-56.7l-8.3-69.1l-112.2,12.6l11.7,56.6
						l-6.2,50.1l59,8.3L379.4,428.2z M357.3,274.4l67-0.1l4.2,42.7l-79.2,7.3L357.3,274.4z M357.3,359.6l0-34.8l71.2-7.5l3.8,57.2
						L357.3,359.6z"/>
				</g>
				<g>
					<polygon class="st1" points="333.7,158.4 344.3,172.4 360.8,193.1 377.4,184.9 355.6,163.6 348.6,164.2 398.8,157 398.9,143.9 
						320.4,146.5 334.7,119.1 316,110.5 277.6,205.5 278.5,208.2 311.2,152.2 					"/>
				</g>
				<g>
					<polygon class="st1" points="290.3,419.2 309.1,421.8 299.8,333.3 298.2,247.1 278,244.8 286.7,333.2 					"/>
				</g>
				<g>
					<polygon class="st1" points="326.6,221.5 303,199.8 298.1,203.5 311.1,228.5 329.7,249.8 341.8,240.1 					"/>
				</g>
				<g>
					<polygon class="st1" points="397.2,201.5 421.2,151.5 453,156.1 467,170.9 477.9,191.2 495.4,182.7 470,165.5 465.6,157.9 
						515.3,157.5 516.2,138.3 431,138.5 443.2,120.5 429.2,117 391.9,194.4 					"/>
				</g>
			</g>
		</g>
	</g>
	<g>
		<g>
			<g>
				<g>
					<polygon class="st1" points="363,600.7 366.4,617.7 384.3,611.6 462,588.9 460.7,583.2 					"/>
				</g>
				<g>
					<polygon class="st1" points="590,342.8 532.1,342.9 532.2,354.7 589.8,354.1 					"/>
				</g>
				<g>
					<path class="st1" d="M571.6,596.5l-7-58.5l48.5-3.7l2.5-12l-50,5.5l-0.1-60.2l48.4-5.4l3.3-13.2l-54.6,10.3l2.8-63.1l52.7-3.3
						l0.2-4.6l-60.1-9.6l-60.8,5.7l0-3.2l-2.6,3.6l-7.7-53.6l3.8,0.1l10.8-58l-4.1-61.4l-70.4-2.1l-68.8-1.8l0.9,21.3l58.8-5.1l55,6
						l11.1,68.3l-14.6,71.1l4.7,0l3.7,28.6L441,467.3l10.7,1l26.2-36.2l-5.2,68.6l5.3,68.4l0.5,67.9l11.4-3.3l7.5-13.5l60.9,1.7
						l63.3-9l-1.3-7.4L571.6,596.5z M542.7,596.6l-49.4,6l-2.3-66.8l53.2,6.6L542.7,596.6z M542.8,522.3l-49.5,6.2l-2.3-63.8
						l53.2,6.8L542.8,522.3z M542.8,451.3l-49.5,6.2l-2.3-64.2l53.2,6.8L542.8,451.3z"/>
				</g>
				<g>
					<path class="st1" d="M380.2,429.2l-8.5-6.3l-9.6,9.3l26.9,17.7l21.2,22.3l-26.3,57.1l-17.3-0.7l9.2,15.9l80.7-20.5l-3.6-10.5
						l-58.5,10.4l38.5-54.2l27.6-63.3l-17.3-5.6l-26.3,61l-24.2-29.5l24.9-62.5l26,3.6l-0.4-56.4l2.2-59.8l-108.5,1L338,317
						l-1.1,57.8l67.8-6.1L380.2,429.2z M356.7,273.3l68.2,0.1l-2.5,32.8l-66.4,5.8L356.7,273.3z M356.7,360.8l0-37l65.7,4.5
						l3.2,33.7L356.7,360.8z"/>
				</g>
				<g>
					<polygon class="st1" points="334.9,155.8 343.8,172.8 360.9,193.5 375.8,183 355.1,164.2 346.9,154.5 398.5,155.7 399.1,142.5 
						320.7,143.3 335,118.8 315.8,110.4 271.3,203.3 277.4,206.8 313.7,157.9 					"/>
				</g>
				<g>
					<polygon class="st1" points="284.8,420.3 300.1,419.9 305.7,333.3 300.7,246.5 284.8,246.2 286.1,333.3 					"/>
				</g>
				<g>
					<polygon class="st1" points="325.7,222.4 303,198.2 297.5,203.7 314,226.5 330.7,251.4 344.5,239.7 					"/>
				</g>
				<g>
					<polygon class="st1" points="394.7,197.8 423,157.9 451.8,159.2 463.6,173.4 477.8,190.8 490.3,180.5 474,161.4 465.2,155.3 
						515.2,157.1 515.2,145.1 430.4,143.2 444,119.7 426.1,112.7 387.4,193.4 					"/>
				</g>
			</g>
			<g>
				<g>
					<polygon class="st1" points="362.7,599.8 367.6,615.5 384.6,612.6 462.1,589.3 460.6,582.3 					"/>
				</g>
				<g>
					<polygon class="st1" points="590,342.9 532.1,342.9 531.9,356.3 590,355 					"/>
				</g>
				<g>
					<path class="st1" d="M561.7,605.4l8.3-63.3l45.3,0.4l-2.7-8.1l-41.1-11.5l-8.6-57.6l52.8,4l1.6-20.6l-48.9,5.7l4-52.3l48.3,1.2
						l-2.2-15l-60,4.2l-60.8-15.7l0,7l-1.3,0.7l1.2-53.6l-2.6,0.1l3.7-58l-6.7-54.4l-64.4-1.4l-67,0.8l0.4,4.8l57.5,11.7l53.4-3.2
						l5.2,67l5.2,71.1l-6,0l8.8,29.7l-38.6,69.1l11.5,12.6l11.5-47.3l6.3,67.3l-6,68.4l8.5,68l13.3-2.4l1.5-26.9l65.6-0.3l62-1.5
						l2.4-12.1L561.7,605.4z M552.8,605.3l-54.4-7l-1-56.8l56.3-7.1L552.8,605.3z M552.7,531.3l-54.4-7.2l-0.9-53.6l56.3-7.3
						L552.7,531.3z M552.7,460.2l-54.4-7.2l-0.9-54l56.3-7.3L552.7,460.2z"/>
				</g>
				<g>
					<path class="st1" d="M380.5,429.6l-8.7-8.8l-8.6,10.9l25.9,18.3l23.5,23.1l-30,54.8l-14.4,1.4l7.1,18.8l80.3-25l-2.8-9.9
						l-58,7.5l34.7-52.6l25.2-60.3l-12.3-9.6l-26.1,57.3l-24.5-22.6l25-63.8l27.1,4.8l-4.1-56.6l2.9-55.2l-102.1,3.6l-5.3,51.7
						l4.6,54.3l62.7,3.7L380.5,429.6z M356.5,272.9l67.3,2.4l-0.8,31.9l-67,4.8L356.5,272.9z M356.5,361.2l1.3-35.4l65.2,1.5
						l2.6,34.9L356.5,361.2z"/>
				</g>
				<g>
					<polygon class="st1" points="334.9,155.7 347.2,170.2 361.6,195.5 375.2,182.3 355.4,163.9 347.4,157.5 398.8,156.8 
						398.9,143.5 320.4,146 333.3,120.3 317.8,112.8 273.1,203.9 279.2,209.3 314,158.5 					"/>
				</g>
				<g>
					<polygon class="st1" points="286.2,420.1 303.1,420.5 305.8,333.3 303.7,245.9 281.1,245.4 281.6,333.3 					"/>
				</g>
				<g>
					<polygon class="st1" points="326.6,221.5 303,199.8 296.7,204 313.1,227.1 329.9,250.1 345.4,239.6 					"/>
				</g>
				<g>
					<polygon class="st1" points="394.8,198 423.5,159.4 452.4,157.6 465.7,171.9 478.1,192 493,181.7 473.7,161.6 465.1,154.8 
						515.3,157.4 515,146.5 430.2,145.5 441.4,122.1 425.5,111.8 389.5,194 					"/>
				</g>
			</g>
			<g>
				<g>
					<polygon class="st1" points="363,600.6 367.3,616.1 384.4,612.1 462.6,590.4 460.7,582.8 					"/>
				</g>
				<g>
					<polygon class="st1" points="590,343 532,342.4 532,356 590,354.9 					"/>
				</g>
				<g>
					<path class="st1" d="M560.2,606.7l11.5-63.2l44.2,1.8l-3.6-10.1L570.2,524l-7.2-58.5l51.1-2.7l2.9-12.8l-45.3,1.7l-0.7-50.8
						l48.3-3.8l-1.4-5.7l-59.4-11.9l-60.8,5.2l0,7l2.7-7.4l-6.9-53.4l4.2,0.1l4.8-58l-4.2-62l-70.9,8l-67.7-5.1l-0.2,15.1l58.8-10.1
						l58.7,7.9l4.5,71.4l-0.5,71.1l-9.6,0l13.4,29.7l-37.1,69.3l9.3,11l27.2-48.1l-14.4,69.4l5.8,68.4l5.2,67.2l15.7,2.4l0.9-18.6
						l60.9-10.9l62.2-2.5l2-11.9L560.2,606.7z M554.3,606.5l-54.1-9.8l-0.5-53.4l54.7-9.6L554.3,606.5z M554.1,532.6L500,522.5
						l-0.5-50.1l54.7-9.9L554.1,532.6z M554.1,461.5L500,451.4l-0.5-50.5l54.7-9.9L554.1,461.5z"/>
				</g>
				<g>
					<path class="st1" d="M380.5,429.7l-8.9-4l-8.8,6.1l27.1,17.1l24.6,24.7L379.2,524l-11.6,4.9l7.1,22.3l80.2-29.1l-1.8-3.9
						l-58.7,4.5l31.5-56.9l33.3-59.4l-17.6-11.9l-25.6,57.9l-29.6-17.9l35.5-57l26.4-2.1l-3-58.5l0.3-60.6l-107.3,4.7l0.7,56l1,54.2
						l64.2-1.3L380.5,429.7z M356.4,272.8l69.8-1.9l-3.4,35.9l-67.5,6.3L356.4,272.8z M356.4,361.3l-1-39.9l67.4,6.1l3.5,35.8
						L356.4,361.3z"/>
				</g>
				<g>
					<polygon class="st1" points="335.3,154.9 344.1,172.6 360.9,193.3 373.7,180.5 356.2,163 347.2,156.3 399,157.6 399.1,142.3 
						320.8,143 332.8,120.6 317,111.9 271.3,203.3 276.5,205.6 313.1,156.7 					"/>
				</g>
				<g>
					<polygon class="st1" points="286.1,420.1 300.4,420 305.2,333.3 305.4,245.6 281.9,245.6 284.2,333.3 					"/>
				</g>
				<g>
					<polygon class="st1" points="325.9,222.2 303,200.1 296.4,204.1 312.8,227.3 329.8,250 345.2,239.6 					"/>
				</g>
				<g>
					<polygon class="st1" points="393.4,196 423.2,158.4 453,155.9 464,173.1 478.5,193.4 494.1,182.2 472,163.4 465.8,159.3 
						515.8,159.4 515.3,144.1 430.5,142.8 443,120.7 426.4,113.1 389.5,194.1 					"/>
				</g>
			</g>
			<g>
				<g>
					<polygon class="st1" points="363.2,601.4 366.5,617.7 384.5,612.2 463,591.5 460.7,583.1 					"/>
				</g>
				<g>
					<polygon class="st1" points="590,343 532.2,343.4 531.9,356.1 589.9,354.7 					"/>
				</g>
				<g>
					<path class="st1" d="M560.9,606.1l7.3-65.3l46.6,0.2l-2.2-7l-52.3-2l7.4-62.5l47.5-1.5l0.8-14.6l-46.2-0.2l-9.6-61.7l60,10.7
						l-0.5-21.2l-61.5,5.6l-60.8,0.9l0-5.7l1.4,2.7l-4.9-53.4l5.2,0.1l-10.7-58l1.9-52.8l-63,3.1l-68.8-15.3l-0.2,26.2l59.9-4.5
						l52.3,2.4l9.9,66.1l-2.3,71.1l-2.8,0l5.4,29l-40.6,68.8l16.9,12.1l21.9-47.3l-1.7,68.7l0.8,68.4l-9.4,70.5l32.8,2.8l-7-30.3
						l64,4.8l63.1-5.3l-0.1-6.6L560.9,606.1z M553.6,605.9l-56.8-6.3l-0.5-59.2l57.1-5.8L553.6,605.9z M553.4,532l-56.7-6.5
						l-0.5-56.1l57.1-5.9L553.4,532z M553.5,460.9l-56.7-6.5l-0.5-56.5l57.1-5.9L553.5,460.9z"/>
				</g>
				<g>
					<path class="st1" d="M383.5,433.5l-11.7-14.8l-5.3,10.8l19.2,23.6l20.2,17.8l-24.2,56l-7.1,4.7l0.9,14.8l78.2-25.8l-1.1-11.1
						l-58.9,18.3l31.6-62.2l29.5-58l-11.5-5.8l-27,52.9L385.8,435l30.9-66.4l27.4,5.2L449,317l-6.5-54.7l-105-2.8l-0.7,57.5
						l2.4,55.2l65.4-3.3L383.5,433.5z M354.1,268.6l68.8,8.5l2.1,33.6l-66.7-2.6L354.1,268.6z M354.1,365.5l4.7-38l66.2-3.8
						l-1.6,34.5L354.1,365.5z"/>
				</g>
				<g>
					<polygon class="st1" points="334,157.8 345.8,171.3 360.6,192.5 375.6,182.8 355.9,163.3 347.3,156.5 399.1,158 398.5,146.5 
						320.3,146.6 331.8,121.5 315.9,110.4 269.8,202.8 278.4,208.2 314.1,158.9 					"/>
				</g>
				<g>
					<polygon class="st1" points="283.6,420.6 302.5,420.4 303.8,333.3 304.5,245.7 287.6,246.8 282.1,333.3 					"/>
				</g>
				<g>
					<polygon class="st1" points="325.7,222.4 303,200 296.9,203.9 313.3,227 329.9,250.1 343.7,239.8 					"/>
				</g>
				<g>
					<polygon class="st1" points="395.7,199.3 422.6,156.3 453.2,155.6 465.6,171.9 477.7,190.3 493.2,181.8 471.7,163.7 
						465.1,154.6 515.3,157.4 515.6,142.5 430.2,145.8 443.5,120.2 425.8,112.3 389,193.8 					"/>
				</g>
			</g>
			<g>
				<g>
					<polygon class="st1" points="362.2,598.4 367.1,616.5 383.8,609.7 462.4,589.9 460.8,583.8 					"/>
				</g>
				<g>
					<polygon class="st1" points="589.8,343.9 531.9,342 532.1,355.2 590.2,355.8 					"/>
				</g>
				<g>
					<path class="st1" d="M563.7,603.6l0.6-66l49.2-2l-0.2-4.2l-52.8,0.5l12.1-58.5l43-4.6l1.1-18l-49.5,4.4l3.9-54.3L621,405
						l-1.3-23.4l-61.4,3.1l-60.8,5.3l0,0.1l-4.5-5.4l0-53.7l-2,0.1l-0.2-58l0.1-53.3l-63.5-7l-66.5,8.1l-2.2,12.2l59.6-6.5l61-1.3
						l2,73.3l-4.9,71.1l0.8,0l6.4,29.5l-40.7,68.8l10.9,4.8l30-41.1l-7.2,69.4l6.5,68.4l-3.2,67.5l15.2,1l-1.6-27.7l64.8,1.9
						l62.6-2.8l1.8-13.4L563.7,603.6z M550.8,603.6l-57.9-0.6l-0.9-66.2l59.4-0.5L550.8,603.6z M550.7,529.5l-57.8-0.6l-0.8-63.2
						l59.3-0.5L550.7,529.5z M550.7,458.4l-57.8-0.6l-0.8-63.6l59.3-0.5L550.7,458.4z"/>
				</g>
				<g>
					<path class="st1" d="M382,431.5l-10.2-10.8l-6.7,9.7l25.5,17.8l23.7,25.3L379.2,524l-7.2,6.6l4.2,11.5l78.2-20.7l-1.2-3.3
						l-59.3,8.8l31.9-61l35.2-59.6l-20.1-14.9l-24.5,65.7l-34-20.6l39.7-58.5l22.7-3.8l1.1-56.9l0.2-61.3l-108.4,4.1l-4.4,57.2
						l2.3,59.3l68.4-5.4L382,431.5z M355.3,270.7l68.5,4.6l0.3,33.8l-69.3,4.8L355.3,270.7z M355.3,363.3l2.5-37.6l66.3-0.5
						l2.7,38.8L355.3,363.3z"/>
				</g>
				<g>
					<polygon class="st1" points="334,157.8 343.8,172.8 360.1,191.1 376.3,183.6 355.4,163.9 347.1,155.2 398.9,157.1 398.6,146 
						320.7,143.5 334.6,119.2 317.1,112 271.7,203.4 279.3,209.4 314,158.7 					"/>
				</g>
				<g>
					<polygon class="st1" points="284.9,420.3 301.8,420.3 303.9,333.3 303,246.1 285.9,246.5 282.5,333.3 					"/>
				</g>
				<g>
					<polygon class="st1" points="325.6,222.5 303,198.6 298.2,203.5 312.7,227.4 330.1,250.4 344,239.8 					"/>
				</g>
				<g>
					<polygon class="st1" points="393.7,196.5 423.1,158.1 453.1,155.7 463.4,173.6 478.8,194.6 493.1,181.7 472.5,162.9 
						465.5,157.7 515,156.3 515.5,143.2 430.4,143.8 443.6,120.1 425.4,111.6 389.9,194.2 					"/>
				</g>
			</g>
		</g>
	</g>
</g>
</svg>
